<svg width="37" height="37" viewBox="0 0 37 37" fill="none" xmlns="http://www.w3.org/2000/svg">
<g clip-path="url(#clip0)">
<path d="M4.31667 37.0003H27.75C30.133 36.9976 32.064 35.0666 32.0667 32.6837V32.067C32.0673 30.9899 31.9598 29.9159 31.746 28.8602C31.4331 27.3173 30.8926 25.8293 30.1426 24.4451L29.0586 25.0319C29.6322 26.0969 30.0718 27.2288 30.3678 28.4016C28.4588 28.632 26.9117 30.0592 26.529 31.9435L27.7377 32.1853C28.0246 30.7831 29.2025 29.7382 30.6292 29.6214C30.7644 30.4296 30.8324 31.2477 30.8333 32.067V32.6837C30.8312 34.3858 29.4522 35.7649 27.75 35.767H22.1506C21.8444 33.6451 20.0272 32.0694 17.8833 32.067V33.3003C19.3479 33.3021 20.6099 34.3322 20.9049 35.767H16.0333C14.3306 35.767 12.95 34.3864 12.95 32.6837C12.95 30.9809 14.3306 29.6003 16.0333 29.6003H21.608C21.6884 30.3796 21.9549 31.1284 22.3849 31.7833L23.4228 31.1173C22.68 30.1273 22.6215 28.7828 23.2756 27.7319L22.2605 27.0313C21.9835 27.4351 21.7878 27.8888 21.6833 28.367H18.4506C18.1444 26.2451 16.3272 24.6694 14.1833 24.667V25.9003C15.6479 25.9021 16.9099 26.9322 17.2049 28.367H16.0333C14.5832 28.3682 13.2306 29.0975 12.4327 30.3082C11.2117 30.1586 10.1172 29.4829 9.43608 28.4582L9.14642 28.0228L8.12025 28.7072L8.41021 29.139C9.21597 30.3456 10.471 31.1799 11.8955 31.4563C11.4369 32.9902 11.8693 34.6517 13.0177 35.767H4.31667C2.83582 35.7649 1.56576 34.7104 1.29145 33.2552C2.33117 33.1459 3.32783 32.7815 4.19321 32.1947C5.332 33.3054 6.86132 33.9239 8.45207 33.917C8.51861 33.917 8.58576 33.917 8.65321 33.914L8.61346 32.6806C7.33195 32.7318 6.08326 32.2684 5.14561 31.3937C5.43377 31.1068 5.69423 30.793 5.92307 30.457L6.26904 29.9388L5.24167 29.2549L4.8963 29.7729C4.06434 31.0243 2.72532 31.8475 1.23333 32.0257C1.24026 29.6419 1.8241 27.295 2.93519 25.1861C3.9731 24.9329 5.05829 25.3547 5.65238 26.2427L6.67855 25.558C6.00949 24.5604 4.90563 23.9401 3.70542 23.8874C4.58375 22.565 5.66803 21.3915 6.91702 20.412C7.27775 22.1744 8.35089 23.5466 9.69895 23.9362C9.40326 24.717 9.2509 25.545 9.25 26.38H10.4833C10.4791 24.8678 11.0801 23.4165 12.1527 22.3503L12.4833 22.0196L11.6113 21.1476L11.2807 21.4783C10.8862 21.8754 10.5414 22.3189 10.2533 22.7992C9.13046 22.6345 8.20155 21.284 8.04316 19.6189C9.23314 18.8484 10.5285 18.2546 11.8886 17.8559L11.5447 16.6714C9.94917 17.1351 8.43611 17.846 7.06095 18.7785C2.64673 21.7607 0.00120443 26.7398 0 32.067V32.6837C0.00270996 35.0666 1.93371 36.9976 4.31667 37.0003V37.0003Z" fill="black"/>
<path d="M12.3339 16.0333H14.6859C14.8385 16.5004 15.0261 16.955 15.2471 17.3937L13.5856 19.0549C13.1039 19.5367 13.1039 20.3178 13.5856 20.7996L16.2016 23.4156C16.6834 23.8973 17.4645 23.8973 17.9463 23.4156L19.6069 21.7541C19.7704 21.8369 19.9369 21.9146 20.1046 21.9877C20.3846 22.1112 20.6731 22.219 20.9679 22.3159V24.6667C20.9679 25.3478 21.5201 25.9 22.2012 25.9H25.9012C26.5823 25.9 27.1345 25.3478 27.1345 24.6667V22.3147C27.6015 22.1621 28.0562 21.9745 28.4949 21.7535L30.1555 23.415C30.6373 23.8967 31.4184 23.8967 31.9001 23.415L34.5168 20.799C34.9985 20.3172 34.9985 19.5361 34.5168 19.0543L32.8547 17.3937C33.0757 16.955 33.263 16.5004 33.4153 16.0333H35.7673C36.4484 16.0333 37.0006 15.4811 37.0006 14.8V11.1C37.0006 10.4189 36.4484 9.86667 35.7673 9.86667H33.4153C33.2627 9.39965 33.0751 8.94498 32.8541 8.50627L34.5162 6.84506C34.9976 6.36329 34.9976 5.58282 34.5162 5.10105L31.8995 2.48443C31.4178 2.00266 30.6367 2.00266 30.1549 2.48443L28.4943 4.14955C28.0556 3.92734 27.6009 3.73884 27.1339 3.58528V1.23333C27.1339 0.55223 26.5817 0 25.9006 0H22.2006C21.5195 0 20.9673 0.55223 20.9673 1.23333V3.58528C20.6731 3.68163 20.3846 3.79124 20.104 3.91288C19.9363 3.98605 19.7698 4.06374 19.6063 4.14654L17.9456 2.48443C17.4639 2.00296 16.6834 2.00296 16.2016 2.48443L13.5856 5.10105C13.1039 5.58282 13.1039 6.36389 13.5856 6.84566L15.2471 8.50627C15.1643 8.66977 15.0866 8.83628 15.0135 9.004C14.89 9.28403 14.7822 9.57249 14.6853 9.86727H12.3339C11.6528 9.86727 11.1006 10.4195 11.1006 11.1006V14.8006C11.1009 15.4814 11.6531 16.0333 12.3339 16.0333V16.0333ZM12.3339 11.1H15.1435C15.4209 11.1 15.6642 10.9148 15.7379 10.6474C15.8463 10.2545 15.9821 9.86968 16.1444 9.496C16.2631 9.2232 16.3962 8.95702 16.5428 8.69807C16.6792 8.45688 16.6382 8.15397 16.4422 7.95795L14.4576 5.97306L17.0742 3.35644L19.0585 5.34163C19.2546 5.53765 19.5575 5.57861 19.7987 5.4422C20.0576 5.29556 20.3238 5.16248 20.5966 5.04384C20.9703 4.88154 21.3551 4.74574 21.748 4.63735C22.0154 4.56357 22.2006 4.32028 22.2006 4.04296V1.23333H25.9006V4.04296C25.9006 4.31998 26.0855 4.56327 26.3526 4.63735C27.0331 4.82343 27.688 5.09292 28.3025 5.43889C28.5437 5.57559 28.8466 5.53464 29.0426 5.33862L31.0275 3.35343L33.6442 5.97065L31.659 7.95494C31.4629 8.15096 31.422 8.45387 31.5584 8.69506C31.9047 9.30962 32.1739 9.96453 32.3602 10.645C32.4343 10.9121 32.6773 11.097 32.9546 11.097H35.7673V14.797H32.9576C32.6806 14.7967 32.4373 14.9819 32.3632 15.249C32.1772 15.9295 31.9077 16.5841 31.5617 17.1989C31.425 17.4401 31.466 17.7427 31.662 17.9387L33.6472 19.9239L31.0299 22.5396L29.0457 20.5584C28.8496 20.3623 28.5467 20.3214 28.3055 20.4578C27.691 20.8041 27.0361 21.0733 26.3556 21.2596C26.0885 21.3337 25.9036 21.5767 25.9036 21.854V24.6667H22.2006V21.857C22.2006 21.5797 22.0154 21.3364 21.748 21.2627C21.3551 21.1543 20.9706 21.0185 20.5966 20.8562C20.3238 20.7375 20.0576 20.6044 19.7987 20.4578C19.7059 20.4051 19.6011 20.3774 19.4945 20.3777C19.331 20.3777 19.1742 20.4427 19.0585 20.5584L17.0736 22.543L14.4576 19.9263L16.4422 17.9451C16.6382 17.749 16.6792 17.4461 16.5428 17.2049C16.1965 16.5904 15.9273 15.9355 15.7409 15.255C15.6678 14.9855 15.4227 14.7988 15.1435 14.8H12.3339V11.1Z" fill="black"/>
<path d="M24.0499 19.7337C27.7963 19.7337 30.8333 16.6967 30.8333 12.9503C30.8333 9.20396 27.7963 6.16699 24.0499 6.16699C20.3036 6.16699 17.2666 9.20396 17.2666 12.9503C17.2711 16.6949 20.3054 19.7291 24.0499 19.7337ZM24.0499 7.40033C27.1152 7.40033 29.5999 9.88506 29.5999 12.9503C29.5999 16.0156 27.1152 18.5003 24.0499 18.5003C20.9847 18.5003 18.4999 16.0156 18.4999 12.9503C18.5035 9.88657 20.9862 7.40394 24.0499 7.40033Z" fill="black"/>
<path d="M24.0501 16.0334C25.7529 16.0334 27.1335 14.6528 27.1335 12.95C27.1335 11.2473 25.7529 9.8667 24.0501 9.8667C22.3474 9.8667 20.9668 11.2473 20.9668 12.95C20.9689 14.6522 22.348 16.0313 24.0501 16.0334ZM24.0501 11.1C25.0718 11.1 25.9001 11.9284 25.9001 12.95C25.9001 13.9717 25.0718 14.8 24.0501 14.8C23.0285 14.8 22.2001 13.9717 22.2001 12.95C22.2001 11.9284 23.0285 11.1 24.0501 11.1Z" fill="black"/>
</g>
<defs>
<clipPath id="clip0">
<rect width="37" height="37" fill="white"/>
</clipPath>
</defs>
</svg>
