<svg width="30" height="30" viewBox="0 0 30 30" fill="none" xmlns="http://www.w3.org/2000/svg">
<g clip-path="url(#clip0)">
<path d="M28.1959 9.51012C28.7934 6.55946 26.6995 3.78501 23.7789 3.47114C22.2524 -0.13243 17.3253 -0.737409 15.001 2.50684C12.6776 -0.736168 7.75025 -0.134144 6.22305 3.47114C3.30059 3.78525 1.20897 6.56147 1.80603 9.51012C-0.370895 11.3343 -0.595922 14.5854 1.23432 16.6936C-1.79796 20.7771 1.08413 26.729 6.31526 26.729C7.98568 30.2137 12.7548 30.6269 15.0009 27.4918C17.2489 30.6295 22.0178 30.2103 23.6865 26.729C28.9046 26.7405 31.8006 20.7782 28.7675 16.6936C30.6001 14.5828 30.3701 11.3321 28.1959 9.51012ZM10.7643 27.6918C8.12145 27.6918 6.5965 24.5866 8.31858 22.5027C8.65136 22.1001 8.59468 21.504 8.19203 21.1712C7.78938 20.8386 7.19333 20.8953 6.8606 21.2978C6.06547 22.26 5.64225 23.5059 5.7091 24.7823C2.12309 24.4012 0.525846 20.1136 2.89641 17.4704C2.92236 17.4997 3.81147 16.2287 5.70851 16.0266C5.6773 16.6392 5.75734 17.2586 5.95364 17.8591C6.08403 18.2579 6.45435 18.5112 6.85239 18.5112C7.49319 18.5112 7.95175 17.8838 7.75149 17.2713C7.20828 15.6094 8.11826 13.8154 9.78011 13.2722C10.2766 13.1099 10.5475 12.5759 10.3851 12.0794C10.2228 11.5829 9.68902 11.3118 9.19233 11.4744C8.97587 11.5451 8.76692 11.6305 8.56507 11.7274C8.18825 10.7625 8.44821 9.62272 9.28838 8.92654C9.69056 8.59322 9.74642 7.99705 9.41316 7.59487C9.0799 7.1927 8.48367 7.1369 8.0815 7.47009C6.44353 8.82741 6.06452 11.109 7.01677 12.8828C6.37886 13.5875 6.23074 14.11 6.17742 14.11C4.78931 14.11 3.50487 14.5619 2.46302 15.326C1.30236 13.8728 1.63295 11.6829 3.27098 10.6614C3.64833 10.4261 3.81076 9.95964 3.66116 9.5408C2.96639 7.59523 4.27684 5.30689 6.78536 5.30689C7.21289 5.30689 7.58918 5.01909 7.6993 4.60331C8.06678 3.21579 9.3271 2.24676 10.7642 2.24676C12.5126 2.24676 13.935 3.66916 13.935 5.4176V24.5209C13.935 26.2694 12.5127 27.6918 10.7643 27.6918ZM27.2984 15.326C26.1705 14.4988 24.8026 14.0879 23.5657 14.1109C23.3514 13.6617 23.0869 13.2608 22.7448 12.8828C23.6962 11.1104 23.3194 8.82859 21.68 7.47009C21.2777 7.13684 20.6816 7.1927 20.3484 7.59487C20.0151 7.99711 20.071 8.59328 20.4731 8.92654C21.3133 9.62266 21.5733 10.7625 21.1965 11.7274C20.9945 11.6305 20.7856 11.5451 20.5692 11.4744C20.0727 11.3119 19.5387 11.5829 19.3764 12.0794C19.2141 12.5759 19.485 13.1099 19.9814 13.2722C21.6433 13.8154 22.5533 15.6094 22.01 17.2713C21.8477 17.7677 22.1186 18.3018 22.6151 18.4641C23.1088 18.6255 23.6447 18.3581 23.8079 17.8591C24.0042 17.2585 24.0843 16.6392 24.053 16.0266C26.2753 16.2633 27.9871 18.153 27.9871 20.4044C27.9871 22.674 26.2608 24.5476 24.0524 24.7822C24.1192 23.5108 23.6992 22.2635 22.901 21.2977C22.5683 20.895 21.9721 20.8385 21.5695 21.1711C21.1669 21.5039 21.1102 22.1 21.443 22.5026C23.1619 24.5827 21.6414 27.6917 18.9973 27.6917C17.2489 27.6917 15.8265 26.2693 15.8265 24.5208V5.4176C15.8265 3.66922 17.2489 2.24676 18.9973 2.24676C20.4344 2.24676 21.6947 3.21585 22.0622 4.60331C22.1751 5.02925 22.5655 5.32184 23.0075 5.30641C25.2227 5.22496 26.8555 7.4263 26.1004 9.54086C25.9508 9.9597 26.1132 10.4261 26.4905 10.6614C28.1302 11.684 28.4578 13.8746 27.2984 15.326Z" fill="#6B68FF"/>
</g>
<defs>
<clipPath id="clip0">
<rect width="30" height="30" fill="white"/>
</clipPath>
</defs>
</svg>
