<svg width="512" height="512" viewBox="0 0 512 512" fill="none" xmlns="http://www.w3.org/2000/svg">
<path d="M509.07 93.916L418.07 2.929C416.195 1.054 413.652 0 411 0H114C97.458 0 84 13.458 84 30V49.064C34.875 68.334 0 116.215 0 172.091C0 177.613 4.478 182.091 10 182.091H132.091C137.613 182.091 142.091 177.613 142.091 172.091V50C142.091 44.478 137.613 40 132.091 40C122.453 40 113.057 41.047 104 43.017V30C104 24.486 108.486 20 114 20H401V81C401 97.542 414.458 111 431 111H492V482C492 487.514 487.514 492 482 492H114C108.486 492 104 487.514 104 482V334.5C104 328.978 100.522 329.5 95 329.5C89.478 329.5 86 328.978 86 334.5L84 482C84 498.542 97.458 512 114 512H482C498.542 512 512 498.542 512 482V100.987C512 98.335 510.946 95.791 509.07 93.916ZM122.09 60.443V162.091H20.442C25.223 108.243 68.243 65.224 122.09 60.443ZM431 91C425.486 91 421 86.514 421 81V34.14L477.868 91H431Z" fill="black"/>
<path d="M167.909 75.8191C162.387 75.8191 157.909 80.2971 157.909 85.8191V197.909H45.8193C40.2973 197.909 35.8193 202.387 35.8193 207.909C35.8193 280.744 95.0743 340 167.909 340C240.744 340 300 280.744 300 207.909C300 135.074 240.744 75.8191 167.909 75.8191ZM177.909 96.2621C201.319 98.3401 222.68 107.65 239.745 121.932L177.909 183.767V96.2621ZM167.909 320C109.472 320 61.3353 275.051 56.2623 217.909H167.909C170.669 217.909 173.167 216.791 174.977 214.983C174.978 214.982 174.979 214.982 174.981 214.98L253.89 136.072C270.181 155.539 280 180.599 280 207.909C280 269.716 229.716 320 167.909 320Z" fill="black"/>
<path d="M438.073 315.605C421.531 315.605 408.073 329.063 408.073 345.605C408.073 349.751 408.919 353.702 410.446 357.297L352.833 414.91C348.874 412.981 344.43 411.896 339.738 411.896C335.157 411.896 330.815 412.932 326.928 414.775L288.67 376.517C289.996 373.133 290.732 369.454 290.732 365.604C290.732 349.062 277.274 335.604 260.732 335.604C244.19 335.604 230.732 349.062 230.732 365.604C230.732 370.086 231.727 374.338 233.497 378.161L196.802 414.856C192.893 412.986 188.519 411.937 183.905 411.937C167.363 411.937 153.905 425.395 153.905 441.937C153.905 458.479 167.363 471.937 183.905 471.937C200.447 471.937 213.905 458.479 213.905 441.937C213.905 437.3 212.847 432.906 210.961 428.983L247.451 392.493C251.458 394.481 255.966 395.604 260.734 395.604C266.119 395.604 271.172 394.171 275.545 391.677L312.724 428.856C310.812 432.801 309.738 437.225 309.738 441.896C309.738 458.438 323.196 471.896 339.738 471.896C356.28 471.896 369.738 458.438 369.738 441.896C369.738 437.338 368.712 433.016 366.885 429.144L423.96 372.069C428.169 374.323 432.974 375.605 438.073 375.605C454.615 375.605 468.073 362.147 468.073 345.605C468.073 329.063 454.615 315.605 438.073 315.605ZM183.904 451.938C178.39 451.938 173.904 447.452 173.904 441.938C173.904 436.424 178.39 431.938 183.904 431.938C186.589 431.938 189.024 433.007 190.822 434.735C190.862 434.777 190.897 434.822 190.938 434.863C190.986 434.911 191.038 434.951 191.087 434.997C192.827 436.797 193.904 439.243 193.904 441.938C193.904 447.451 189.418 451.938 183.904 451.938ZM260.732 375.604C255.218 375.604 250.732 371.118 250.732 365.604C250.732 360.09 255.218 355.604 260.732 355.604C266.246 355.604 270.732 360.09 270.732 365.604C270.732 371.118 266.246 375.604 260.732 375.604ZM339.736 451.896C334.222 451.896 329.736 447.41 329.736 441.896C329.736 436.382 334.222 431.896 339.736 431.896C345.25 431.896 349.736 436.382 349.736 441.896C349.736 447.41 345.25 451.896 339.736 451.896ZM438.071 355.604C432.557 355.604 428.071 351.118 428.071 345.604C428.071 340.09 432.558 335.604 438.071 335.604C443.585 335.604 448.071 340.09 448.071 345.604C448.071 351.118 443.585 355.604 438.071 355.604Z" fill="black"/>
<path d="M388.09 244H335.311C329.789 244 325.311 248.478 325.311 254C325.311 259.522 329.788 264 335.311 264H388.09C393.612 264 398.09 259.522 398.09 254C398.09 248.478 393.612 244 388.09 244Z" fill="black"/>
<path d="M457.465 148H335.311C329.789 148 325.311 152.478 325.311 158C325.311 163.522 329.788 168 335.311 168H457.465C462.987 168 467.465 163.522 467.465 158C467.465 152.478 462.987 148 457.465 148Z" fill="black"/>
<path d="M457.465 196H335.311C329.789 196 325.311 200.478 325.311 206C325.311 211.522 329.788 216 335.311 216H457.465C462.987 216 467.465 211.522 467.465 206C467.465 200.478 462.987 196 457.465 196Z" fill="black"/>
</svg>
