<svg width="512" height="512" viewBox="0 0 512 512" fill="none" xmlns="http://www.w3.org/2000/svg">
<path d="M450 0C447.96 0 445.945 0.105 443.955 0.299C443.188 0.111 442.392 0 441.567 0H140C104.71 0 76 28.71 76 64V175.5C76 181.023 80.978 179 86.5 179C92.022 179 96 181.023 96 175.5V64C96 39.738 115.738 20 140 20H404.445C394.245 31.054 388 45.809 388 62C388 62.338 388.018 62.671 388.051 63C388.018 63.329 388 63.662 388 64V132.333C388 137.856 392.478 142.333 398 142.333C403.522 142.333 408 137.856 408 132.333V72H502C507.522 72 512 67.523 512 62C512 27.813 484.187 0 450 0ZM409.213 52C413.712 33.655 430.287 20 450.001 20C469.715 20 486.289 33.655 490.788 52H409.213Z" fill="black"/>
<path d="M337.865 98.99H274.323C268.801 98.99 264.323 103.467 264.323 108.99C264.323 114.513 268.801 118.99 274.323 118.99H314.994L201.563 232.421L135.071 165.929C131.165 162.024 124.835 162.025 120.928 165.929L31.1778 255.68C27.2728 259.585 27.2728 265.917 31.1778 269.823C33.1308 271.775 35.6888 272.751 38.2488 272.751C40.8088 272.751 43.3668 271.775 45.3198 269.822L128 187.142L194.492 253.634C198.398 257.539 204.728 257.539 208.635 253.634L327.865 134.404V172.532C327.865 178.055 332.343 182.532 337.865 182.532C343.387 182.532 347.865 178.055 347.865 172.532V108.99C347.865 103.467 343.387 98.99 337.865 98.99Z" fill="black"/>
<path d="M456.01 314.018C456.011 308.495 451.533 304.018 446.011 304.018H370.011V228.018C370.011 222.495 365.533 218.018 360.011 218.018C307.076 218.018 264.011 261.083 264.011 314.018C264.011 366.953 307.076 410.018 360.011 410.018C369.744 410.018 379.141 408.557 388 405.852V450C388 473.159 369.159 492 346 492C322.841 492 304 473.159 304 450C304 449.689 303.981 449.382 303.954 449.079C303.992 448.724 304.014 448.365 304.014 448C304.014 442.477 299.536 438 294.014 438H96V312.5C96 306.977 91.022 308 85.5 308C79.978 308 76 306.977 76 312.5V438H32C26.478 438 22 442.477 22 448C22 483.29 50.71 512 86 512H346C380.187 512 408 484.187 408 450V397.983C408 397.706 407.981 397.434 407.958 397.162C436.659 380.546 456.01 349.5 456.01 314.018ZM86 492C65.177 492 47.686 477.46 43.146 458H284.533C286.22 471.027 291.953 482.798 300.444 492H86ZM360.011 390.018C318.105 390.018 284.011 355.925 284.011 314.018C284.011 275.5 312.813 243.583 350.011 238.673V314.018C350.011 319.541 354.489 324.018 360.011 324.018H435.356C430.445 361.216 398.528 390.018 360.011 390.018Z" fill="black"/>
<path d="M394 162.029C388.478 162.029 384 166.506 384 172.029V280.029C384 285.552 388.478 290.029 394 290.029H502C507.522 290.029 512 285.552 512 280.029C512 214.963 459.065 162.029 394 162.029ZM404 270.029V182.535C450.072 187.224 486.805 223.956 491.494 270.029H404Z" fill="black"/>
<path d="M220 336H134C128.478 336 124 340.477 124 346C124 351.523 128.478 356 134 356H220C225.522 356 230 351.523 230 346C230 340.477 225.522 336 220 336Z" fill="black"/>
<path d="M220 384H134C128.478 384 124 388.477 124 394C124 399.523 128.478 404 134 404H220C225.522 404 230 399.523 230 394C230 388.477 225.522 384 220 384Z" fill="black"/>
<path d="M168.419 288H134C128.478 288 124 292.477 124 298C124 303.523 128.478 308 134 308H168.419C173.941 308 178.419 303.523 178.419 298C178.419 292.477 173.941 288 168.419 288Z" fill="black"/>
</svg>
