<svg width="50" height="41" viewBox="0 0 50 41" fill="none" xmlns="http://www.w3.org/2000/svg">
<path d="M42.1846 14.2931C43.5928 14.2931 44.7344 13.1287 44.7344 11.6923C44.7344 10.256 43.5928 9.09155 42.1846 9.09155C40.7764 9.09155 39.6348 10.256 39.6348 11.6923C39.6348 13.1287 40.7764 14.2931 42.1846 14.2931Z" fill="#39DDD2"/>
<path d="M29.6494 26.8141C31.0576 26.8141 32.1992 25.6497 32.1992 24.2133C32.1992 22.777 31.0576 21.6125 29.6494 21.6125C28.2412 21.6125 27.0996 22.777 27.0996 24.2133C27.0996 25.6497 28.2412 26.8141 29.6494 26.8141Z" fill="#FEC96B"/>
<path d="M19.5771 16.8942C20.9854 16.8942 22.1269 15.7298 22.1269 14.2934C22.1269 12.857 20.9854 11.6926 19.5771 11.6926C18.1689 11.6926 17.0273 12.857 17.0273 14.2934C17.0273 15.7298 18.1689 16.8942 19.5771 16.8942Z" fill="#A0E557"/>
<path d="M9.78418 26.8193C11.1924 26.8193 12.334 25.6549 12.334 24.2185C12.334 22.7821 11.1924 21.6177 9.78418 21.6177C8.37596 21.6177 7.23438 22.7821 7.23438 24.2185C7.23438 25.6549 8.37596 26.8193 9.78418 26.8193Z" fill="#FF5D5D"/>
<path d="M2.92969 25.551C2.67285 25.551 2.4209 25.6576 2.23926 25.8429C2.05762 26.0282 1.95312 26.2841 1.95312 26.5471C1.95312 26.8091 2.05752 27.0661 2.23926 27.2514C2.4209 27.4365 2.67285 27.5432 2.92969 27.5432C3.18652 27.5432 3.43847 27.4366 3.62002 27.2514C3.80166 27.0651 3.90625 26.8091 3.90625 26.5471C3.90625 26.2851 3.80175 26.0282 3.62002 25.8429C3.43847 25.6576 3.18652 25.551 2.92969 25.551Z" fill="black"/>
<path d="M1.95319 22.5308C1.95319 23.0808 2.3905 23.5269 2.92976 23.5269C3.46901 23.5269 3.90632 23.0808 3.90632 22.5308V3.77986L4.19235 4.07162C4.38307 4.26596 4.63297 4.36327 4.88288 4.36327C5.13278 4.36327 5.38268 4.26596 5.5734 4.07152C5.95475 3.68254 5.95475 3.05182 5.5734 2.66275L3.62028 0.670562C3.23884 0.281688 2.62067 0.281688 2.23913 0.670562L0.28601 2.66275C-0.0953367 3.05172 -0.0953367 3.68245 0.28601 4.07152C0.667455 4.46039 1.28562 4.46039 1.66716 4.07152L1.95319 3.77986V22.5308V22.5308Z" fill="black"/>
<path d="M49.714 36.9284L47.7609 34.9362C47.3794 34.5473 46.7612 34.5473 46.3797 34.9362C45.9984 35.3252 45.9984 35.9559 46.3797 36.345L46.6657 36.6367H43.1611V22.6582C43.1611 22.1081 42.7238 21.6621 42.1845 21.6621C41.6452 21.6621 41.2079 22.1081 41.2079 22.6582V36.6366H30.6254V30.2616C30.6254 29.7116 30.1881 29.2656 29.6489 29.2656C29.1096 29.2656 28.6723 29.7116 28.6723 30.2616V36.6366H20.5542V20.6519C20.5542 20.1018 20.1169 19.6558 19.5776 19.6558C19.0383 19.6558 18.601 20.1018 18.601 20.6519V36.6366H10.7602V30.4111C10.7602 29.861 10.3229 29.415 9.78368 29.415C9.24442 29.415 8.80712 29.861 8.80712 30.4111V36.6366H3.90625V30.9036C3.90625 30.3536 3.46894 29.9075 2.92969 29.9075C2.39043 29.9075 1.95312 30.3536 1.95312 30.9036V37.6327C1.95312 38.1828 2.39043 38.6288 2.92969 38.6288H46.6656L46.3796 38.9206C45.9983 39.3095 45.9983 39.9403 46.3796 40.3293C46.5703 40.5238 46.8202 40.6211 47.0701 40.6211C47.32 40.6211 47.5699 40.5238 47.7607 40.3293L49.7138 38.3372C50.0953 37.9481 50.0953 37.3174 49.714 36.9284Z" fill="black"/>
<path d="M9.78383 27.8153C11.7282 27.8153 13.31 26.202 13.31 24.2187C13.31 23.587 13.149 22.9932 12.8674 22.4768L17.8299 17.415C18.3455 17.7165 18.9419 17.89 19.5777 17.89C20.291 17.89 20.9552 17.6721 21.5107 17.2992L26.5712 22.4609C26.286 22.9798 26.1228 23.5773 26.1228 24.2134C26.1228 26.1966 27.7045 27.81 29.6488 27.81C31.5932 27.81 33.1749 26.1966 33.1749 24.2134C33.1749 23.5917 33.0193 23.0064 32.746 22.4957L40.3359 14.754C40.8738 15.0931 41.5069 15.2895 42.1845 15.2895C44.1288 15.2895 45.7105 13.676 45.7105 11.6928C45.7105 9.70956 44.1288 8.09619 42.1845 8.09619C40.2401 8.09619 38.6584 9.70956 38.6584 11.6928C38.6584 12.2615 38.7891 12.7997 39.0205 13.2784L31.3736 21.0782C30.8633 20.7849 30.2751 20.6168 29.6488 20.6168C29.0365 20.6168 28.4604 20.777 27.958 21.0581L22.786 15.7826C22.9894 15.3285 23.1036 14.8245 23.1036 14.2934C23.1036 12.3102 21.5219 10.6967 19.5776 10.6967C17.6332 10.6967 16.0514 12.3102 16.0514 14.2934C16.0514 14.9054 16.2024 15.4819 16.4678 15.9868L11.4847 21.0696C10.9799 20.7848 10.4001 20.6221 9.78364 20.6221C7.8393 20.6221 6.25757 22.2355 6.25757 24.2187C6.25757 26.202 7.8395 27.8153 9.78383 27.8153ZM42.1847 10.0883C43.052 10.0883 43.7576 10.8081 43.7576 11.6927C43.7576 12.5773 43.0519 13.2972 42.1847 13.2972C41.3174 13.2972 40.6117 12.5773 40.6117 11.6927C40.6117 10.8081 41.3173 10.0883 42.1847 10.0883ZM31.222 24.2133C31.222 25.098 30.5163 25.8178 29.649 25.8178C28.7817 25.8178 28.0761 25.0979 28.0761 24.2133C28.0761 23.3286 28.7817 22.6088 29.649 22.6088C30.5163 22.6088 31.222 23.3285 31.222 24.2133ZM19.5778 12.6888C20.4451 12.6888 21.1507 13.4086 21.1507 14.2933C21.1507 15.1779 20.445 15.8977 19.5778 15.8977C18.7105 15.8977 18.0047 15.1779 18.0047 14.2933C18.0047 13.4086 18.7104 12.6888 19.5778 12.6888ZM9.78383 22.6143C10.2087 22.6143 10.5942 22.7877 10.8776 23.068C10.8824 23.0731 10.8866 23.0787 10.8914 23.0837C10.8972 23.0896 10.9036 23.0945 10.9095 23.1003C11.1859 23.3896 11.357 23.7839 11.357 24.2188C11.357 25.1036 10.6512 25.8232 9.78393 25.8232C8.91664 25.8232 8.21098 25.1035 8.21098 24.2188C8.21098 23.3342 8.91645 22.6143 9.78383 22.6143Z" fill="black"/>
<path d="M41.4941 17.8036C41.3126 17.9888 41.208 18.2458 41.208 18.5078C41.208 18.7698 41.3125 19.0268 41.4941 19.2119C41.6758 19.3972 41.9277 19.5039 42.1846 19.5039C42.4414 19.5039 42.6934 19.3973 42.875 19.2119C43.0565 19.0268 43.1611 18.7698 43.1611 18.5078C43.1611 18.2458 43.0566 17.9888 42.875 17.8036C42.6934 17.6183 42.4414 17.5117 42.1846 17.5117C41.9277 17.5117 41.6758 17.6182 41.4941 17.8036Z" fill="black"/>
</svg>
