<svg width="37" height="28" viewBox="0 0 37 28" fill="none" xmlns="http://www.w3.org/2000/svg">
<path d="M16.7759 23.425C16.7759 23.8463 16.4345 24.1874 16.0133 24.1874C15.5924 24.1874 15.251 23.8463 15.251 23.425C15.251 23.0038 15.5924 22.6624 16.0133 22.6624C16.4345 22.6624 16.7759 23.0038 16.7759 23.425Z" fill="black"/>
<path d="M22.1138 17.3246C22.1138 17.7458 21.7724 18.0873 21.3512 18.0873C20.9303 18.0873 20.5889 17.7458 20.5889 17.3246C20.5889 16.9037 20.9303 16.5623 21.3512 16.5623C21.7724 16.5623 22.1138 16.9037 22.1138 17.3246Z" fill="black"/>
<path d="M33.5516 12.7495C33.5516 13.1707 33.2102 13.5118 32.789 13.5118C32.3678 13.5118 32.0264 13.1707 32.0264 12.7495C32.0264 12.3282 32.3678 11.9868 32.789 11.9868C33.2102 11.9868 33.5516 12.3282 33.5516 12.7495V12.7495Z" fill="black"/>
<path d="M9.91257 18.8496C11.8952 18.8636 13.7857 18.0133 15.0907 16.5206C16.3958 15.0278 16.9861 13.0408 16.7076 11.0776L10.326 12.6698L5.95703 17.5852C7.1119 18.4079 8.49448 18.8499 9.91257 18.8496Z" fill="black"/>
<path d="M9.15082 5.16895C6.59448 5.44977 4.41082 7.13963 3.49735 9.54394C2.58388 11.9486 3.09469 14.6621 4.81999 16.5695L9.15082 11.6971V5.16895Z" fill="black"/>
<path d="M10.6748 5.16895V11.0106L16.3374 9.59802C15.434 7.17351 13.2455 5.46183 10.6748 5.16895Z" fill="black"/>
<path d="M28.9751 19.6125C28.9751 20.0338 28.6337 20.3752 28.2128 20.3752C27.7916 20.3752 27.4502 20.0338 27.4502 19.6125C27.4502 19.1913 27.7916 18.8499 28.2128 18.8499C28.6337 18.8499 28.9751 19.1913 28.9751 19.6125V19.6125Z" fill="black"/>
<path d="M1.03699 0C0.61609 0.000651533 0.000651505 0.616221 0 1.03714V28H36.6V1.03704C36.5993 0.616124 36.197 0.000651533 35.7761 0H1.03699ZM32.0248 4.36185H34.3124C34.7336 4.36185 35.0751 4.70295 35.0751 5.12419C35.0751 5.54543 34.7336 5.88686 34.3124 5.88686H32.0248C31.6039 5.88686 31.2625 5.54543 31.2625 5.12419C31.2625 4.70295 31.6039 4.36185 32.0248 4.36185ZM35.0751 8.17421C35.0751 8.59545 34.7336 8.93688 34.3124 8.93688H28.2126C27.7914 8.93688 27.45 8.59545 27.45 8.17421C27.45 7.75329 27.7914 7.41187 28.2126 7.41187H34.3124C34.7336 7.41187 35.0751 7.75329 35.0751 8.17421ZM24.4001 4.36185H28.9749C29.3962 4.36185 29.7376 4.70295 29.7376 5.12419C29.7376 5.54543 29.3962 5.88686 28.9749 5.88686H24.4001C23.9789 5.88686 23.6375 5.54543 23.6375 5.12419C23.6375 4.70295 23.9789 4.36185 24.4001 4.36185ZM20.5876 4.36185H21.3499C21.7711 4.36185 22.1125 4.70295 22.1125 5.12419C22.1125 5.54543 21.7711 5.88686 21.3499 5.88686H20.5876C20.1664 5.88686 19.8249 5.54543 19.8249 5.12419C19.8249 4.70295 20.1664 4.36185 20.5876 4.36185ZM20.5876 7.41187H25.1624C25.5836 7.41187 25.9251 7.75329 25.9251 8.17421C25.9251 8.59545 25.5836 8.93688 25.1624 8.93688H20.5876C20.1664 8.93688 19.8249 8.59545 19.8249 8.17421C19.8249 7.75329 20.1664 7.41187 20.5876 7.41187ZM20.5876 10.4619H28.2126C28.6335 10.4619 28.9749 10.8033 28.9749 11.2246C28.9749 11.6455 28.6335 11.9869 28.2126 11.9869H20.5876C20.1664 11.9869 19.8249 11.6455 19.8249 11.2246C19.8249 10.8033 20.1664 10.4619 20.5876 10.4619ZM21.3499 15.0372C22.595 15.0392 23.6098 16.0368 23.6332 17.2819L26.4183 18.2104C26.9626 17.4855 27.8934 17.1653 28.7684 17.4008L30.9631 14.1149C30.6641 13.7224 30.5015 13.2428 30.4999 12.7496C30.4999 11.4862 31.5241 10.4619 32.7875 10.4619C34.0508 10.4619 35.0751 11.4862 35.0751 12.7496C35.0751 14.013 34.0508 15.0372 32.7875 15.0372C32.5998 15.035 32.4128 15.0092 32.2317 14.961L30.037 18.2472C30.3357 18.6398 30.4983 19.119 30.4999 19.6123C30.5005 20.8666 29.4903 21.8872 28.2358 21.899C26.9815 21.9107 25.9524 20.9092 25.9293 19.6553L23.1443 18.7265C22.5285 19.5338 21.4486 19.8289 20.5078 19.4468L17.9987 22.3118C18.1938 22.6502 18.2977 23.034 18.3 23.425C18.3065 24.4378 17.6501 25.3357 16.6829 25.6371C15.716 25.9384 14.6657 25.5722 14.0956 24.735C13.5255 23.8977 13.5694 22.7864 14.204 21.997C14.8387 21.2077 15.9147 20.9255 16.8549 21.3028L19.364 18.4381C19.1688 18.0993 19.0649 17.7155 19.0626 17.3246C19.0639 16.0618 20.0872 15.0385 21.3499 15.0372ZM18.0325 9.92271C18.0364 9.93542 18.0456 9.94421 18.0488 9.95692C18.0521 9.96995 18.0479 9.98005 18.0505 9.9921C18.931 13.5481 17.397 17.2637 14.2643 19.1627C11.1317 21.0617 7.12825 20.7033 4.38296 18.2779C4.37025 18.2681 4.35494 18.2645 4.34289 18.2537C4.33083 18.243 4.32529 18.2267 4.31357 18.2146C1.64027 15.8155 0.793584 11.9791 2.20907 8.67755C3.62423 5.37602 6.98621 3.34376 10.5671 3.62557C14.148 3.90737 17.151 6.44037 18.0325 9.92271Z" fill="black"/>
</svg>
