<svg width="35" height="35" viewBox="0 0 35 35" fill="none" xmlns="http://www.w3.org/2000/svg">
<path d="M14.5911 2.33252C7.82813 2.33252 2.3457 7.81494 2.3457 14.5779C2.3457 21.3408 7.82813 26.8232 14.5911 26.8232C21.354 26.8232 26.8364 21.3408 26.8364 14.5779C26.8291 7.818 21.3509 2.33988 14.5911 2.33252ZM14.5911 3.49874C18.1929 3.50159 21.5682 5.25705 23.6386 8.20446L22.1809 9.66224C21.8261 9.44758 21.42 9.33271 21.0053 9.32987C19.7171 9.32987 18.6729 10.3741 18.6729 11.6623C18.6749 12.0774 18.7891 12.4842 19.0035 12.8396L15.1853 16.6578C14.4623 16.217 13.5536 16.217 12.8306 16.6578L10.1787 14.0058C10.393 13.6504 10.5072 13.2436 10.5093 12.8285C10.5109 11.5429 9.47003 10.4994 8.18441 10.4978C7.12118 10.4965 6.1922 11.2157 5.92718 12.2454H3.76383C4.86788 7.14706 9.37454 3.5064 14.5911 3.49874ZM22.1715 11.6623C22.1715 12.3064 21.6494 12.8285 21.0053 12.8285C20.3612 12.8285 19.8391 12.3064 19.8391 11.6623C19.8391 11.0182 20.3612 10.4961 21.0053 10.4961C21.6494 10.4961 22.1715 11.0182 22.1715 11.6623ZM15.1742 18.6597C15.1742 19.3038 14.6521 19.8259 14.008 19.8259C13.3638 19.8259 12.8417 19.3038 12.8417 18.6597C12.8417 18.0155 13.3638 17.4934 14.008 17.4934C14.6521 17.4934 15.1742 18.0155 15.1742 18.6597ZM9.34305 12.8285C9.34305 13.4727 8.82095 13.9948 8.17683 13.9948C7.53271 13.9948 7.0106 13.4727 7.0106 12.8285C7.0106 12.1844 7.53271 11.6623 8.17683 11.6623C8.82095 11.6623 9.34305 12.1844 9.34305 12.8285ZM19.9742 24.2653C18.3275 25.1796 16.4747 25.6586 14.5911 25.6569C8.4764 25.6611 3.51608 20.7076 3.51193 14.593C3.51164 14.1983 3.53248 13.8039 3.57432 13.4116H5.92718C6.19228 14.4382 7.11651 15.1569 8.17683 15.1609C8.59193 15.1589 8.99872 15.0447 9.35413 14.8303L12.0061 17.4823C11.7918 17.8377 11.6775 18.2445 11.6755 18.6596C11.6755 19.9478 12.7198 20.992 14.008 20.992C15.2961 20.992 16.3404 19.9478 16.3404 18.6596C16.3384 18.2445 16.2241 17.8377 16.0098 17.4823L19.828 13.6641C20.1834 13.8784 20.5902 13.9926 21.0053 13.9947C22.2935 13.9947 23.3378 12.9504 23.3378 11.6622C23.3357 11.2471 23.2215 10.8403 23.0071 10.4849L24.2783 9.21434C27.246 14.5591 25.3189 21.2977 19.9742 24.2653Z" fill="#000033"/>
<path d="M29.1689 5.83299C30.2292 5.82899 31.1534 5.11037 31.4185 4.08366H35V2.91743H31.4185C31.1534 1.89072 30.2292 1.17211 29.1689 1.1681C27.8807 1.1681 26.8364 2.21238 26.8364 3.50055C26.8384 3.91565 26.9527 4.32244 27.167 4.67785L26.1425 5.70238C21.2404 -0.684232 12.089 -1.88763 5.70238 3.01452C-0.684232 7.91667 -1.88763 17.0681 3.01452 23.4547C7.64181 29.4832 16.124 30.9455 22.5027 26.8145L24.2625 28.5744L25.0871 29.3989L29.7811 34.0929C30.975 35.2868 32.9105 35.2868 34.1043 34.0929C35.2982 32.8991 35.2982 30.9636 34.1043 29.7698L29.4103 25.0757L28.5857 24.2512L26.8259 22.4913C29.9499 17.6795 29.9499 11.4799 26.8259 6.66801L27.9921 5.50179C28.3473 5.71623 28.754 5.83066 29.1689 5.83299ZM29.1689 2.33432C29.813 2.33432 30.3351 2.85643 30.3351 3.50055C30.3351 4.14467 29.813 4.66677 29.1689 4.66677C28.5247 4.66677 28.0026 4.14467 28.0026 3.50055C28.0026 2.85643 28.5248 2.33432 29.1689 2.33432ZM33.2798 30.5943C34.0266 31.3243 34.0402 32.5216 33.3102 33.2684C32.5801 34.0152 31.3829 34.0289 30.636 33.2988C30.6258 33.2888 30.6157 33.2787 30.6056 33.2684L25.9116 28.5744L28.5857 25.9002L33.2798 30.5943ZM27.7612 25.0757L25.0871 27.7499L23.473 26.1358C23.5552 26.0728 23.6322 26.0034 23.7133 25.9387C23.7943 25.874 23.8882 25.7964 23.9751 25.7235C24.1028 25.6162 24.2287 25.5078 24.3523 25.3964C24.4159 25.3381 24.4766 25.2798 24.5389 25.2215C24.778 24.9976 25.0095 24.7661 25.2334 24.527C25.2917 24.4646 25.3501 24.404 25.4084 24.3404C25.5197 24.2168 25.6282 24.0908 25.7355 23.9631C25.8086 23.8768 25.8803 23.7896 25.9507 23.7013C26.0148 23.6208 26.0842 23.5439 26.1472 23.4616L27.7612 25.0757ZM25.4999 22.3671C25.3162 22.6237 25.1267 22.875 24.9267 23.117C24.8684 23.1876 24.806 23.2558 24.746 23.3252C24.5675 23.5328 24.3833 23.7342 24.1932 23.9293C24.1104 24.0148 24.0262 24.099 23.9407 24.1818C23.7463 24.3719 23.545 24.5561 23.3366 24.7346C23.2672 24.7929 23.199 24.8564 23.1284 24.9153C22.8864 25.1153 22.6351 25.3049 22.3785 25.4885C16.3421 29.801 7.95268 28.4035 3.6402 22.3671C-0.672278 16.3308 0.725223 7.94131 6.7616 3.62883C12.798 -0.683649 21.1874 0.71378 25.4999 6.75023C28.8368 11.4211 28.8368 17.6963 25.4999 22.3671Z" fill="#000033"/>
</svg>
