<svg width="30" height="27" viewBox="0 0 30 27" fill="none" xmlns="http://www.w3.org/2000/svg">
<path d="M29.7979 16.1132C29.7979 16.1132 27.9242 13.9274 27.924 13.9271C27.6539 13.612 27.1483 13.5276 26.7823 13.7472L24.308 15.2291C23.8958 15.4759 23.7694 15.9981 24.0255 16.3953C24.2819 16.7926 24.8239 16.9144 25.2361 16.6674L26.0226 16.1963C25.3696 18.5374 23.9644 20.6412 21.952 22.2455C19.1138 24.5083 15.3575 25.2255 11.9047 24.1639C9.75814 23.5041 7.94556 22.371 6.51729 20.7965C5.18949 19.3333 4.26272 17.5349 3.83675 15.5956C3.73604 15.1383 3.26956 14.8456 2.79485 14.9427C2.3199 15.0395 2.01639 15.4889 2.11687 15.9465C3.14757 20.6377 6.60678 24.3127 11.3702 25.7772C12.5984 26.1548 13.8587 26.3398 15.1114 26.3398C17.9652 26.3398 20.7785 25.3794 23.0729 23.5502C25.4318 21.6695 27.0609 19.184 27.7796 16.418L28.4427 17.1916C28.6166 17.3945 28.8677 17.4992 29.1209 17.4992C29.3179 17.4992 29.5162 17.4357 29.68 17.3054C30.0543 17.0074 30.1072 16.4738 29.7979 16.1132Z" fill="black"/>
<path d="M2.13757 12.5386C2.41659 12.7986 2.87986 12.8564 3.21702 12.6546L5.69109 11.1727C6.10355 10.9259 6.2299 10.4037 5.97354 10.0065C5.71741 9.60936 5.1754 9.48741 4.76317 9.7344L3.95198 10.22C4.51345 8.09921 5.68262 6.19145 7.39175 4.6297C8.91089 3.24172 10.7825 2.29876 12.805 1.9027C14.8279 1.50641 16.9131 1.67556 18.8344 2.39182C20.7782 3.11624 22.4188 4.2493 23.7105 5.75945C24.9176 7.17058 25.7682 8.87987 26.1701 10.7023C26.2711 11.1596 26.7378 11.4518 27.2125 11.3546C27.6874 11.2573 27.9905 10.8077 27.8895 10.3501C27.4292 8.26262 26.453 6.30282 25.0671 4.68241C23.5811 2.94512 21.6976 1.64292 19.4687 0.812204C17.2333 -0.0209377 14.8078 -0.217645 12.4546 0.24303C10.1096 0.702382 7.94039 1.79442 6.18229 3.40072C4.91973 4.5545 3.90621 5.88956 3.17032 7.36928C2.75489 8.2044 2.43376 9.07437 2.20807 9.96992L1.55665 9.20999C1.24742 8.84944 0.693505 8.79849 0.319269 9.09642C-0.0549663 9.39413 -0.10784 9.92802 0.201162 10.2886L2.07531 12.4746C2.07875 12.4788 2.08287 12.4824 2.08653 12.4865C2.10278 12.5046 2.11972 12.522 2.13757 12.5386Z" fill="black"/>
</svg>
