<svg width="28" height="28" viewBox="0 0 28 28" fill="none" xmlns="http://www.w3.org/2000/svg">
<path d="M19.1782 27.1782H3.6159V6.90414C3.6159 6.67713 3.43188 6.49316 3.20492 6.49316C2.97797 6.49316 2.79395 6.67713 2.79395 6.90414V27.3152C2.79395 27.6929 3.10123 28.0001 3.47891 28.0001H19.1782C19.4051 28.0001 19.5891 27.8161 19.5891 27.5891C19.5891 27.3621 19.4051 27.1782 19.1782 27.1782Z" fill="black"/>
<path d="M25.0896 3.71607L21.5963 0.124469C21.5189 0.0448984 21.4127 0 21.3017 0H3.47891C3.10123 0 2.794 0.307344 2.79395 0.685016V7.5C2.79395 7.72701 3.27305 7.5 3.5 7.5C3.72695 7.5 3.6159 7.43946 3.6159 7.21245V0.822008H21.1282L24.384 4.16954V27.178H18.1987C17.9717 27.178 19 27.273 19 27.5C19 27.727 17.9717 28 18.1987 28H24.521C24.8987 28 25.2059 27.6928 25.2059 27.3151V4.00258C25.2059 3.89555 25.1642 3.7928 25.0896 3.71607Z" fill="black"/>
<path d="M25.0894 3.71604L21.5961 0.124441C21.4795 0.00456634 21.3019 -0.0327305 21.1469 0.0302148C20.992 0.0931601 20.8906 0.243715 20.8906 0.411004V4.00255C20.8906 4.22956 21.0746 4.41353 21.3016 4.41353H24.7948C24.96 4.41353 25.1092 4.31465 25.1734 4.16246C25.2376 4.01032 25.2045 3.83439 25.0894 3.71604ZM21.7126 3.59157V1.42289L23.8218 3.59157H21.7126Z" fill="black"/>
<path d="M15.9024 2.18164H6.00039C5.62266 2.18164 5.31543 2.48893 5.31543 2.8666V5.13794C5.31543 5.51566 5.62272 5.8229 6.00039 5.8229H15.9024C16.2801 5.8229 16.5874 5.51561 16.5874 5.13799V2.86655C16.5874 2.48882 16.2801 2.18164 15.9024 2.18164ZM15.7654 5.00089H6.13738V3.00354H15.7654V5.00089Z" fill="black"/>
<path d="M9.41936 7.97437C9.23873 7.83716 8.98087 7.87216 8.8435 8.0529L7.02771 10.4421L6.48237 9.96489C6.31158 9.81537 6.05198 9.83271 5.90246 10.0036C5.753 10.1744 5.77033 10.434 5.94112 10.5835L6.81782 11.3506C6.89307 11.4163 6.98937 11.4522 7.08841 11.4522C7.10219 11.4522 7.11603 11.4515 7.12992 11.4502C7.24323 11.4387 7.34676 11.3807 7.41566 11.29L9.49789 8.55023C9.63521 8.36955 9.60005 8.11169 9.41936 7.97437Z" fill="black"/>
<path d="M21.7882 7.89014H11.4373C11.2104 7.89014 11.0264 8.07411 11.0264 8.30111C11.0264 8.52812 11.2104 8.71209 11.4373 8.71209H21.7882C22.0152 8.71209 22.1992 8.52812 22.1992 8.30111C22.1992 8.07411 22.0152 7.89014 21.7882 7.89014Z" fill="black"/>
<path d="M18.1576 9.25977H11.4373C11.2104 9.25977 11.0264 9.44373 11.0264 9.67074C11.0264 9.89775 11.2104 10.0817 11.4373 10.0817H18.1576C18.3846 10.0817 18.5686 9.89775 18.5686 9.67074C18.5686 9.44373 18.3846 9.25977 18.1576 9.25977Z" fill="black"/>
<path d="M19.6919 10.6299H11.4373C11.2104 10.6299 11.0264 10.8139 11.0264 11.0409C11.0264 11.2679 11.2104 11.4518 11.4373 11.4518H19.6919C19.9188 11.4518 20.1029 11.2679 20.1029 11.0409C20.1029 10.8139 19.9188 10.6299 19.6919 10.6299Z" fill="black"/>
<path d="M9.41936 13.5633C9.23873 13.426 8.98087 13.4611 8.8435 13.6418L7.02771 16.031L6.48237 15.5538C6.31158 15.4043 6.05198 15.4217 5.90246 15.5924C5.753 15.7633 5.77033 16.0229 5.94112 16.1724L6.81782 16.9395C6.89307 17.0052 6.98937 17.0411 7.08841 17.0411C7.10219 17.0411 7.11603 17.0404 7.12992 17.0391C7.24323 17.0276 7.34676 16.9696 7.41566 16.8789L9.49789 14.1391C9.63521 13.9584 9.60005 13.7007 9.41936 13.5633Z" fill="black"/>
<path d="M21.7882 13.4795H11.4373C11.2104 13.4795 11.0264 13.6635 11.0264 13.8905C11.0264 14.1175 11.2104 14.3014 11.4373 14.3014H21.7882C22.0152 14.3014 22.1992 14.1175 22.1992 13.8905C22.1992 13.6635 22.0152 13.4795 21.7882 13.4795Z" fill="black"/>
<path d="M18.1576 14.8496H11.4373C11.2104 14.8496 11.0264 15.0336 11.0264 15.2606C11.0264 15.4876 11.2104 15.6716 11.4373 15.6716H18.1576C18.3846 15.6716 18.5686 15.4876 18.5686 15.2606C18.5686 15.0336 18.3846 14.8496 18.1576 14.8496Z" fill="black"/>
<path d="M19.6919 16.2188H11.4373C11.2104 16.2188 11.0264 16.4027 11.0264 16.6297C11.0264 16.8567 11.2104 17.0407 11.4373 17.0407H19.6919C19.9188 17.0407 20.1029 16.8567 20.1029 16.6297C20.1029 16.4027 19.9188 16.2188 19.6919 16.2188Z" fill="black"/>
<path d="M21.7882 19.0684H11.4373C11.2104 19.0684 11.0264 19.2523 11.0264 19.4793C11.0264 19.7063 11.2104 19.8903 11.4373 19.8903H21.7882C22.0152 19.8903 22.1991 19.7063 22.1992 19.4793C22.1992 19.2523 22.0152 19.0684 21.7882 19.0684Z" fill="black"/>
<path d="M18.1576 20.4385H11.4373C11.2104 20.4385 11.0264 20.6224 11.0264 20.8495C11.0264 21.0765 11.2104 21.2604 11.4373 21.2604H18.1576C18.3846 21.2604 18.5686 21.0765 18.5686 20.8495C18.5686 20.6224 18.3846 20.4385 18.1576 20.4385Z" fill="black"/>
<path d="M19.6919 21.8086H11.4373C11.2104 21.8086 11.0264 21.9926 11.0264 22.2196C11.0264 22.4466 11.2104 22.6305 11.4373 22.6305H19.6919C19.9188 22.6305 20.1029 22.4466 20.1029 22.2196C20.1029 21.9926 19.9188 21.8086 19.6919 21.8086Z" fill="black"/>
<path d="M8.67756 19.0684H6.48574C6.10802 19.0684 5.80078 19.3756 5.80078 19.7533V21.9451C5.80078 22.3228 6.10807 22.6301 6.48574 22.6301H8.67756C9.05529 22.6301 9.36252 22.3228 9.36252 21.9451V19.7533C9.36252 19.3756 9.05523 19.0684 8.67756 19.0684ZM8.54062 21.8082H6.62279V19.8903H8.54062V21.8082Z" fill="black"/>
</svg>
