<svg width="512" height="512" viewBox="0 0 512 512" fill="none" xmlns="http://www.w3.org/2000/svg">
<path d="M256 0C115.3 0 0 115.3 0 256C0 396.7 115.3 512 256 512C396.7 512 512 396.7 512 256C512 115.3 396.7 0 256 0Z" fill="#FF3636"/>
<path d="M512 256C512 396.7 396.7 512 256 512V0C396.7 0 512 115.3 512 256Z" fill="#FF3636"/>
<path d="M298.3 256L383.201 340.901L340.902 383.2L256.001 298.299L171.1 383.2L128.801 340.901L213.702 256L128.801 171.099L171.1 128.8L256.001 213.701L340.902 128.8L383.201 171.099L298.3 256Z" fill="white"/>
<path d="M298.299 256L383.2 340.901L340.901 383.2L256 298.299V213.701L340.901 128.8L383.2 171.099L298.299 256Z" fill="white"/>
</svg>
