<svg class="fake-card-button" width="56" height="56" viewBox="0 0 56 56" fill="none"
        xmlns="http://www.w3.org/2000/svg">
        <path
          d="M28 0C12.536 0 0 12.536 0 28C0.0173871 43.4568 12.5432 55.9826 28 56C43.464 56 56 43.464 56 28C56 12.536 43.464 0 28 0ZM28 54.1935C13.5337 54.1935 1.80645 42.4663 1.80645 28C1.82294 13.5405 13.5405 1.82294 28 1.80645C42.4663 1.80645 54.1935 13.5337 54.1935 28C54.1935 42.4663 42.4663 54.1935 28 54.1935Z"
          fill="#979797" />
        <path
          d="M45.1614 27.0968H28.9033V10.8388C28.9033 10.34 28.4989 9.93555 28.0001 9.93555C27.5013 9.93555 27.0968 10.34 27.0968 10.8388V27.0968H10.8388C10.34 27.0968 9.93555 27.5013 9.93555 28.0001C9.93555 28.4989 10.34 28.9033 10.8388 28.9033H27.0968V45.1614C27.0968 45.6602 27.5013 46.0646 28.0001 46.0646C28.4989 46.0646 28.9033 45.6602 28.9033 45.1614V28.9033H45.1614C45.6602 28.9033 46.0646 28.4989 46.0646 28.0001C46.0646 27.5013 45.6602 27.0968 45.1614 27.0968Z"
          fill="#979797" />
      </svg>