<svg width="66" height="66" viewBox="0 0 66 66" fill="none" xmlns="http://www.w3.org/2000/svg">
<path fill-rule="evenodd" clip-rule="evenodd" d="M64.2487 55.7786L50.774 42.3039C57.6835 31.4687 56.1704 17.2337 47.0014 8.06419C41.8014 2.86414 34.8873 0 27.5331 0C20.1784 0 13.2643 2.86414 8.06419 8.06419C2.86363 13.2643 0 20.1784 0 27.5331C0 34.8873 2.86363 41.8014 8.06419 47.0014C13.2643 52.2015 20.1779 55.0651 27.5321 55.0651C32.8102 55.0651 37.8944 53.5847 42.3039 50.774L55.7786 64.2487C56.9061 65.3766 58.4101 65.9975 60.0139 65.9975C61.6172 65.9975 63.1213 65.3766 64.2492 64.2487C66.5836 61.9133 66.5836 58.1141 64.2487 55.7786V55.7786ZM62.4304 62.4304C61.7884 63.0719 60.9304 63.4254 60.0139 63.4254C59.097 63.4254 58.2389 63.0719 57.5969 62.4304L43.378 48.2114C43.1292 47.9622 42.7999 47.8348 42.4686 47.8348C42.2138 47.8348 41.958 47.9098 41.7359 48.0639C37.558 50.9618 32.646 52.4935 27.5321 52.4935C20.8647 52.4935 14.5966 49.8973 9.88248 45.1832C0.150055 35.4507 0.150055 19.6149 9.88248 9.88248C14.5971 5.16783 20.8652 2.57158 27.5331 2.57158C34.2004 2.57158 40.4685 5.16783 45.1832 9.88248C53.7272 18.427 54.9392 31.8232 48.0639 41.7359C47.7094 42.247 47.7713 42.9379 48.2114 43.378L62.4304 57.5969C63.7628 58.9293 63.7628 61.0975 62.4304 62.4304V62.4304Z" fill="#C4C4C4"/>
<path fill-rule="evenodd" clip-rule="evenodd" d="M35.8022 19.4985C35.2417 18.938 34.3331 18.938 33.7719 19.4985L27.135 26.1354L20.4976 19.4985C19.937 18.938 19.0279 18.938 18.4673 19.4985C17.9067 20.0591 17.9067 20.9683 18.4673 21.5288L25.1042 28.1662L18.4673 34.8031C17.9067 35.3636 17.9067 36.2728 18.4673 36.8333C18.7473 37.1139 19.115 37.2539 19.4822 37.2539C19.8499 37.2539 20.217 37.1139 20.4976 36.8333L27.1345 30.1965L33.7714 36.8333C34.0519 37.1139 34.4196 37.2539 34.7868 37.2539C35.1545 37.2539 35.5217 37.1139 35.8022 36.8333C36.3628 36.2728 36.3628 35.3636 35.8022 34.8031L29.1648 28.1662L35.8022 21.5288C36.3628 20.9683 36.3628 20.0591 35.8022 19.4985V19.4985Z" fill="#C4C4C4"/>
<circle cx="27.6504" cy="27.9082" r="20.7285" stroke="#C4C4C4" stroke-width="2.5"/>
</svg>
