<svg width="30" height="40" viewBox="0 0 30 40" fill="none" xmlns="http://www.w3.org/2000/svg">
<path d="M21.2686 0H1.0207C0.456977 0 0 0.467857 0 1.37571V39.2857C0 39.5321 0.456977 40 1.0207 40H28.9793C29.543 40 30 39.5321 30 39.2857V9.27C30 8.77286 29.9351 8.61286 29.8207 8.495L21.7026 0.183571C21.5874 0.0664286 21.4312 0 21.2686 0Z" fill="white"/>
<path d="M21.5 0L21.5818 8.7H30L21.5 0Z" fill="#EBEAE3"/>
<path d="M28.946 40H0.842119C0.278868 40 0.000383485 39.8263 0.000383485 39.3935L0 31H30V39.3616C30 39.7944 29.5092 40 28.946 40Z" fill="#2F9171"/>
<path d="M7.245 35.55C7.245 35.0693 7.35233 34.64 7.567 34.262C7.78633 33.8793 8.08267 33.583 8.456 33.373C8.834 33.1583 9.25633 33.051 9.723 33.051C10.269 33.051 10.7473 33.191 11.158 33.471C11.5687 33.751 11.8557 34.1383 12.019 34.633H10.892C10.78 34.3997 10.6213 34.2247 10.416 34.108C10.2153 33.9913 9.982 33.933 9.716 33.933C9.43133 33.933 9.177 34.0007 8.953 34.136C8.73367 34.2667 8.561 34.4533 8.435 34.696C8.31367 34.9387 8.253 35.2233 8.253 35.55C8.253 35.872 8.31367 36.1567 8.435 36.404C8.561 36.6467 8.73367 36.8357 8.953 36.971C9.177 37.1017 9.43133 37.167 9.716 37.167C9.982 37.167 10.2153 37.1087 10.416 36.992C10.6213 36.8707 10.78 36.6933 10.892 36.46H12.019C11.8557 36.9593 11.5687 37.349 11.158 37.629C10.752 37.9043 10.2737 38.042 9.723 38.042C9.25633 38.042 8.834 37.937 8.456 37.727C8.08267 37.5123 7.78633 37.216 7.567 36.838C7.35233 36.46 7.245 36.0307 7.245 35.55ZM14.613 38.049C14.2724 38.049 13.9644 37.9907 13.689 37.874C13.4184 37.7573 13.2037 37.5893 13.045 37.37C12.8864 37.1507 12.8047 36.8917 12.8 36.593H13.85C13.864 36.7937 13.934 36.9523 14.06 37.069C14.1907 37.1857 14.368 37.244 14.592 37.244C14.8207 37.244 15.0004 37.1903 15.131 37.083C15.2617 36.971 15.327 36.8263 15.327 36.649C15.327 36.5043 15.2827 36.3853 15.194 36.292C15.1054 36.1987 14.9934 36.1263 14.858 36.075C14.7274 36.019 14.5454 35.9583 14.312 35.893C13.9947 35.7997 13.7357 35.7087 13.535 35.62C13.339 35.5267 13.1687 35.389 13.024 35.207C12.884 35.0203 12.814 34.773 12.814 34.465C12.814 34.1757 12.8864 33.9237 13.031 33.709C13.1757 33.4943 13.3787 33.331 13.64 33.219C13.9014 33.1023 14.2 33.044 14.536 33.044C15.04 33.044 15.4484 33.1677 15.761 33.415C16.0784 33.6577 16.2534 33.9983 16.286 34.437H15.208C15.1987 34.269 15.1264 34.1313 14.991 34.024C14.8604 33.912 14.6854 33.856 14.466 33.856C14.2747 33.856 14.1207 33.905 14.004 34.003C13.892 34.101 13.836 34.2433 13.836 34.43C13.836 34.5607 13.878 34.6703 13.962 34.759C14.0507 34.843 14.158 34.913 14.284 34.969C14.4147 35.0203 14.5967 35.081 14.83 35.151C15.1474 35.2443 15.4064 35.3377 15.607 35.431C15.8077 35.5243 15.9804 35.6643 16.125 35.851C16.2697 36.0377 16.342 36.2827 16.342 36.586C16.342 36.8473 16.2744 37.09 16.139 37.314C16.0037 37.538 15.8054 37.7177 15.544 37.853C15.2827 37.9837 14.9724 38.049 14.613 38.049ZM21.6507 33.114L19.8587 38H18.6687L16.8767 33.114H17.9267L19.2707 36.999L20.6077 33.114H21.6507Z" fill="white"/>
<path d="M10.5173 16.1379H5.6897C5.30914 16.1379 5 15.829 5 15.4485V12.6897C5 12.3091 5.30914 12 5.6897 12H10.5173C10.8981 12 11.207 12.3091 11.207 12.6897V15.4485C11.207 15.829 10.8981 16.1379 10.5173 16.1379ZM6.37939 14.7588H9.82758V13.3794H6.37939V14.7588Z" fill="#A09893"/>
<path d="M15.3449 16.1379H10.5173C10.1368 16.1379 9.82764 15.829 9.82764 15.4485V12.6897C9.82764 12.3091 10.1368 12 10.5173 12H15.3449C15.7258 12 16.0346 12.3091 16.0346 12.6897V15.4485C16.0346 15.829 15.7258 16.1379 15.3449 16.1379ZM11.207 14.7588H14.6552V13.3794H11.207V14.7588Z" fill="#A09893"/>
<path d="M20.1725 16.1379H15.345C14.9644 16.1379 14.6553 15.829 14.6553 15.4485V12.6897C14.6553 12.3091 14.9644 12 15.345 12H20.1725C20.5534 12 20.8622 12.3091 20.8622 12.6897V15.4485C20.8622 15.829 20.5534 16.1379 20.1725 16.1379ZM16.0347 14.7588H19.4828V13.3794H16.0347V14.7588Z" fill="#A09893"/>
<path d="M25.0002 16.1379H20.1726C19.7921 16.1379 19.4829 15.829 19.4829 15.4485V12.6897C19.4829 12.3091 19.7921 12 20.1726 12H25.0002C25.381 12 25.6899 12.3091 25.6899 12.6897V15.4485C25.6899 15.829 25.381 16.1379 25.0002 16.1379ZM20.8623 14.7588H24.3105V13.3794H20.8623V14.7588Z" fill="#A09893"/>
<path d="M10.5173 18.8967H5.6897C5.30914 18.8967 5 18.5875 5 18.207V15.4485C5 15.0676 5.30914 14.7588 5.6897 14.7588H10.5173C10.8981 14.7588 11.207 15.0676 11.207 15.4485V18.207C11.207 18.5875 10.8981 18.8967 10.5173 18.8967ZM6.37939 17.5173H9.82758V16.1379H6.37939V17.5173Z" fill="#A09893"/>
<path d="M15.3449 18.8967H10.5173C10.1368 18.8967 9.82764 18.5875 9.82764 18.207V15.4485C9.82764 15.0676 10.1368 14.7588 10.5173 14.7588H15.3449C15.7258 14.7588 16.0346 15.0676 16.0346 15.4485V18.207C16.0346 18.5875 15.7258 18.8967 15.3449 18.8967ZM11.207 17.5173H14.6552V16.1379H11.207V17.5173Z" fill="#A09893"/>
<path d="M20.1725 18.8967H15.345C14.9644 18.8967 14.6553 18.5875 14.6553 18.207V15.4485C14.6553 15.0676 14.9644 14.7588 15.345 14.7588H20.1725C20.5534 14.7588 20.8622 15.0676 20.8622 15.4485V18.207C20.8622 18.5875 20.5534 18.8967 20.1725 18.8967ZM16.0347 17.5173H19.4828V16.1379H16.0347V17.5173Z" fill="#A09893"/>
<path d="M25.0002 18.8967H20.1726C19.7921 18.8967 19.4829 18.5875 19.4829 18.207V15.4485C19.4829 15.0676 19.7921 14.7588 20.1726 14.7588H25.0002C25.381 14.7588 25.6899 15.0676 25.6899 15.4485V18.207C25.6899 18.5875 25.381 18.8967 25.0002 18.8967ZM20.8623 17.5173H24.3105V16.1379H20.8623V17.5173Z" fill="#A09893"/>
<path d="M10.5173 21.655H5.6897C5.30914 21.655 5 21.3461 5 20.9653V18.2068C5 17.8262 5.30914 17.5171 5.6897 17.5171H10.5173C10.8981 17.5171 11.207 17.8262 11.207 18.2068V20.9653C11.207 21.3461 10.8981 21.655 10.5173 21.655ZM6.37939 20.2759H9.82758V18.8965H6.37939V20.2759Z" fill="#A09893"/>
<path d="M15.3449 21.655H10.5173C10.1368 21.655 9.82764 21.3461 9.82764 20.9653V18.2068C9.82764 17.8262 10.1368 17.5171 10.5173 17.5171H15.3449C15.7258 17.5171 16.0346 17.8262 16.0346 18.2068V20.9653C16.0346 21.3461 15.7258 21.655 15.3449 21.655ZM11.207 20.2759H14.6552V18.8965H11.207V20.2759Z" fill="#A09893"/>
<path d="M20.1725 21.655H15.345C14.9644 21.655 14.6553 21.3461 14.6553 20.9653V18.2068C14.6553 17.8262 14.9644 17.5171 15.345 17.5171H20.1725C20.5534 17.5171 20.8622 17.8262 20.8622 18.2068V20.9653C20.8622 21.3461 20.5534 21.655 20.1725 21.655ZM16.0347 20.2759H19.4828V18.8965H16.0347V20.2759Z" fill="#A09893"/>
<path d="M25.0002 21.655H20.1726C19.7921 21.655 19.4829 21.3461 19.4829 20.9653V18.2068C19.4829 17.8262 19.7921 17.5171 20.1726 17.5171H25.0002C25.381 17.5171 25.6899 17.8262 25.6899 18.2068V20.9653C25.6899 21.3461 25.381 21.655 25.0002 21.655ZM20.8623 20.2759H24.3105V18.8965H20.8623V20.2759Z" fill="#A09893"/>
<path d="M10.5173 24.4138H5.6897C5.30914 24.4138 5 24.1046 5 23.7241V20.9653C5 20.5847 5.30914 20.2759 5.6897 20.2759H10.5173C10.8981 20.2759 11.207 20.5847 11.207 20.9653V23.7241C11.207 24.1046 10.8981 24.4138 10.5173 24.4138ZM6.37939 23.0344H9.82758V21.655H6.37939V23.0344Z" fill="#A09893"/>
<path d="M15.3449 24.4138H10.5173C10.1368 24.4138 9.82764 24.1046 9.82764 23.7241V20.9653C9.82764 20.5847 10.1368 20.2759 10.5173 20.2759H15.3449C15.7258 20.2759 16.0346 20.5847 16.0346 20.9653V23.7241C16.0346 24.1046 15.7258 24.4138 15.3449 24.4138ZM11.207 23.0344H14.6552V21.655H11.207V23.0344Z" fill="#A09893"/>
<path d="M20.1725 24.4138H15.345C14.9644 24.4138 14.6553 24.1046 14.6553 23.7241V20.9653C14.6553 20.5847 14.9644 20.2759 15.345 20.2759H20.1725C20.5534 20.2759 20.8622 20.5847 20.8622 20.9653V23.7241C20.8622 24.1046 20.5534 24.4138 20.1725 24.4138ZM16.0347 23.0344H19.4828V21.655H16.0347V23.0344Z" fill="#A09893"/>
<path d="M25.0002 24.4138H20.1726C19.7921 24.4138 19.4829 24.1046 19.4829 23.7241V20.9653C19.4829 20.5847 19.7921 20.2759 20.1726 20.2759H25.0002C25.381 20.2759 25.6899 20.5847 25.6899 20.9653V23.7241C25.6899 24.1046 25.381 24.4138 25.0002 24.4138ZM20.8623 23.0344H24.3105V21.655H20.8623V23.0344Z" fill="#A09893"/>
<path d="M10.5173 27.1725H5.6897C5.30914 27.1725 5 26.8637 5 26.4828V23.7244C5 23.3435 5.30914 23.0347 5.6897 23.0347H10.5173C10.8981 23.0347 11.207 23.3435 11.207 23.7244V26.4828C11.207 26.8637 10.8981 27.1725 10.5173 27.1725V27.1725ZM6.37939 25.7932H9.82758V24.4141H6.37939V25.7932Z" fill="#A09893"/>
<path d="M15.3449 27.1725H10.5173C10.1368 27.1725 9.82764 26.8637 9.82764 26.4828V23.7244C9.82764 23.3435 10.1368 23.0347 10.5173 23.0347H15.3449C15.7258 23.0347 16.0346 23.3435 16.0346 23.7244V26.4828C16.0346 26.8637 15.7258 27.1725 15.3449 27.1725V27.1725ZM11.207 25.7932H14.6552V24.4141H11.207V25.7932Z" fill="#A09893"/>
<path d="M20.1725 27.1725H15.345C14.9644 27.1725 14.6553 26.8637 14.6553 26.4828V23.7244C14.6553 23.3435 14.9644 23.0347 15.345 23.0347H20.1725C20.5534 23.0347 20.8622 23.3435 20.8622 23.7244V26.4828C20.8622 26.8637 20.5534 27.1725 20.1725 27.1725V27.1725ZM16.0347 25.7932H19.4828V24.4141H16.0347V25.7932Z" fill="#A09893"/>
<path d="M25.0002 27.1725H20.1726C19.7921 27.1725 19.4829 26.8637 19.4829 26.4828V23.7244C19.4829 23.3435 19.7921 23.0347 20.1726 23.0347H25.0002C25.381 23.0347 25.6899 23.3435 25.6899 23.7244V26.4828C25.6899 26.8637 25.381 27.1725 25.0002 27.1725V27.1725ZM20.8623 25.7932H24.3105V24.4141H20.8623V25.7932Z" fill="#A09893"/>
</svg>
