<svg width="21" height="25" viewBox="0 0 21 25" fill="none" xmlns="http://www.w3.org/2000/svg">
<path d="M20.6738 6.10392L14.4581 0.113232C14.383 0.0407714 14.2753 0 14.1692 0L2.03993 0.000772917C1.37993 0.000772917 0.801758 0.519323 0.801758 1.15675V23.5232C0.801758 23.8463 0.970228 24.1501 1.2071 24.3791C1.44398 24.6075 1.79681 24.7333 2.13138 24.7333H19.5763C19.8945 24.7333 20.2172 24.6137 20.4424 24.3963C20.6671 24.179 20.8148 23.8902 20.8148 23.5834V6.37714C20.8148 6.27469 20.7488 6.17638 20.6738 6.10392ZM14.0437 0.817553L19.6004 6.18333H14.0292C14.0636 2.9573 14.0652 1.49957 14.0437 0.817553ZM20.0143 23.5834C20.0143 23.6827 19.9487 23.7798 19.8762 23.85C19.8025 23.9212 19.6807 23.9604 19.5763 23.9604H2.13138C2.01042 23.9604 1.85853 23.915 1.77311 23.8327C1.68749 23.7498 1.60228 23.64 1.60228 23.5232V1.15675C1.60228 0.945586 1.81826 0.77369 2.03696 0.77369L13.227 0.772994C13.2466 1.74764 13.2356 4.67317 13.2148 6.56566C13.2136 6.66888 13.26 6.76832 13.3353 6.84155C13.4105 6.91494 13.5177 6.95625 13.6246 6.95625H20.0143V23.5834Z" fill="black"/>
<path d="M4.9792 14.2979C4.9792 13.9545 5.05587 13.6479 5.2092 13.3779C5.36587 13.1045 5.57753 12.8929 5.8442 12.7429C6.1142 12.5895 6.41587 12.5129 6.7492 12.5129C7.1392 12.5129 7.48087 12.6129 7.7742 12.8129C8.06753 13.0129 8.27253 13.2895 8.3892 13.6429H7.5842C7.5042 13.4762 7.39087 13.3512 7.2442 13.2679C7.10087 13.1845 6.9342 13.1429 6.7442 13.1429C6.54087 13.1429 6.3592 13.1912 6.1992 13.2879C6.04253 13.3812 5.9192 13.5145 5.8292 13.6879C5.74253 13.8612 5.6992 14.0645 5.6992 14.2979C5.6992 14.5279 5.74253 14.7312 5.8292 14.9079C5.9192 15.0812 6.04253 15.2162 6.1992 15.3129C6.3592 15.4062 6.54087 15.4529 6.7442 15.4529C6.9342 15.4529 7.10087 15.4112 7.2442 15.3279C7.39087 15.2412 7.5042 15.1145 7.5842 14.9479H8.3892C8.27253 15.3045 8.06753 15.5829 7.7742 15.7829C7.4842 15.9795 7.14253 16.0779 6.7492 16.0779C6.41587 16.0779 6.1142 16.0029 5.8442 15.8529C5.57753 15.6995 5.36587 15.4879 5.2092 15.2179C5.05587 14.9479 4.9792 14.6412 4.9792 14.2979ZM10.2421 16.0829C9.99876 16.0829 9.77876 16.0412 9.58209 15.9579C9.38876 15.8745 9.23542 15.7545 9.12209 15.5979C9.00876 15.4412 8.95042 15.2562 8.94709 15.0429H9.69709C9.70709 15.1862 9.75709 15.2995 9.84709 15.3829C9.94042 15.4662 10.0671 15.5079 10.2271 15.5079C10.3904 15.5079 10.5188 15.4695 10.6121 15.3929C10.7054 15.3129 10.7521 15.2095 10.7521 15.0829C10.7521 14.9795 10.7204 14.8945 10.6571 14.8279C10.5938 14.7612 10.5138 14.7095 10.4171 14.6729C10.3238 14.6329 10.1938 14.5895 10.0271 14.5429C9.80042 14.4762 9.61542 14.4112 9.47209 14.3479C9.33209 14.2812 9.21042 14.1829 9.10709 14.0529C9.00709 13.9195 8.95709 13.7429 8.95709 13.5229C8.95709 13.3162 9.00876 13.1362 9.11209 12.9829C9.21542 12.8295 9.36042 12.7129 9.54709 12.6329C9.73376 12.5495 9.94709 12.5079 10.1871 12.5079C10.5471 12.5079 10.8388 12.5962 11.0621 12.7729C11.2888 12.9462 11.4138 13.1895 11.4371 13.5029H10.6671C10.6604 13.3829 10.6088 13.2845 10.5121 13.2079C10.4188 13.1279 10.2938 13.0879 10.1371 13.0879C10.0004 13.0879 9.89042 13.1229 9.80709 13.1929C9.72709 13.2629 9.68709 13.3645 9.68709 13.4979C9.68709 13.5912 9.71709 13.6695 9.77709 13.7329C9.84042 13.7929 9.91709 13.8429 10.0071 13.8829C10.1004 13.9195 10.2304 13.9629 10.3971 14.0129C10.6238 14.0795 10.8088 14.1462 10.9521 14.2129C11.0954 14.2795 11.2188 14.3795 11.3221 14.5129C11.4254 14.6462 11.4771 14.8212 11.4771 15.0379C11.4771 15.2245 11.4288 15.3979 11.3321 15.5579C11.2354 15.7179 11.0938 15.8462 10.9071 15.9429C10.7204 16.0362 10.4988 16.0829 10.2421 16.0829ZM15.269 12.5579L13.989 16.0479H13.139L11.859 12.5579H12.609L13.569 15.3329L14.524 12.5579H15.269Z" fill="black"/>
</svg>
