<?xml version="1.0" ?><!DOCTYPE svg  PUBLIC '-//W3C//DTD SVG 1.1//EN'  'http://www.w3.org/Graphics/SVG/1.1/DTD/svg11.dtd'><svg height="100%" style="fill-rule:evenodd;clip-rule:evenodd;stroke-linejoin:round;stroke-miterlimit:1.41421;" version="1.1" viewBox="0 0 48 48" width="100%" xml:space="preserve" xmlns="http://www.w3.org/2000/svg" xmlns:serif="http://www.serif.com/" xmlns:xlink="http://www.w3.org/1999/xlink"><g id="configuration_dashboard"><g id="window"><path d="M3.745,35.693L3.745,12.764C3.745,11.093 5.101,9.738 6.771,9.738L41.42,9.738C43.088,9.738 44.448,11.091 44.448,12.764L44.448,35.693C44.448,37.363 43.091,38.719 41.42,38.719L6.771,38.719C5.101,38.719 3.745,37.363 3.745,35.693ZM42.534,35.693L42.534,12.764C42.534,12.153 42.036,11.653 41.42,11.653L6.771,11.653C6.158,11.653 5.661,12.151 5.661,12.764L5.661,35.693C5.661,36.305 6.158,36.803 6.771,36.803L41.42,36.803C42.034,36.803 42.534,36.305 42.534,35.693Z" id="window1"/><path d="M7.107,13.576C7.107,13.07 7.52,12.657 8.026,12.657C8.533,12.657 8.944,13.07 8.944,13.576C8.944,14.081 8.533,14.493 8.026,14.493C7.52,14.493 7.107,14.081 7.107,13.576ZM9.707,13.576C9.707,13.07 10.119,12.657 10.625,12.657C11.131,12.657 11.544,13.07 11.544,13.576C11.544,14.081 11.131,14.493 10.625,14.493C10.119,14.493 9.707,14.081 9.707,13.576ZM12.306,13.576C12.306,13.07 12.718,12.657 13.223,12.657C13.729,12.657 14.142,13.07 14.142,13.576C14.142,14.081 13.729,14.493 13.223,14.493C12.718,14.493 12.306,14.081 12.306,13.576Z" id="window-actions"/></g><g id="gauge-bottom"><path d="M25.933,32.62C25.933,28.904 28.946,25.889 32.664,25.889C36.382,25.889 39.397,28.904 39.397,32.62C39.397,32.913 39.156,33.151 38.865,33.151L26.465,33.151C26.172,33.151 25.933,32.913 25.933,32.62ZM32.664,26.953C29.729,26.953 27.316,29.187 27.025,32.066L38.303,32.066C38.011,29.187 35.596,26.953 32.664,26.953Z" id="gauge"/><path d="M31.711,32.698L29.776,29.075L33.157,31.443L31.711,32.698Z" id="pointer"/><path d="M32.661,30.889C33.492,30.889 34.169,31.566 34.169,32.397C34.169,33.228 33.492,33.905 32.661,33.905C31.83,33.905 31.153,33.228 31.153,32.397C31.153,31.566 31.83,30.889 32.661,30.889Z" id="center"/></g><g id="gauge-top"><path d="M25.931,22.943C25.931,19.228 28.944,16.213 32.664,16.213C36.38,16.213 39.395,19.228 39.395,22.943C39.395,23.237 39.154,23.476 38.862,23.476L26.463,23.476C26.17,23.476 25.931,23.237 25.931,22.943ZM32.664,17.277C29.727,17.277 27.314,19.511 27.023,22.391L38.3,22.391C38.009,19.511 35.594,17.277 32.664,17.277Z" id="gauge1"/><path d="M33.617,23.023L35.551,19.398L32.17,21.767L33.617,23.023Z" id="pointer1"/><path d="M32.663,21.213C31.832,21.213 31.155,21.89 31.155,22.721C31.155,23.552 31.832,24.229 32.663,24.229C33.494,24.229 34.171,23.552 34.171,22.721C34.171,21.89 33.494,21.213 32.663,21.213Z" id="center1"/></g><g id="vertical-trackbar"><path d="M20.075,32.726L20.075,18.009C20.075,17.718 20.313,17.477 20.607,17.477C20.899,17.477 21.139,17.718 21.139,18.009L21.139,32.726C21.139,33.02 20.899,33.258 20.607,33.258C20.313,33.258 20.075,33.02 20.075,32.726Z" id="line"/><path d="M18.321,28.73C18.321,27.544 19.288,26.577 20.474,26.577C21.66,26.577 22.627,27.544 22.627,28.73C22.627,29.916 21.66,30.883 20.474,30.883C19.288,30.883 18.321,29.916 18.321,28.73Z" id="position"/></g><path d="M15.634,33.641L12.999,33.641L12.999,31.002L15.634,31.002L15.634,33.641ZM15.634,29.132L12.999,29.132L12.999,26.5L15.634,26.5L15.634,29.132ZM15.634,24.623L12.999,24.623L12.999,21.993L15.634,21.993L15.634,24.623ZM15.634,20.116L12.999,20.116L12.999,17.477L15.634,17.477L15.634,20.116ZM11.432,33.641L8.794,33.641L8.794,31.002L11.432,31.002L11.432,33.641ZM11.432,29.132L8.794,29.132L8.794,26.5L11.432,26.5L11.432,29.132ZM11.432,24.623L8.794,24.623L8.794,21.993L11.432,21.993L11.432,24.623ZM11.432,20.116L8.794,20.116L8.794,17.477L11.432,17.477L11.432,20.116Z" id="grid"/></g></svg>