<svg width="35" height="31" viewBox="0 0 35 31" fill="none" xmlns="http://www.w3.org/2000/svg">
<path d="M8.47892 2.24986C8.16278 2.00363 7.6961 2.00696 7.38421 2.25761L5.10347 4.11857V3.8747C5.10347 3.58935 4.84982 3.35807 4.53686 3.35807C4.2239 3.35807 3.97025 3.58935 3.97025 3.8747V5.04387L3.0256 5.81473C2.79591 6.00575 2.77792 6.32984 2.98529 6.54108C3.19267 6.75232 3.54792 6.77169 3.78146 6.58455L7.93661 3.19327L12.0918 6.58455C12.2422 6.7097 12.4549 6.75159 12.6485 6.69426C12.8423 6.63692 12.9873 6.48919 13.0285 6.30726C13.0697 6.12538 13.0006 5.93733 12.8476 5.81473L8.47892 2.24986Z" fill="black"/>
<path d="M11.337 7.23291C11.024 7.23291 10.7703 7.46419 10.7703 7.74954V11.366H5.10393V7.74954C5.10393 7.46419 4.85027 7.23291 4.53732 7.23291C4.22436 7.23291 3.9707 7.46419 3.9707 7.74954V11.6941C3.97628 12.0886 4.3314 12.4043 4.76402 12.3994H11.1103C11.5432 12.4034 11.898 12.0873 11.9036 11.6926V7.74954C11.9036 7.46419 11.6498 7.23291 11.337 7.23291Z" fill="black"/>
<path d="M7.93714 13.4326C5.74651 13.4326 3.9707 15.0518 3.9707 17.0491C3.9707 19.0464 5.74658 20.6656 7.93714 20.6656C10.1277 20.6656 11.9036 19.0464 11.9036 17.0491C11.901 15.0527 10.1267 13.4349 7.93714 13.4326ZM5.10393 17.0491C5.10566 15.822 6.05223 14.7647 7.37046 14.5176V16.7562L5.27392 17.9026C5.16416 17.6291 5.10665 17.3404 5.10393 17.0491ZM5.85787 18.7885L7.84929 17.6991L9.49707 19.2015C8.33947 19.9056 6.79083 19.7299 5.85787 18.7885ZM10.2983 18.471L8.50375 16.8352V14.5176C9.42622 14.688 10.1953 15.2657 10.5553 16.0587C10.9152 16.8516 10.8189 17.7559 10.2983 18.471Z" fill="black"/>
<path d="M30.6026 9.29942V7.53091C30.6023 7.08107 30.2024 6.71647 29.709 6.71617H28.0964C27.603 6.71647 27.2031 7.08107 27.2028 7.53091V9.29942H26.0695V6.06005C26.0689 5.56667 25.6304 5.16683 25.0892 5.16623H23.6499C23.1089 5.16683 22.6704 5.56667 22.6697 6.06005V9.29942H21.5365V3.61629C21.5365 3.04559 21.0291 2.58297 20.4032 2.58297H19.2699C18.644 2.58297 18.1366 3.04559 18.1366 3.61629V9.29942H17.57C17.257 9.29942 17.0033 9.06808 17.0033 8.78279V2.58303C17.0033 2.29769 16.7496 2.06641 16.4367 2.06641C16.1238 2.06641 15.8701 2.29769 15.8701 2.58303V8.78279C15.8701 9.63877 16.6312 10.3327 17.57 10.3327H30.6027C30.9156 10.3327 31.1693 10.1015 31.1693 9.81611C31.1693 9.53076 30.9156 9.29942 30.6026 9.29942ZM20.4032 9.29942H19.2699V3.61629H20.4032V9.29942ZM24.9363 9.29942H23.803V6.19954H24.9363V9.29942ZM29.4693 9.29942H28.3361V7.74948H29.4694V9.29942H29.4693Z" fill="black"/>
<path d="M30.6026 19.6324H17.57C17.257 19.6324 17.0033 19.4011 17.0033 19.1158V18.2964L18.8693 16.5951C19.0931 16.3992 19.4466 16.3992 19.6705 16.5951L20.3346 17.2006C20.9984 17.8057 22.0745 17.8057 22.7382 17.2006L25.1022 15.0451C25.3261 14.8492 25.6796 14.8492 25.9034 15.0451L26.5675 15.6512C27.2321 16.2546 28.3066 16.2546 28.9712 15.6512L31.0032 13.7985C31.2179 13.5958 31.2149 13.2735 30.9963 13.0742C30.7777 12.8749 30.4243 12.8721 30.2019 13.0679L28.17 14.9201C27.9487 15.1218 27.59 15.1218 27.3687 14.9201L26.7046 14.3146C26.032 13.7293 24.9736 13.7293 24.301 14.3146L21.937 16.4701C21.7157 16.6717 21.357 16.6717 21.1358 16.4701L20.4723 15.8646C19.7995 15.2792 18.7408 15.2792 18.068 15.8646L17.0033 16.8353V12.916C17.0033 12.6307 16.7496 12.3994 16.4367 12.3994C16.1238 12.3994 15.8701 12.6308 15.8701 12.916V19.1158C15.8701 19.9718 16.6312 20.6657 17.57 20.6657H30.6027C30.9156 20.6657 31.1693 20.4344 31.1693 20.1491C31.1692 19.8637 30.9156 19.6324 30.6026 19.6324Z" fill="black"/>
<path d="M34.0017 24.0003V2.86479C34.0805 1.36243 32.8156 0.0833698 31.1685 0H2.83672C1.18967 0.0834304 -0.075305 1.36249 0.00351499 2.86479V24.0003C-0.0755706 25.5028 1.1894 26.7822 2.83672 26.8656H11.9029V27.8989H9.63636C8.3846 27.8989 7.36983 28.8242 7.36983 29.9655V30.4821C7.36983 30.7675 7.62349 30.9987 7.93645 30.9987H26.0688C26.3818 30.9987 26.6355 30.7675 26.6355 30.4821V29.9655C26.6355 28.8242 25.6207 27.8989 24.3689 27.8989H22.1024V26.8656H31.1686C32.8158 26.7822 34.0808 25.5028 34.0017 24.0003ZM24.3689 28.9322C24.9948 28.9322 25.5022 29.3949 25.5022 29.9656H8.50306C8.50306 29.3949 9.01045 28.9322 9.63636 28.9322H24.3689ZM13.0362 27.8989V26.8656H20.9691V27.8989H13.0362ZM31.1685 25.8324H2.83672C1.81671 25.747 1.06018 24.9316 1.13681 24.0003V22.7325H32.8685V24.0003C32.9451 24.9316 32.1886 25.747 31.1685 25.8324ZM32.8684 2.86479V21.6992H1.13681V2.86479C1.06018 1.93355 1.81677 1.11838 2.83672 1.03325H31.1686C32.1884 1.11838 32.9451 1.93355 32.8684 2.86479Z" fill="black"/>
</svg>
