<svg width="24" height="34" viewBox="0 0 24 34" fill="none" xmlns="http://www.w3.org/2000/svg">
<path d="M11.9575 8.83838C10.1711 8.83838 8.71777 10.2917 8.71777 12.0781C8.71777 13.8644 10.1711 15.3178 11.9575 15.3178C13.7439 15.3178 15.1971 13.8645 15.1971 12.0781C15.1971 10.2917 13.7438 8.83838 11.9575 8.83838Z" fill="black"/>
<path d="M2.32588 0C1.04344 0 0 1.04344 0 2.32588V24.3036C0.671898 23.8721 1.46984 23.6207 2.32588 23.6207H23.9147V0H2.32588ZM18.6 13.074H17.093C16.9568 13.7774 16.6803 14.4312 16.2923 15.0042L17.3588 16.0706L15.9501 17.4793L14.8836 16.4128C14.3107 16.8008 13.6568 17.0774 12.9535 17.2135V18.7206H10.9613V17.2135C10.2579 17.0773 9.604 16.8008 9.03112 16.4128L7.96463 17.4793L6.55602 16.0706L7.62251 15.0042C7.2345 14.4312 6.95798 13.7773 6.82185 13.074H5.31476V11.0819H6.82178C6.95798 10.3785 7.23443 9.72466 7.62244 9.15171L6.55596 8.08523L7.96457 6.67655L9.03105 7.74304C9.604 7.35502 10.2579 7.07851 10.9612 6.94237V5.43535H12.9535V6.94237C13.6568 7.07857 14.3107 7.35502 14.8836 7.74304L15.9501 6.67655L17.3588 8.08523L16.2923 9.15171C16.6803 9.72466 16.9568 10.3786 17.093 11.0819H18.6V13.074V13.074Z" fill="black"/>
<path d="M2.32588 25.6128C1.04338 25.6128 0 26.6562 0 27.9387C0 29.2212 1.04344 30.2646 2.32588 30.2646H4.31734V28.0499H12.2152V30.2646H23.9147V25.6128H2.32588Z" fill="black"/>
<path d="M6.30859 30.042V33.9999L8.26532 33.1193L10.2222 33.9999V30.042H6.30859Z" fill="black"/>
</svg>
