<svg width="24" height="24" viewBox="0 0 24 24" fill="none" xmlns="http://www.w3.org/2000/svg">
<path d="M12 0C5.37233 0 0 5.37233 0 12C0 18.6277 5.37233 24 12 24C18.6277 24 24 18.6277 24 12C24 5.37233 18.6277 0 12 0ZM12 22.2092C6.3698 22.2092 1.79078 17.6284 1.79078 12C1.79078 6.3698 6.3698 1.79078 12 1.79078C17.6284 1.79078 22.2092 6.3698 22.2092 12C22.2092 17.6302 17.6302 22.2092 12 22.2092Z" fill="#3B3A87"/>
<path d="M17 8.34436L15.6556 7L11.999 10.6547L8.34436 7L7 8.34436L10.6547 11.999L7 15.6556L8.34436 17L11.999 13.3434L15.6556 17L17 15.6556L13.3434 11.999L17 8.34436Z" fill="#3B3A87"/>
</svg>
