<?xml version="1.0" encoding="iso-8859-1"?>
<!-- Generator: Adobe Illustrator 19.0.0, SVG Export Plug-In . SVG Version: 6.00 Build 0)  -->
<svg xmlns="http://www.w3.org/2000/svg" xmlns:xlink="http://www.w3.org/1999/xlink" version="1.1" id="Layer_1" x="0px" y="0px" viewBox="0 0 512.008 512.008" style="enable-background:new 0 0 512.008 512.008;" xml:space="preserve" width="512" height="512">
<g>
	<path d="M480.032,459.646v-267.94h-90.004v267.917l-30.003-0.008V251.71h-90.004v207.882l-30.004-0.008V311.713h-90.004v147.848   l-30.003-0.008v-87.836H30.006v87.813l-29.998-0.008l-0.008,30l512,0.132l0.008-30L480.032,459.646z M420.028,221.706h30.004   v237.933l-30.004-0.008V221.706z M300.021,281.71h30.004v177.898l-30.004-0.008V281.71z M180.013,341.713h30.004v117.863   l-30.004-0.008V341.713z M60.006,401.717H90.01v57.828l-30.004-0.008V401.717z"/>
	<polygon points="79.614,279.007 413.235,83.531 407.206,106.358 436.211,114.019 455.364,41.506 382.851,22.353 375.189,51.358    398.359,57.478 64.448,253.123  "/>
</g>















</svg>
