<svg width="30" height="23" viewBox="0 0 30 23" fill="none" xmlns="http://www.w3.org/2000/svg">
<path d="M10.3125 0.6875C8.4675 0.6875 6.99375 2.0375 6.67969 3.79344C4.90781 4.23969 3.37031 5.39187 2.69531 7.22094H2.66719L0.673125 12.815C0.232761 13.7087 0.00252171 14.6912 0 15.6875C0 19.3006 2.94937 22.25 6.5625 22.25C9.8175 22.25 12.5297 19.8575 13.0369 16.7422C13.5459 17.2437 14.2369 17.5625 15 17.5625C15.7631 17.5625 16.4531 17.2437 16.9631 16.7422C17.4694 19.8575 20.1825 22.25 23.4375 22.25C27.0506 22.25 30 19.3006 30 15.6875C30 14.7744 29.8125 13.9006 29.4722 13.1094L27.3347 7.13281L27.3047 7.10469V7.07375C26.6203 5.41438 25.1034 4.25 23.3203 3.7925C23.0063 2.03938 21.5325 0.6875 19.6875 0.6875C17.9466 0.6875 16.5356 1.89219 16.1128 3.5H13.8863C13.4644 1.89219 12.0534 0.6875 10.3125 0.6875ZM10.3125 2.5625C11.4281 2.5625 12.1875 3.32187 12.1875 4.4375V5.375H17.8125V4.4375C17.8125 3.32187 18.5719 2.5625 19.6875 2.5625C20.8031 2.5625 21.5625 3.32187 21.5625 4.4375V5.28688L22.4119 5.375C23.805 5.52125 25.005 6.4925 25.5469 7.74687C25.5562 7.7675 25.5675 7.78625 25.575 7.80687L26.2781 9.79906C25.3948 9.36133 24.4233 9.1305 23.4375 9.12406C20.6963 9.12406 18.3516 10.8275 17.3719 13.2256C17.1155 12.8299 16.7642 12.5047 16.3499 12.2797C15.9356 12.0547 15.4715 11.937 15 11.9375C14.5284 11.9371 14.0643 12.0548 13.6499 12.28C13.2356 12.5052 12.8843 12.8306 12.6281 13.2266C11.6475 10.8284 9.30281 9.125 6.5625 9.125C5.5575 9.125 4.60313 9.36219 3.75 9.77L4.45312 7.865V7.83688C4.99687 6.38375 6.14812 5.52688 7.58812 5.375L8.4375 5.28688V4.4375C8.4375 3.32187 9.19687 2.5625 10.3125 2.5625ZM6.5625 11C9.16219 11 11.25 13.0878 11.25 15.6875C11.25 18.2872 9.16219 20.375 6.5625 20.375C3.96281 20.375 1.875 18.2872 1.875 15.6875C1.875 15.0238 2.03906 14.4125 2.28562 13.8406C2.30063 13.8059 2.29781 13.76 2.31375 13.7244C2.6866 12.911 3.28523 12.2218 4.03844 11.7389C4.79165 11.2559 5.66774 10.9994 6.5625 11ZM23.4375 11C26.0372 11 28.125 13.0878 28.125 15.6875C28.125 18.2872 26.0372 20.375 23.4375 20.375C20.8378 20.375 18.75 18.2872 18.75 15.6875C18.75 13.0878 20.8378 11 23.4375 11ZM15 13.8125C15.5288 13.8125 15.9375 14.2212 15.9375 14.75C15.9375 15.2788 15.5288 15.6875 15 15.6875C14.4712 15.6875 14.0625 15.2788 14.0625 14.75C14.0625 14.2212 14.4712 13.8125 15 13.8125Z" fill="#6B68FF"/>
</svg>
