<svg width="255" height="255" viewBox="0 0 255 255" fill="none" xmlns="http://www.w3.org/2000/svg">
<path d="M175.312 143.933V207.188H31.875V63.751H79.6875V31.876H15.9375C7.14 31.876 0 39.016 0 47.8135V223.126C0 231.939 7.14 239.063 15.9375 239.063H191.25C200.063 239.063 207.188 231.939 207.188 223.126V143.933H175.312Z" fill="#C5C9F7"/>
<path d="M251.813 65.3445L188.063 17.5321C185.672 15.7152 182.421 15.4283 179.727 16.783C177.018 18.1377 175.312 20.8949 175.312 23.9071V47.8133H151.406C103.068 47.8133 63.75 87.1311 63.75 135.47C63.75 139.167 66.3 142.386 69.8859 143.231C70.4916 143.375 71.1131 143.438 71.7188 143.438C74.6831 143.438 77.4722 141.781 78.8428 139.04L80.7234 135.294C92.9475 110.83 117.523 95.6258 144.872 95.6258H175.312V119.532C175.312 122.544 177.018 125.301 179.711 126.656C182.405 128.011 185.656 127.724 188.063 125.907L251.813 78.0945C253.821 76.5964 255 74.2217 255 71.7195C255 69.2174 253.821 66.8427 251.813 65.3445Z" fill="#C5C9F7"/>
</svg>
