<svg width="30" height="30" viewBox="0 0 30 30" fill="none" xmlns="http://www.w3.org/2000/svg">
<path d="M23.7333 9.48861C24.6666 11.0235 25.1999 12.977 25.1999 15.07C25.1999 20.9304 20.6666 25.5351 15.1999 25.5351C13.1999 25.5351 11.4665 24.9769 9.86652 24.0002L6.6665 27.349C9.06652 29.0234 11.9999 30.0002 15.1999 30.0002C23.5999 30.0002 30 23.4421 30 15.07C30 11.5816 28.9333 8.51187 26.9333 6.00024L23.7333 9.48861Z" fill="black"/>
<path d="M6.54549 20.5116C5.45457 18.8372 4.90912 16.8837 4.90912 14.7907C4.90912 8.93021 9.5455 4.4651 15.2728 4.4651C17.3183 4.4651 19.2274 5.02324 20.7274 6.13952L24.0001 2.65116C21.5456 0.976741 18.5456 0 15.1364 0C6.54549 0 0 6.41859 0 14.7907C0 18.279 1.22728 21.4883 3.13638 23.9999L6.54549 20.5116Z" fill="black"/>
<path d="M15 18.3001C16.6569 18.3001 18 16.9569 18 15.3001C18 13.6432 16.6569 12.3 15 12.3C13.3432 12.3 12 13.6432 12 15.3001C12 16.9569 13.3432 18.3001 15 18.3001Z" fill="#E9BD6D"/>
</svg>
