<svg width="162" height="23" viewBox="0 0 162 23" fill="none" xmlns="http://www.w3.org/2000/svg">
<g clip-path="url(#clip0)">
<path d="M45.7617 3.83332C41.7068 3.83332 38.5209 7.06139 38.5209 11.2982C38.5209 15.4342 41.7068 18.7631 45.7617 18.7631C47.7891 18.7631 49.913 17.7544 51.4577 16.2412L53.4851 18.5614C51.4577 20.6798 48.4649 22.0921 45.6651 22.0921C39.6794 22.0921 35.1419 17.3509 35.1419 11.2982C35.1419 5.2456 39.776 0.605255 45.8582 0.605255C48.7545 0.605255 51.5543 1.81578 53.5817 3.83332L51.5543 6.45613C50.0096 4.94297 47.8856 3.83332 45.7617 3.83332Z" fill="#000033" fill-opacity="0.87"/>
<path d="M99.3432 0.807007L110.253 16.0395V0.807007H113.632V21.9912H110.253L99.4398 6.75876V21.9912H96.0608V0.807007H99.3432Z" fill="#000033" fill-opacity="0.87"/>
<path d="M122.417 0.807007V21.9912H119.038V0.807007H122.417Z" fill="#000033" fill-opacity="0.87"/>
<path d="M136.802 3.83332C132.747 3.83332 129.561 7.06139 129.561 11.2982C129.561 15.4342 132.747 18.7631 136.802 18.7631C138.829 18.7631 140.953 17.7544 142.498 16.2412L144.526 18.5614C142.498 20.6798 139.505 22.0921 136.706 22.0921C130.72 22.0921 126.182 17.3509 126.182 11.2982C126.182 5.2456 130.816 0.605255 136.899 0.605255C139.795 0.605255 142.595 1.81578 144.622 3.83332L142.595 6.45613C140.953 4.94297 138.829 3.83332 136.802 3.83332Z" fill="#000033" fill-opacity="0.87"/>
<path d="M154.373 4.03508C152.346 4.03508 151.091 4.8421 151.091 6.25438C151.091 10.8947 162.097 8.3728 162 16.0395C162 19.8728 158.814 22.193 154.373 22.193C151.187 22.193 148.194 20.7807 146.07 18.864L147.519 15.7368C149.643 17.7544 152.249 18.864 154.373 18.864C156.787 18.864 158.138 17.9561 158.138 16.2412C158.138 11.5 147.132 14.1228 147.132 6.55701C147.132 2.92543 150.125 0.605255 154.566 0.605255C157.173 0.605255 159.78 1.51315 161.711 2.82455L160.262 5.95175C158.138 4.53947 155.918 4.03508 154.373 4.03508Z" fill="#000033" fill-opacity="0.87"/>
<path d="M0 0.807007V21.9912H3.37902V16.1403V7.76753V4.03508H13.6126V0.807007H0Z" fill="#000033" fill-opacity="0.87"/>
<path d="M12.6473 10.0877H6.56502V13.3158H12.6473V10.0877Z" fill="#000033" fill-opacity="0.87"/>
<path d="M25.6805 0.807007H22.205L13.2264 21.9912H16.7985L18.7294 17.25H22.3015V14.0219H19.9845L23.8462 4.64034L27.7079 14.0219H25.4874V17.25H28.963L30.8939 21.9912H34.5625L25.6805 0.807007Z" fill="#000033" fill-opacity="0.87"/>
<path d="M54.5471 0.807007V4.03508H58.6984V3.9342H66.7116V4.03508H70.8629V0.807007H54.5471Z" fill="#000033" fill-opacity="0.87"/>
<path d="M64.298 7.26315H60.9189V21.9912H64.298V7.26315Z" fill="#000033" fill-opacity="0.87"/>
<path d="M87.758 7.36397C88.4338 8.47362 88.82 9.8859 88.82 11.3991C88.82 15.6359 85.5375 18.9649 81.5792 18.9649C80.1311 18.9649 78.876 18.5613 77.7175 17.8552L75.4005 20.2763C77.1382 21.4868 79.2622 22.1929 81.5792 22.1929C87.6615 22.1929 92.2956 17.4517 92.2956 11.3991C92.2956 8.87713 91.5232 6.65783 90.0751 4.84204L87.758 7.36397Z" fill="#000033" fill-opacity="0.87"/>
<path d="M75.4971 15.5351C74.7247 14.3245 74.3385 12.9123 74.3385 11.3991C74.3385 7.16226 77.621 3.93419 81.6758 3.93419C83.124 3.93419 84.4756 4.3377 85.5376 5.14471L87.8546 2.62278C86.1169 1.41226 83.9929 0.706116 81.5793 0.706116C75.4971 0.706116 70.863 5.34647 70.863 11.3991C70.863 13.921 71.7319 16.2412 73.0835 18.057L75.4971 15.5351Z" fill="#000033" fill-opacity="0.87"/>
<path d="M81.5793 14.0219C82.9123 14.0219 83.9929 12.8928 83.9929 11.5C83.9929 10.1072 82.9123 8.97809 81.5793 8.97809C80.2463 8.97809 79.1657 10.1072 79.1657 11.5C79.1657 12.8928 80.2463 14.0219 81.5793 14.0219Z" fill="#E6B765"/>
</g>
<defs>
<clipPath id="clip0">
<rect width="162" height="23" fill="white"/>
</clipPath>
</defs>
</svg>
