<svg width="149" height="22" viewBox="0 0 149 22" fill="none" xmlns="http://www.w3.org/2000/svg">
<g clip-path="url(#clip0)">
<path d="M42.0895 3.66658C38.36 3.66658 35.4298 6.7543 35.4298 10.8069C35.4298 14.7631 38.36 17.9473 42.0895 17.9473C43.9542 17.9473 45.9077 16.9824 47.3284 15.535L49.1932 17.7543C47.3284 19.7806 44.5758 21.1315 42.0007 21.1315C36.4953 21.1315 32.3219 16.5964 32.3219 10.8069C32.3219 5.01745 36.5841 0.578857 42.1783 0.578857C44.8421 0.578857 47.4172 1.73675 49.282 3.66658L47.4172 6.17535C45.9965 4.72798 44.043 3.66658 42.0895 3.66658Z" fill="#000033"/>
<path d="M91.3712 0.771973L101.405 15.3421V0.771973H104.513V21.0351H101.405L91.46 6.46495V21.0351H88.3522V0.771973H91.3712Z" fill="#000033"/>
<path d="M112.594 0.771973V21.0351H109.486V0.771973H112.594Z" fill="#000033"/>
<path d="M125.824 3.66658C122.095 3.66658 119.164 6.7543 119.164 10.8069C119.164 14.7631 122.095 17.9473 125.824 17.9473C127.689 17.9473 129.642 16.9824 131.063 15.535L132.928 17.7543C131.063 19.7806 128.31 21.1315 125.735 21.1315C120.23 21.1315 116.057 16.5964 116.057 10.8069C116.057 5.01745 120.319 0.578857 125.913 0.578857C128.577 0.578857 131.152 1.73675 133.017 3.66658L131.152 6.17535C129.642 4.72798 127.689 3.66658 125.824 3.66658Z" fill="#000033"/>
<path d="M141.985 3.85956C140.12 3.85956 138.966 4.63149 138.966 5.98237C138.966 10.421 149.089 8.00868 149 15.342C149 19.0087 146.07 21.228 141.985 21.228C139.055 21.228 136.302 19.8771 134.349 18.0438L135.681 15.0525C137.634 16.9824 140.032 18.0438 141.985 18.0438C144.205 18.0438 145.448 17.1754 145.448 15.535C145.448 10.9999 135.325 13.5087 135.325 6.27184C135.325 2.79816 138.078 0.578857 142.163 0.578857C144.56 0.578857 146.958 1.44728 148.734 2.70166L147.402 5.69289C145.448 4.34202 143.406 3.85956 141.985 3.85956Z" fill="#000033"/>
<path d="M0 0.771973V21.0351H3.10787V15.4386V7.42987V3.85969H12.5203V0.771973H0Z" fill="#000033"/>
<path d="M11.6324 9.64917H6.03821V12.7369H11.6324V9.64917Z" fill="#000033"/>
<path d="M23.6198 0.771973H20.4231L12.165 21.0351H15.4505L17.2264 16.5H20.5119V13.4123H18.3808L21.9326 4.43864L25.4845 13.4123H23.4422V16.5H26.6388L28.4148 21.0351H31.789L23.6198 0.771973Z" fill="#000033"/>
<path d="M50.1698 0.771973V3.85969H53.988V3.7632H61.3581V3.85969H65.1764V0.771973H50.1698Z" fill="#000033"/>
<path d="M59.1382 6.94751H56.0303V21.0352H59.1382V6.94751Z" fill="#000033"/>
<path d="M80.7156 7.04387C81.3372 8.10528 81.6924 9.45615 81.6924 10.9035C81.6924 14.9562 78.6733 18.1404 75.0327 18.1404C73.7007 18.1404 72.5464 17.7544 71.4808 17.079L69.3497 19.3948C70.9481 20.5527 72.9016 21.2281 75.0327 21.2281C80.6268 21.2281 84.8891 16.693 84.8891 10.9035C84.8891 8.49124 84.1787 6.36843 82.8467 4.63159L80.7156 7.04387Z" fill="#000033"/>
<path d="M69.4386 14.8597C68.7282 13.7019 68.3731 12.351 68.3731 10.9036C68.3731 6.85098 71.3921 3.76326 75.1216 3.76326C76.4535 3.76326 77.6967 4.14922 78.6734 4.92115L80.8045 2.50887C79.2062 1.35098 77.2527 0.675537 75.0328 0.675537C69.4386 0.675537 65.1764 5.11413 65.1764 10.9036C65.1764 13.3159 65.9756 15.5352 67.2187 17.272L69.4386 14.8597Z" fill="#000033"/>
<path d="M75.0328 13.4122C76.2588 13.4122 77.2527 12.3322 77.2527 10.9999C77.2527 9.66766 76.2588 8.58765 75.0328 8.58765C73.8068 8.58765 72.8129 9.66766 72.8129 10.9999C72.8129 12.3322 73.8068 13.4122 75.0328 13.4122Z" fill="#E6B765"/>
</g>
<defs>
<clipPath id="clip0">
<rect width="149" height="22" fill="white"/>
</clipPath>
</defs>
</svg>
