 <svg  width="132" height="132" viewBox="0 0 132 132" fill="none"
      xmlns="http://www.w3.org/2000/svg">
      <path
        d="M132 66C132 74.6672 130.293 83.2496 126.976 91.2571C123.659 99.2646 118.798 106.54 112.669 112.669C106.54 118.798 99.2646 123.659 91.2571 126.976C83.2496 130.293 74.6672 132 66 132C57.3328 132 48.7504 130.293 40.7429 126.976C32.7354 123.659 25.4596 118.798 19.3309 112.669C13.2023 106.54 8.34076 99.2646 5.02395 91.2571C1.70714 83.2496 -7.57714e-07 74.6672 0 66L13.8435 66C13.8435 72.8493 15.1925 79.6315 17.8136 85.9594C20.4348 92.2874 24.2766 98.0371 29.1198 102.88C33.9629 107.723 39.7126 111.565 46.0406 114.186C52.3685 116.807 59.1507 118.157 66 118.157C72.8493 118.157 79.6315 116.807 85.9594 114.186C92.2874 111.565 98.0371 107.723 102.88 102.88C107.723 98.0371 111.565 92.2874 114.186 85.9594C116.807 79.6315 118.157 72.8493 118.157 66L132 66Z"
        fill="black" />
      <path
        d="M-5.7699e-06 66C-6.52762e-06 57.3328 1.70713 48.7504 5.02394 40.7429C8.34075 32.7354 13.2023 25.4596 19.3309 19.331C25.4596 13.2023 32.7354 8.34077 40.7429 5.02396C48.7504 1.70715 57.3327 6.14876e-06 66 5.7699e-06C74.6672 5.39105e-06 83.2496 1.70715 91.2571 5.02396C99.2646 8.34077 106.54 13.2023 112.669 19.331C118.798 25.4596 123.659 32.7354 126.976 40.7429C130.293 48.7504 132 57.3328 132 66L118.157 66C118.157 59.1507 116.807 52.3685 114.186 46.0406C111.565 39.7126 107.723 33.9629 102.88 29.1198C98.0371 24.2766 92.2874 20.4348 85.9594 17.8136C79.6315 15.1925 72.8493 13.8435 66 13.8435C59.1507 13.8435 52.3685 15.1925 46.0405 17.8137C39.7126 20.4348 33.9629 24.2766 29.1198 29.1198C24.2766 33.963 20.4347 39.7126 17.8136 46.0406C15.1925 52.3685 13.8435 59.1507 13.8435 66L-5.7699e-06 66Z"
        fill="black" />
      <rect x="19.1727" y="114.28" width="135.271" height="19.693" transform="rotate(-53.7249 19.1727 114.28)"
        fill="white" />
      <circle cx="66" cy="66" r="12" fill="#FFC253" />
    </svg>