<svg width="45" height="14" viewBox="0 0 45 14" fill="none" xmlns="http://www.w3.org/2000/svg">
<rect width="45" height="14" rx="2" fill="#D82828"/>
<path d="M13.872 4.44V5.184H11.512V6.824H13.352V7.568H11.512V10H10.6V4.44H13.872ZM14.4932 7.776C14.4932 7.33333 14.5839 6.94133 14.7652 6.6C14.9519 6.25867 15.2025 5.99467 15.5172 5.808C15.8372 5.616 16.1892 5.52 16.5732 5.52C16.9199 5.52 17.2212 5.58933 17.4772 5.728C17.7385 5.86133 17.9465 6.02933 18.1012 6.232V5.592H19.0212V10H18.1012V9.344C17.9465 9.552 17.7359 9.72533 17.4692 9.864C17.2025 10.0027 16.8985 10.072 16.5572 10.072C16.1785 10.072 15.8319 9.976 15.5172 9.784C15.2025 9.58667 14.9519 9.31467 14.7652 8.968C14.5839 8.616 14.4932 8.21867 14.4932 7.776ZM18.1012 7.792C18.1012 7.488 18.0372 7.224 17.9092 7C17.7865 6.776 17.6239 6.60533 17.4212 6.488C17.2185 6.37067 16.9999 6.312 16.7652 6.312C16.5305 6.312 16.3119 6.37067 16.1092 6.488C15.9065 6.6 15.7412 6.768 15.6132 6.992C15.4905 7.21067 15.4292 7.472 15.4292 7.776C15.4292 8.08 15.4905 8.34667 15.6132 8.576C15.7412 8.80533 15.9065 8.98133 16.1092 9.104C16.3172 9.22133 16.5359 9.28 16.7652 9.28C16.9999 9.28 17.2185 9.22133 17.4212 9.104C17.6239 8.98667 17.7865 8.816 17.9092 8.592C18.0372 8.36267 18.1012 8.096 18.1012 7.792ZM20.7631 5.008C20.5977 5.008 20.4591 4.952 20.3471 4.84C20.2351 4.728 20.1791 4.58933 20.1791 4.424C20.1791 4.25867 20.2351 4.12 20.3471 4.008C20.4591 3.896 20.5977 3.84 20.7631 3.84C20.9231 3.84 21.0591 3.896 21.1711 4.008C21.2831 4.12 21.3391 4.25867 21.3391 4.424C21.3391 4.58933 21.2831 4.728 21.1711 4.84C21.0591 4.952 20.9231 5.008 20.7631 5.008ZM21.2111 5.592V10H20.2991V5.592H21.2111ZM23.4004 4.08V10H22.4884V4.08H23.4004ZM28.7178 7.688C28.7178 7.85333 28.7071 8.00267 28.6858 8.136H25.3178C25.3445 8.488 25.4751 8.77067 25.7098 8.984C25.9445 9.19733 26.2325 9.304 26.5738 9.304C27.0645 9.304 27.4111 9.09867 27.6138 8.688H28.5978C28.4645 9.09333 28.2218 9.42667 27.8698 9.688C27.5231 9.944 27.0911 10.072 26.5738 10.072C26.1525 10.072 25.7738 9.97867 25.4378 9.792C25.1071 9.6 24.8458 9.33333 24.6538 8.992C24.4671 8.64533 24.3738 8.24533 24.3738 7.792C24.3738 7.33867 24.4645 6.94133 24.6458 6.6C24.8325 6.25333 25.0911 5.98667 25.4218 5.8C25.7578 5.61333 26.1418 5.52 26.5738 5.52C26.9898 5.52 27.3605 5.61067 27.6858 5.792C28.0111 5.97333 28.2645 6.22933 28.4458 6.56C28.6271 6.88533 28.7178 7.26133 28.7178 7.688ZM27.7658 7.4C27.7605 7.064 27.6405 6.79467 27.4058 6.592C27.1711 6.38933 26.8805 6.288 26.5338 6.288C26.2191 6.288 25.9498 6.38933 25.7258 6.592C25.5018 6.78933 25.3685 7.05867 25.3258 7.4H27.7658ZM29.3913 7.776C29.3913 7.33333 29.482 6.94133 29.6633 6.6C29.85 6.25867 30.1006 5.99467 30.4153 5.808C30.7353 5.616 31.09 5.52 31.4793 5.52C31.7673 5.52 32.05 5.584 32.3273 5.712C32.61 5.83467 32.834 6 32.9993 6.208V4.08H33.9193V10H32.9993V9.336C32.85 9.54933 32.642 9.72533 32.3753 9.864C32.114 10.0027 31.8126 10.072 31.4713 10.072C31.0873 10.072 30.7353 9.976 30.4153 9.784C30.1006 9.58667 29.85 9.31467 29.6633 8.968C29.482 8.616 29.3913 8.21867 29.3913 7.776ZM32.9993 7.792C32.9993 7.488 32.9353 7.224 32.8073 7C32.6846 6.776 32.522 6.60533 32.3193 6.488C32.1166 6.37067 31.898 6.312 31.6633 6.312C31.4286 6.312 31.21 6.37067 31.0073 6.488C30.8046 6.6 30.6393 6.768 30.5113 6.992C30.3886 7.21067 30.3273 7.472 30.3273 7.776C30.3273 8.08 30.3886 8.34667 30.5113 8.576C30.6393 8.80533 30.8046 8.98133 31.0073 9.104C31.2153 9.22133 31.434 9.28 31.6633 9.28C31.898 9.28 32.1166 9.22133 32.3193 9.104C32.522 8.98667 32.6846 8.816 32.8073 8.592C32.9353 8.36267 32.9993 8.096 32.9993 7.792Z" fill="white"/>
</svg>
