<svg width="52" height="16" viewBox="0 0 52 16" fill="none" xmlns="http://www.w3.org/2000/svg">
<rect width="52" height="16" rx="8" fill="#EE0202"/>
<path d="M11.7513 5.304H15.4713V6.128H12.7753V7.688H15.3113V8.52H12.7753V11H11.7513V5.304ZM20.1447 9.664H17.3607L16.7847 11H15.7447L18.3207 5.304H19.1607L21.7447 11H20.7127L20.1447 9.664ZM19.8007 8.864L18.7527 6.424L17.7047 8.864H19.8007ZM22.8607 5.304H23.8927V11H22.8607V5.304ZM25.6263 5.304H26.6583V10.152H29.3223V11H25.6263V5.304ZM30.6028 5.304H34.4108V6.12H31.6108V7.696H34.2428V8.512H31.6108V10.184H34.4108V11H30.6028V5.304ZM35.8607 5.304H37.9567C38.89 5.304 39.6127 5.552 40.1247 6.048C40.642 6.544 40.9007 7.24267 40.9007 8.144C40.9007 9.05067 40.642 9.75467 40.1247 10.256C39.6127 10.752 38.89 11 37.9567 11H35.8607V5.304ZM37.8927 10.16C39.2047 10.16 39.8607 9.488 39.8607 8.144C39.8607 6.81067 39.2047 6.144 37.8927 6.144H36.8927V10.16H37.8927Z" fill="white"/>
</svg>
