<svg width="100" height="100" viewBox="0 0 100 100" fill="none" xmlns="http://www.w3.org/2000/svg">
<path d="M79.1105 31.6285C82.2216 36.7448 83.9994 43.2563 83.9994 50.233C83.9994 69.7677 68.8883 85.1164 50.6661 85.1164C43.9994 85.1164 38.2217 83.256 32.8883 80.0002L22.2217 91.1629C30.2217 96.7442 39.9994 100 50.6661 100C78.6661 100 99.9994 78.1398 99.9994 50.233C99.9994 38.6052 96.4438 28.3728 89.7772 20.0007L79.1105 31.6285Z" fill="black"/>
<path d="M21.8182 68.3715C18.1818 62.7901 16.3636 56.2786 16.3636 49.3019C16.3636 29.7672 31.8182 14.8836 50.9091 14.8836C57.7272 14.8836 64.0909 16.744 69.0909 20.4649L79.9999 8.83713C71.8181 3.25579 61.8181 0 50.4545 0C21.8182 0 0 21.3952 0 49.3019C0 60.9297 4.09091 71.6273 10.4545 79.9993L21.8182 68.3715Z" fill="black"/>
<path d="M50 61C55.5228 61 60 56.5228 60 51C60 45.4772 55.5228 41 50 41C44.4772 41 40 45.4772 40 51C40 56.5228 44.4772 61 50 61Z" fill="#E9BD6D"/>
</svg>
