<svg width="406" height="511" viewBox="0 0 406 511" fill="none" xmlns="http://www.w3.org/2000/svg">
<path d="M276.267 2.95126C273.924 0.483432 270.712 -0.998047 267.382 -0.998047H68.0416C31.258 -0.998047 0.895508 29.2436 0.895508 66.0233V442.978C0.895508 479.761 31.258 510.003 68.0416 510.003H338.599C375.382 510.003 405.745 479.761 405.745 442.978V143.661C405.745 140.452 404.263 137.368 402.166 135.021L276.267 2.95126ZM279.846 42.573L364.15 131.072H309.347C293.055 131.072 279.846 117.988 279.846 101.696V42.573ZM338.599 485.317H68.0416C44.9617 485.317 25.5816 466.186 25.5816 442.978V66.0233C25.5816 42.9434 44.8369 23.6881 68.0416 23.6881H255.16V101.696C255.16 131.688 279.355 155.758 309.347 155.758H381.059V442.978C381.059 466.186 361.803 485.317 338.599 485.317Z" fill="#C4C4C4"/>
<path d="M304.902 400.151H101.737C94.9491 400.151 89.3936 405.703 89.3936 412.494C89.3936 419.282 94.9491 424.837 101.737 424.837H305.027C311.814 424.837 317.37 419.282 317.37 412.494C317.37 405.703 311.814 400.151 304.902 400.151Z" fill="#C4C4C4"/>
<path d="M194.31 355.839C196.657 358.307 199.865 359.789 203.319 359.789C206.777 359.789 209.986 358.307 212.329 355.839L284.66 278.202C289.35 273.262 288.98 265.364 284.044 260.798C279.105 256.108 271.206 256.475 266.641 261.414L215.662 316.093V181.309C215.662 174.518 210.107 168.966 203.319 168.966C196.532 168.966 190.976 174.518 190.976 181.309V316.093L140.123 261.414C135.433 256.479 127.655 256.108 122.719 260.798C117.783 265.489 117.413 273.266 122.103 278.202L194.31 355.839Z" fill="#C4C4C4"/>
</svg>
