<svg width="25" height="15" viewBox="0 0 25 15" fill="none" xmlns="http://www.w3.org/2000/svg">
<path d="M24.5705 6.95661C24.52 6.89269 23.3087 5.37314 21.232 3.84745C18.457 1.80863 15.4374 0.730957 12.4999 0.730957C9.56249 0.730957 6.54298 1.80863 3.76783 3.84745C1.69119 5.37308 0.479865 6.89269 0.42935 6.95661L0 7.49964L0.429405 8.04271C0.47992 8.10664 1.69124 9.62625 3.76788 11.1519C6.54303 13.1907 9.56255 14.2684 12.5 14.2684C15.4375 14.2684 18.457 13.1907 21.232 11.1519C23.3087 9.62625 24.52 8.10664 24.5705 8.04271L25 7.49964L24.5705 6.95661ZM12.4999 12.2415C9.88529 12.2415 7.75808 10.1143 7.75808 7.49964C7.75808 7.08999 7.81029 6.69233 7.90842 6.31289L6.82582 6.1307C6.71975 6.5699 6.66349 7.02831 6.66349 7.49964C6.66349 9.18858 7.38493 10.712 8.53545 11.7787C7.05442 11.2317 5.79505 10.464 4.84457 9.76969C3.66702 8.90962 2.78451 8.03976 2.28138 7.49964C2.78473 6.95935 3.66713 6.0896 4.84457 5.22958C5.79505 4.53529 7.05448 3.7676 8.53545 3.22048L9.2617 4.03911C10.1099 3.24489 11.249 2.7578 12.4999 2.7578C15.1145 2.7578 17.2417 4.88495 17.2417 7.49964C17.2417 10.1143 15.1145 12.2415 12.4999 12.2415ZM20.1553 9.76969C19.2047 10.464 17.9454 11.2317 16.4644 11.7787C17.6148 10.7121 18.3363 9.18863 18.3363 7.49958C18.3363 5.81053 17.6148 4.28715 16.4644 3.22042C17.9454 3.76755 19.2047 4.53523 20.1553 5.22953C21.3328 6.0896 22.2153 6.95946 22.7185 7.49953C22.2151 8.03992 21.3327 8.90973 20.1553 9.76969Z" fill="black" fill-opacity="0.12"/>
<path d="M9.48242 6.57811C9.39343 6.86976 9.34521 7.17914 9.34521 7.49991C9.34521 9.24216 10.7576 10.6546 12.4999 10.6546C14.2422 10.6546 15.6546 9.24221 15.6546 7.49991C15.6546 5.75761 14.2422 4.34521 12.4999 4.34521C11.6513 4.34521 10.8815 4.68092 10.3145 5.22603L11.8705 6.97998L9.48242 6.57811Z" fill="black" fill-opacity="0.12"/>
</svg>
