<svg width="20" height="20" viewBox="0 0 20 20" fill="none" xmlns="http://www.w3.org/2000/svg">
<path d="M9.9998 0C4.48595 0 0 4.486 0 10C0 15.514 4.48595 20 9.9998 20C15.5141 20 20 15.514 20 10C20 4.486 15.5141 0 9.9998 0ZM9.9998 18.6885C5.20935 18.6885 1.3115 14.7908 1.3115 10C1.3115 5.20915 5.20935 1.31155 9.9998 1.31155C14.7906 1.31155 18.6884 5.2092 18.6884 10C18.6884 14.7908 14.7906 18.6885 9.9998 18.6885Z" fill="black"/>
<path d="M10 4.56885C8.2412 4.56885 6.81055 5.99965 6.81055 7.7585C6.81055 8.12065 7.1041 8.41425 7.4662 8.41425C7.8285 8.41425 8.12205 8.1206 8.12205 7.7585C8.12205 6.723 8.96445 5.8804 10 5.8804C11.036 5.8804 11.8783 6.723 11.8783 7.7585C11.8783 8.7942 11.0359 9.6368 10 9.6368C9.6379 9.6368 9.34435 9.93045 9.34435 10.2925V12.5767C9.34435 12.9388 9.6379 13.2324 10 13.2324C10.3621 13.2324 10.6559 12.9388 10.6559 12.5767V10.8798C12.1011 10.5766 13.1899 9.2925 13.1899 7.75845C13.1899 5.99965 11.759 4.56885 10 4.56885Z" fill="black"/>
<path d="M10 13.687C9.54571 13.687 9.17676 14.0556 9.17676 14.5101C9.17676 14.9647 9.54571 15.3334 10 15.3334C10.4547 15.3334 10.8229 14.9647 10.8229 14.5101C10.8229 14.0556 10.4547 13.687 10 13.687Z" fill="black"/>
</svg>
