<svg width="33" height="32" viewBox="0 0 33 32" fill="none" xmlns="http://www.w3.org/2000/svg">
<path d="M6.875 2.28564H8.01786V3.4285H6.875V2.28564Z" fill="black"/>
<path d="M2.30273 2.28564H3.44559V3.4285H2.30273V2.28564Z" fill="black"/>
<path d="M11.4453 2.28564H12.5882V3.4285H11.4453V2.28564Z" fill="black"/>
<path d="M30.589 0H1.44615C0.658721 0 0.0175781 0.641143 0.0175781 1.42857V5.71429H32.0176V1.42857C32.0176 0.641143 31.3764 0 30.589 0ZM4.58901 4C4.58901 4.31543 4.33301 4.57143 4.01758 4.57143H1.73186C1.41644 4.57143 1.16044 4.31543 1.16044 4V1.71429C1.16044 1.39886 1.41644 1.14286 1.73186 1.14286H4.01758C4.33301 1.14286 4.58901 1.39886 4.58901 1.71429V4ZM9.16043 4C9.16043 4.31543 8.90444 4.57143 8.58901 4.57143H6.30329C5.98786 4.57143 5.73186 4.31543 5.73186 4V1.71429C5.73186 1.39886 5.98786 1.14286 6.30329 1.14286H8.58901C8.90444 1.14286 9.16043 1.39886 9.16043 1.71429V4ZM13.7319 4C13.7319 4.31543 13.4759 4.57143 13.1604 4.57143H10.8747C10.5593 4.57143 10.3033 4.31543 10.3033 4V1.71429C10.3033 1.39886 10.5593 1.14286 10.8747 1.14286H13.1604C13.4759 1.14286 13.7319 1.39886 13.7319 1.71429V4Z" fill="black"/>
<path d="M3.44531 22.2856H28.5882V16.5713H3.44531V22.2856ZM22.4699 18.6896C22.2465 18.4661 22.2465 18.105 22.4699 17.8816C22.6927 17.6581 23.055 17.6581 23.2779 17.8816L24.0167 18.6204L24.7556 17.8816C24.9785 17.6581 25.3407 17.6581 25.5636 17.8816C25.787 18.105 25.787 18.4661 25.5636 18.6896L24.8247 19.4284L25.5636 20.1673C25.787 20.3907 25.787 20.7519 25.5636 20.9753C25.4522 21.0867 25.3059 21.1427 25.1596 21.1427C25.0133 21.1427 24.867 21.0867 24.7556 20.9753L24.0167 20.2364L23.2779 20.9753C23.1665 21.0867 23.0202 21.1427 22.8739 21.1427C22.7276 21.1427 22.5813 21.0867 22.4699 20.9753C22.2465 20.7519 22.2465 20.3907 22.4699 20.1673L23.2087 19.4284L22.4699 18.6896ZM17.327 18.6896C17.1036 18.4661 17.1036 18.105 17.327 17.8816C17.5499 17.6581 17.9122 17.6581 18.135 17.8816L18.8739 18.6204L19.6127 17.8816C19.8356 17.6581 20.1979 17.6581 20.4207 17.8816C20.6442 18.105 20.6442 18.4661 20.4207 18.6896L19.6819 19.4284L20.4207 20.1673C20.6442 20.3907 20.6442 20.7519 20.4207 20.9753C20.3093 21.0867 20.163 21.1427 20.0167 21.1427C19.8705 21.1427 19.7242 21.0867 19.6127 20.9753L18.8739 20.2364L18.135 20.9753C18.0236 21.0867 17.8773 21.1427 17.731 21.1427C17.5847 21.1427 17.4385 21.0867 17.327 20.9753C17.1036 20.7519 17.1036 20.3907 17.327 20.1673L18.0659 19.4284L17.327 18.6896ZM12.1842 18.6896C11.9607 18.4661 11.9607 18.105 12.1842 17.8816C12.407 17.6581 12.7693 17.6581 12.9922 17.8816L13.731 18.6204L14.4699 17.8816C14.6927 17.6581 15.055 17.6581 15.2779 17.8816C15.5013 18.105 15.5013 18.4661 15.2779 18.6896L14.539 19.4284L15.2779 20.1673C15.5013 20.3907 15.5013 20.7519 15.2779 20.9753C15.1665 21.0867 15.0202 21.1427 14.8739 21.1427C14.7276 21.1427 14.5813 21.0867 14.4699 20.9753L13.731 20.2364L12.9922 20.9753C12.8807 21.0867 12.7345 21.1427 12.5882 21.1427C12.4419 21.1427 12.2956 21.0867 12.1842 20.9753C11.9607 20.7519 11.9607 20.3907 12.1842 20.1673L12.923 19.4284L12.1842 18.6896ZM7.04131 18.6896C6.81788 18.4661 6.81788 18.105 7.04131 17.8816C7.26417 17.6581 7.62646 17.6581 7.84931 17.8816L8.58817 18.6204L9.32703 17.8816C9.54988 17.6581 9.91217 17.6581 10.135 17.8816C10.3585 18.105 10.3585 18.4661 10.135 18.6896L9.39617 19.4284L10.135 20.1673C10.3585 20.3907 10.3585 20.7519 10.135 20.9753C10.0236 21.0867 9.87731 21.1427 9.73103 21.1427C9.58474 21.1427 9.43846 21.0867 9.32703 20.9753L8.58817 20.2364L7.84931 20.9753C7.73788 21.0867 7.5916 21.1427 7.44531 21.1427C7.29903 21.1427 7.15274 21.0867 7.04131 20.9753C6.81788 20.7519 6.81788 20.3907 7.04131 20.1673L7.78017 19.4284L7.04131 18.6896Z" fill="black"/>
<path d="M0.0175781 6.85742V30.5717C0.0175781 31.3597 0.658721 32.0003 1.44615 32.0003H30.589C31.3764 32.0003 32.0176 31.3591 32.0176 30.5717V6.85742H0.0175781ZM20.589 9.14314H22.3033C22.6187 9.14314 22.8747 9.39856 22.8747 9.71456C22.8747 10.0306 22.6187 10.286 22.3033 10.286H20.589C20.2736 10.286 20.0176 10.0306 20.0176 9.71456C20.0176 9.39856 20.2736 9.14314 20.589 9.14314ZM22.8747 12.5717C22.8747 12.8877 22.6187 13.1431 22.3033 13.1431H14.3033C13.9879 13.1431 13.7319 12.8877 13.7319 12.5717C13.7319 12.2557 13.9879 12.0003 14.3033 12.0003H22.3033C22.6187 12.0003 22.8747 12.2557 22.8747 12.5717ZM10.3033 9.14314H18.3033C18.6187 9.14314 18.8747 9.39856 18.8747 9.71456C18.8747 10.0306 18.6187 10.286 18.3033 10.286H10.3033C9.98787 10.286 9.73186 10.0306 9.73186 9.71456C9.73186 9.39856 9.98787 9.14314 10.3033 9.14314ZM10.3033 12.0003H12.0176C12.333 12.0003 12.589 12.2557 12.589 12.5717C12.589 12.8877 12.333 13.1431 12.0176 13.1431H10.3033C9.98787 13.1431 9.73186 12.8877 9.73186 12.5717C9.73186 12.2557 9.98787 12.0003 10.3033 12.0003ZM12.0176 29.7146H10.3033C9.98787 29.7146 9.73186 29.4591 9.73186 29.1431C9.73186 28.8271 9.98787 28.5717 10.3033 28.5717H12.0176C12.333 28.5717 12.589 28.8271 12.589 29.1431C12.589 29.4591 12.333 29.7146 12.0176 29.7146ZM9.73186 26.286C9.73186 25.97 9.98787 25.7146 10.3033 25.7146H18.3033C18.6187 25.7146 18.8747 25.97 18.8747 26.286C18.8747 26.602 18.6187 26.8574 18.3033 26.8574H10.3033C9.98787 26.8574 9.73186 26.602 9.73186 26.286ZM22.3033 29.7146H14.3033C13.9879 29.7146 13.7319 29.4591 13.7319 29.1431C13.7319 28.8271 13.9879 28.5717 14.3033 28.5717H22.3033C22.6187 28.5717 22.8747 28.8271 22.8747 29.1431C22.8747 29.4591 22.6187 29.7146 22.3033 29.7146ZM22.3033 26.8574H20.589C20.2736 26.8574 20.0176 26.602 20.0176 26.286C20.0176 25.97 20.2736 25.7146 20.589 25.7146H22.3033C22.6187 25.7146 22.8747 25.97 22.8747 26.286C22.8747 26.602 22.6187 26.8574 22.3033 26.8574ZM29.7319 22.8574C29.7319 23.1734 29.4759 23.4289 29.1604 23.4289H2.87472C2.55929 23.4289 2.30329 23.1734 2.30329 22.8574V16.0003C2.30329 15.6843 2.55929 15.4289 2.87472 15.4289H29.1604C29.4759 15.4289 29.7319 15.6843 29.7319 16.0003V22.8574Z" fill="black"/>
</svg>
