    <svg  width="15" height="24" viewBox="0 0 15 24" fill="none" xmlns="http://www.w3.org/2000/svg">
          <rect y="4" width="15" height="15" rx="7.5" fill="#3B3A87" />
          <path
            d="M7.66699 13.1543H6.42188C6.41862 12.9753 6.41699 12.8662 6.41699 12.8271C6.41699 12.4235 6.48372 12.0915 6.61719 11.8311C6.75065 11.5706 7.01758 11.2777 7.41797 10.9521C7.81836 10.6266 8.05762 10.4134 8.13574 10.3125C8.25618 10.153 8.31641 9.97721 8.31641 9.78516C8.31641 9.51823 8.20898 9.29036 7.99414 9.10156C7.78255 8.90951 7.49609 8.81348 7.13477 8.81348C6.78646 8.81348 6.49512 8.91276 6.26074 9.11133C6.02637 9.3099 5.86523 9.61263 5.77734 10.0195L4.51758 9.86328C4.55339 9.2806 4.80078 8.78581 5.25977 8.37891C5.72201 7.97201 6.32747 7.76855 7.07617 7.76855C7.86393 7.76855 8.49056 7.97526 8.95605 8.38867C9.42155 8.79883 9.6543 9.27734 9.6543 9.82422C9.6543 10.127 9.56803 10.4134 9.39551 10.6836C9.22624 10.9538 8.86165 11.3216 8.30176 11.7871C8.01204 12.028 7.83138 12.2217 7.75977 12.3682C7.69141 12.5146 7.66048 12.7767 7.66699 13.1543ZM6.42188 15V13.6279H7.79395V15H6.42188Z"
            fill="white" />
        </svg>