      <svg  width="30" height="30" viewBox="0 0 30 30" fill="none"
              xmlns="http://www.w3.org/2000/svg">
              <path
                d="M24.5299 6.9501C22.1927 4.60811 19.1481 3.23314 15.8788 3.02361V1.75781H17.1679C17.6533 1.75781 18.0468 1.3643 18.0468 0.878906C18.0468 0.393516 17.6533 0 17.1679 0H12.832C12.3466 0 11.9531 0.393516 11.9531 0.878906C11.9531 1.3643 12.3466 1.75781 12.832 1.75781H14.121V3.02361C11.8794 3.16729 9.74361 3.85898 7.86891 5.03479L7.034 4.19818C6.62766 3.79102 6.08713 3.56684 5.51191 3.56684C4.9367 3.56684 4.39617 3.79107 3.98988 4.19818L2.7201 5.47072C1.88426 6.3082 1.88426 7.67098 2.7201 8.50852L3.56068 9.35086C2.23395 11.4738 1.52344 13.9307 1.52344 16.4973C1.52344 20.1036 2.925 23.4943 5.46996 26.0445C8.01539 28.5952 11.3999 30 14.9999 30C18.6 30 21.9845 28.5952 24.5299 26.0445C27.0749 23.4943 28.4764 20.1036 28.4764 16.4973C28.4764 12.891 27.0749 9.50033 24.5299 6.9501ZM3.96434 6.71244L5.23418 5.43996C5.33426 5.33971 5.45115 5.32471 5.51197 5.32471C5.57279 5.32471 5.68975 5.33965 5.78982 5.43996L6.42674 6.07816C6.09645 6.35197 5.77699 6.64254 5.47002 6.95016C5.16393 7.25689 4.87477 7.57605 4.60225 7.90605L3.96434 7.26686C3.81176 7.11398 3.81176 6.86525 3.96434 6.71244ZM14.9999 28.2422C8.53822 28.2422 3.28125 22.9734 3.28125 16.4973C3.28125 10.0212 8.53822 4.75242 14.9999 4.75242C21.4617 4.75242 26.7186 10.0211 26.7186 16.4973C26.7186 22.9735 21.4617 28.2422 14.9999 28.2422Z"
                fill="#B1B8FF" />
              <path
                d="M15.0001 6.3999C9.44291 6.3999 4.92188 10.9295 4.92188 16.4972C4.92188 22.0649 9.44291 26.5946 15.0001 26.5946C20.5572 26.5946 25.0782 22.0649 25.0782 16.4972C25.0782 10.9295 20.5572 6.3999 15.0001 6.3999ZM15.879 24.7903V23.7629C15.879 23.2775 15.4854 22.884 15.0001 22.884C14.5147 22.884 14.1212 23.2775 14.1212 23.7629V24.7903C10.2331 24.3792 7.13502 21.2734 6.72586 17.3762H7.73443C8.21982 17.3762 8.61334 16.9826 8.61334 16.4972C8.61334 16.0119 8.21982 15.6183 7.73443 15.6183H6.72592C7.13502 11.7211 10.2331 8.61527 14.1212 8.20424V9.23156C14.1212 9.71695 14.5147 10.1105 15.0001 10.1105C15.4854 10.1105 15.879 9.71695 15.879 9.23156V8.20424C19.767 8.61527 22.8651 11.7211 23.2743 15.6183H22.2657C21.7803 15.6183 21.3868 16.0119 21.3868 16.4972C21.3868 16.9826 21.7803 17.3762 22.2657 17.3762H23.2742C22.8651 21.2734 19.767 24.3792 15.879 24.7903Z"
                fill="#B1B8FF" />
              <path
                d="M17.1677 15.9901H15.9277V12.4354C15.9277 11.95 15.5342 11.5565 15.0488 11.5565C14.5634 11.5565 14.1699 11.95 14.1699 12.4354V16.869C14.1699 17.3544 14.5634 17.748 15.0488 17.748H17.1677C17.6531 17.748 18.0466 17.3544 18.0466 16.869C18.0466 16.3837 17.6531 15.9901 17.1677 15.9901Z"
                fill="#B1B8FF" />
            </svg>