           <svg
              class="overview-section-keyfact-icon" width="30" height="30" viewBox="0 0 30 30" fill="none"
              xmlns="http://www.w3.org/2000/svg">
              <path
                d="M29.3533 13.9518L24.5352 11.543L29.3533 9.13403C30.2151 8.70327 30.216 7.46914 29.3533 7.03769L15.5242 0.123597C15.1941 -0.0411989 14.8059 -0.0411989 14.4758 0.123597L0.646695 7.03769C-0.215107 7.46868 -0.216023 8.70282 0.646695 9.13403L5.46478 11.543L0.646695 13.9518C-0.215107 14.3828 -0.216023 15.6167 0.646695 16.0481L5.46478 18.4571L0.646695 20.8659C-0.215107 21.2969 -0.216023 22.5308 0.646695 22.9622L14.4758 29.8763C14.8052 30.0409 15.1934 30.0416 15.5242 29.8763L29.3533 22.9622C30.2151 22.5312 30.216 21.2973 29.3533 20.8659L24.5352 18.4571L29.3533 16.0481C30.2151 15.6174 30.216 14.3832 29.3533 13.9518ZM15 2.48201L26.2085 8.08598L15 13.6897L3.79153 8.08598L15 2.48201ZM26.2085 21.9142L15 27.5179L3.79153 21.9142L8.08544 19.7672L14.4758 22.9622C14.8054 23.1268 15.1934 23.1275 15.5242 22.9622L21.9146 19.7672L26.2085 21.9142ZM15 20.6038L3.79153 15.0001L8.08544 12.8531L14.4758 16.0481C14.8054 16.2127 15.1934 16.2134 15.5242 16.0481L21.9146 12.8531L26.2085 15.0001L15 20.6038Z"
                fill="#B1B8FF" />
            </svg>