<svg  width="30" height="30" viewBox="0 0 30 30" fill="none"
              xmlns="http://www.w3.org/2000/svg">
              <g clip-path="url(#clip0)">
                <path
                  d="M29.9649 2.23969C29.8999 1.04801 28.9521 0.100369 27.7604 0.0353297C25.3559 -0.0960375 20.6506 0.0317556 16.1513 2.35892C13.8576 3.54533 11.4318 5.55679 9.49595 7.87758C9.4721 7.90617 9.4489 7.93494 9.42523 7.96359L5.03187 8.30297C4.30871 8.35886 3.66458 8.73791 3.26462 9.34283L0.267319 13.8763C-0.0360205 14.3351 -0.0842432 14.9093 0.138237 15.4122C0.360776 15.9152 0.818042 16.2657 1.3615 16.3499L5.06292 16.9232C5.04986 16.9951 5.03673 17.067 5.02472 17.139C4.9015 17.8761 5.14572 18.6339 5.6781 19.1662L10.8339 24.3221C11.2753 24.7635 11.8717 25.0068 12.4828 25.0068C12.6087 25.0068 12.7352 24.9964 12.8612 24.9754C12.9332 24.9634 13.0051 24.9503 13.077 24.9372L13.6503 28.6387C13.7345 29.1821 14.085 29.6395 14.5879 29.8619C14.7971 29.9545 15.0185 30.0002 15.239 30.0002C15.5485 30.0002 15.8559 29.9101 16.1238 29.7329L20.6573 26.7356C21.2623 26.3355 21.6413 25.6914 21.697 24.9683L22.0364 20.575C22.0651 20.5513 22.0939 20.5281 22.1225 20.5043C24.4433 18.5684 26.4549 16.1426 27.6412 13.8489C29.9685 9.34945 30.096 4.64408 29.9649 2.23969ZM19.6879 25.2692L15.3513 28.1364L14.7925 24.529C16.6253 23.9902 18.4384 23.1271 20.1657 21.9708L19.9446 24.8328C19.9309 25.0114 19.8372 25.1705 19.6879 25.2692ZM12.0768 23.0791L6.92099 17.9233C6.78945 17.7917 6.72863 17.6068 6.75845 17.4288C6.91173 16.5122 7.14992 15.6397 7.44476 14.8177L15.1808 22.5537C14.1936 22.9073 13.3094 23.1183 12.5714 23.2417C12.393 23.2713 12.2084 23.2107 12.0768 23.0791ZM5.16728 10.0556L8.02923 9.83449C6.87294 11.5618 6.00986 13.3748 5.47097 15.2077L1.86371 14.649L4.73093 10.3123C4.82972 10.1629 4.9888 10.0693 5.16728 10.0556ZM20.9967 19.1544C19.5768 20.3387 18.1985 21.1953 16.928 21.8152L8.18462 13.0718C8.99662 11.4134 9.98761 10.0324 10.8458 9.00357C12.6373 6.85582 14.8654 5.00303 16.9589 3.92021C21.0883 1.78429 25.4389 1.66927 27.6648 1.79045C27.9594 1.8065 28.1937 2.04082 28.2097 2.33549C28.3311 4.56135 28.2158 8.91193 26.0799 13.0413C24.9972 15.1348 23.1444 17.3628 20.9967 19.1544Z"
                  fill="#B1B8FF" />
                <path
                  d="M20.5507 13.8425C21.6758 13.8424 22.8014 13.4141 23.658 12.5575C24.488 11.7275 24.945 10.6239 24.945 9.4502C24.945 8.27645 24.4879 7.17289 23.658 6.34291C21.9446 4.62945 19.1567 4.62957 17.4434 6.34291C16.6133 7.17289 16.1562 8.27645 16.1562 9.4502C16.1562 10.6239 16.6134 11.7275 17.4434 12.5575C18.3001 13.4142 19.4251 13.8426 20.5507 13.8425ZM18.6862 7.5858C19.2002 7.07176 19.8754 6.81477 20.5505 6.81477C21.2258 6.81477 21.901 7.07176 22.4149 7.5858C22.9129 8.08379 23.1872 8.7459 23.1872 9.45014C23.1872 10.1544 22.9129 10.8165 22.4149 11.3145C21.387 12.3426 19.7142 12.3425 18.6862 11.3145C18.1882 10.8165 17.9139 10.1544 17.9139 9.4502C17.9139 8.74596 18.1882 8.08379 18.6862 7.5858Z"
                  fill="#B1B8FF" />
                <path
                  d="M0.896455 24.7229C1.1214 24.7229 1.34634 24.6372 1.5179 24.4655L4.38741 21.596C4.73065 21.2527 4.73065 20.6963 4.38741 20.353C4.04423 20.0098 3.4877 20.0098 3.14446 20.353L0.27501 23.2225C-0.0682324 23.5658 -0.0682324 24.1222 0.27501 24.4655C0.446572 24.6371 0.671514 24.7229 0.896455 24.7229Z"
                  fill="#B1B8FF" />
                <path
                  d="M7.01722 22.9827C6.67403 22.6394 6.11751 22.6394 5.77427 22.9827L0.257432 28.4996C-0.0858105 28.8428 -0.0858105 29.3993 0.257432 29.7425C0.429053 29.9141 0.653936 29.9999 0.878877 29.9999C1.10382 29.9999 1.32876 29.9141 1.50032 29.7424L7.01716 24.2256C7.36046 23.8824 7.36046 23.3259 7.01722 22.9827Z"
                  fill="#B1B8FF" />
                <path
                  d="M8.40428 25.6124L5.53478 28.4819C5.19153 28.8252 5.19153 29.3816 5.53478 29.7249C5.7064 29.8965 5.93134 29.9823 6.15622 29.9823C6.3811 29.9823 6.6061 29.8966 6.77766 29.7249L9.64717 26.8554C9.99042 26.5121 9.99042 25.9557 9.64717 25.6124C9.30399 25.2692 8.74747 25.2692 8.40428 25.6124Z"
                  fill="#B1B8FF" />
              </g>
              <defs>
                <clipPath id="clip0">
                  <rect width="30" height="30" fill="white" />
                </clipPath>
              </defs>
            </svg>