<svg width="31" height="31" viewBox="0 0 31 31" fill="none" xmlns="http://www.w3.org/2000/svg">
<path d="M15.4997 8.05859C13.871 8.05859 12.5459 9.38366 12.5459 11.0124C12.5459 12.6411 13.871 13.9663 15.4997 13.9663C17.1285 13.9663 18.4536 12.6412 18.4536 11.0124C18.4536 9.38366 17.1284 8.05859 15.4997 8.05859Z" fill="black"/>
<path d="M6.71831 0C5.54903 0 4.59766 0.951373 4.59766 2.12065V22.1591C5.21027 21.7658 5.9378 21.5365 6.71831 21.5365H26.4022V0H6.71831ZM21.5565 11.9204H20.1824C20.0582 12.5617 19.8062 13.1579 19.4524 13.6803L20.4248 14.6526L19.1404 15.937L18.168 14.9646C17.6456 15.3184 17.0494 15.5705 16.4082 15.6947V17.0688H14.5918V15.6947C13.9505 15.5705 13.3542 15.3184 12.8319 14.9646L11.8595 15.937L10.5752 14.6526L11.5476 13.6803C11.1938 13.1579 10.9417 12.5617 10.8176 11.9204H9.44346V10.1041H10.8175C10.9417 9.46275 11.1938 8.8666 11.5475 8.34421L10.5751 7.37182L11.8595 6.08744L12.8319 7.05983C13.3542 6.70605 13.9505 6.45393 14.5917 6.32981V4.95576H16.4082V6.32981C17.0495 6.45399 17.6457 6.70605 18.168 7.05983L19.1404 6.08744L20.4248 7.37182L19.4524 8.34421C19.8062 8.8666 20.0583 9.46281 20.1824 10.1041H21.5565V11.9204Z" fill="black"/>
<path d="M6.71831 23.3525C5.54897 23.3525 4.59766 24.3039 4.59766 25.4732C4.59766 26.6425 5.54903 27.5938 6.71831 27.5938H8.53405V25.5746H15.735V27.5938H26.4022V23.3525H6.71831Z" fill="black"/>
<path d="M10.3506 27.3911V30.9998L12.1347 30.1969L13.9189 30.9998V27.3911H10.3506Z" fill="black"/>
</svg>
