<svg width="53" height="53" viewBox="0 0 53 53" fill="none" xmlns="http://www.w3.org/2000/svg">
<g clip-path="url(#clip0)">
<path d="M44.7155 20.0501C46.2082 20.0501 47.4183 18.84 47.4183 17.3473C47.4183 15.8546 46.2082 14.6445 44.7155 14.6445C43.2228 14.6445 42.0127 15.8546 42.0127 17.3473C42.0127 18.84 43.2228 20.0501 44.7155 20.0501Z" fill="#39DDD2"/>
<path d="M31.4284 33.0618C32.9211 33.0618 34.1312 31.8517 34.1312 30.359C34.1312 28.8663 32.9211 27.6562 31.4284 27.6562C29.9357 27.6562 28.7256 28.8663 28.7256 30.359C28.7256 31.8517 29.9357 33.0618 31.4284 33.0618Z" fill="#FEC96B"/>
<path d="M20.7516 22.7527C22.2443 22.7527 23.4544 21.5427 23.4544 20.05C23.4544 18.5572 22.2443 17.3472 20.7516 17.3472C19.2589 17.3472 18.0488 18.5572 18.0488 20.05C18.0488 21.5427 19.2589 22.7527 20.7516 22.7527Z" fill="#A0E557"/>
<path d="M10.3712 33.0672C11.864 33.0672 13.074 31.8571 13.074 30.3644C13.074 28.8717 11.864 27.6616 10.3712 27.6616C8.87854 27.6616 7.66846 28.8717 7.66846 30.3644C7.66846 31.8571 8.87854 33.0672 10.3712 33.0672Z" fill="#FF5D5D"/>
<path d="M3.10547 31.749C2.83322 31.749 2.56615 31.8598 2.37361 32.0523C2.18107 32.2449 2.07031 32.5109 2.07031 32.7842C2.07031 33.0564 2.18097 33.3235 2.37361 33.516C2.56615 33.7085 2.83322 33.8193 3.10547 33.8193C3.37771 33.8193 3.64478 33.7086 3.83722 33.516C4.02976 33.3225 4.14062 33.0564 4.14062 32.7842C4.14062 32.5119 4.02986 32.2449 3.83722 32.0523C3.64478 31.8598 3.37771 31.749 3.10547 31.749Z" fill="black"/>
<path d="M2.07039 28.6104C2.07039 29.182 2.53393 29.6456 3.10554 29.6456C3.67715 29.6456 4.14069 29.182 4.14069 28.6104V9.12417L4.44389 9.42737C4.64606 9.62933 4.91095 9.73046 5.17585 9.73046C5.44074 9.73046 5.70564 9.62933 5.90781 9.42726C6.31203 9.02304 6.31203 8.36758 5.90781 7.96325L3.8375 5.89294C3.43317 5.48881 2.77791 5.48881 2.37348 5.89294L0.303171 7.96325C-0.101057 8.36747 -0.101057 9.02293 0.303171 9.42726C0.707502 9.83139 1.36275 9.83139 1.76719 9.42726L2.07039 9.12417V28.6104Z" fill="black"/>
<path d="M52.6968 43.5725L50.6265 41.5022C50.2222 41.0981 49.5669 41.0981 49.1625 41.5022C48.7583 41.9065 48.7583 42.5619 49.1625 42.9663L49.4657 43.2695H45.7507V28.7427C45.7507 28.1711 45.2872 27.7076 44.7156 27.7076C44.144 27.7076 43.6804 28.1711 43.6804 28.7427V43.2693H32.463V36.6444C32.463 36.0728 31.9994 35.6092 31.4278 35.6092C30.8562 35.6092 30.3927 36.0728 30.3927 36.6444V43.2693H21.7874V26.6577C21.7874 26.0861 21.3239 25.6226 20.7523 25.6226C20.1806 25.6226 19.7171 26.0861 19.7171 26.6577V43.2693H11.4059V36.7996C11.4059 36.228 10.9423 35.7645 10.3707 35.7645C9.79909 35.7645 9.33554 36.228 9.33554 36.7996V43.2693H4.14062V37.3115C4.14062 36.7399 3.67708 36.2764 3.10547 36.2764C2.53385 36.2764 2.07031 36.7399 2.07031 37.3115V44.3045C2.07031 44.8761 2.53385 45.3397 3.10547 45.3397H49.4656L49.1624 45.6429C48.7582 46.0471 48.7582 46.7025 49.1624 47.1069C49.3645 47.3089 49.6294 47.4101 49.8943 47.4101C50.1592 47.4101 50.4241 47.3089 50.6263 47.1069L52.6966 45.0366C53.101 44.6322 53.101 43.9768 52.6968 43.5725Z" fill="black"/>
<path d="M10.3707 34.1023C12.4316 34.1023 14.1084 32.4257 14.1084 30.3647C14.1084 29.7082 13.9377 29.0911 13.6393 28.5544L18.8995 23.2941C19.4461 23.6075 20.0782 23.7877 20.7521 23.7877C21.5083 23.7877 22.2123 23.5613 22.8011 23.1738L28.1653 28.5379C27.863 29.0771 27.6899 29.6981 27.6899 30.3591C27.6899 32.4201 29.3666 34.0968 31.4276 34.0968C33.4885 34.0968 35.1652 32.4201 35.1652 30.3591C35.1652 29.713 35.0003 29.1048 34.7105 28.5741L42.7559 20.5287C43.326 20.8812 43.9971 21.0852 44.7153 21.0852C46.7763 21.0852 48.4529 19.4085 48.4529 17.3475C48.4529 15.2865 46.7763 13.6099 44.7153 13.6099C42.6543 13.6099 40.9777 15.2865 40.9777 17.3475C40.9777 17.9386 41.1162 18.4979 41.3615 18.9953L33.2558 27.1009C32.7149 26.7962 32.0914 26.6214 31.4276 26.6214C30.7785 26.6214 30.1678 26.788 29.6353 27.0801L24.1529 21.5977C24.3685 21.1258 24.4896 20.602 24.4896 20.0501C24.4896 17.9891 22.813 16.3123 20.752 16.3123C18.691 16.3123 17.0143 17.9891 17.0143 20.0501C17.0143 20.6861 17.1743 21.2852 17.4557 21.8099L12.1736 27.092C11.6385 26.7961 11.0239 26.627 10.3704 26.627C8.30945 26.627 6.63281 28.3037 6.63281 30.3647C6.63281 32.4257 8.30966 34.1023 10.3707 34.1023ZM44.7155 15.6801C45.6349 15.6801 46.3828 16.4281 46.3828 17.3474C46.3828 18.2667 45.6348 19.0148 44.7155 19.0148C43.7962 19.0148 43.0482 18.2667 43.0482 17.3474C43.0482 16.4281 43.7961 15.6801 44.7155 15.6801ZM33.0951 30.359C33.0951 31.2784 32.3471 32.0264 31.4278 32.0264C30.5084 32.0264 29.7604 31.2783 29.7604 30.359C29.7604 29.4396 30.5084 28.6916 31.4278 28.6916C32.3471 28.6916 33.0951 29.4395 33.0951 30.359ZM20.7522 18.3825C21.6716 18.3825 22.4195 19.1307 22.4195 20.05C22.4195 20.9693 21.6715 21.7173 20.7522 21.7173C19.8329 21.7173 19.0848 20.9693 19.0848 20.05C19.0848 19.1307 19.8328 18.3825 20.7522 18.3825ZM10.3707 28.6973C10.821 28.6973 11.2296 28.8776 11.53 29.1689C11.5351 29.1741 11.5395 29.1799 11.5447 29.1851C11.5508 29.1912 11.5576 29.1964 11.5639 29.2024C11.8568 29.503 12.0382 29.9128 12.0382 30.3648C12.0382 31.2842 11.2901 32.0321 10.3708 32.0321C9.45143 32.0321 8.70343 31.2841 8.70343 30.3648C8.70343 29.4454 9.45123 28.6973 10.3707 28.6973Z" fill="black"/>
<path d="M43.984 23.6978C43.7915 23.8904 43.6807 24.1574 43.6807 24.4297C43.6807 24.7019 43.7914 24.969 43.984 25.1614C44.1765 25.354 44.4436 25.4648 44.7158 25.4648C44.9881 25.4648 45.2551 25.3541 45.4477 25.1614C45.6401 24.969 45.751 24.7019 45.751 24.4297C45.751 24.1574 45.6402 23.8904 45.4477 23.6978C45.2551 23.5053 44.9881 23.3945 44.7158 23.3945C44.4436 23.3945 44.1765 23.5052 43.984 23.6978Z" fill="black"/>
</g>
<defs>
<clipPath id="clip0">
<rect width="53" height="53" fill="white"/>
</clipPath>
</defs>
</svg>



