<svg width="19" height="22" viewBox="0 0 19 22" fill="none" xmlns="http://www.w3.org/2000/svg">
<path d="M9.33429 21.2805C11.0242 21.2805 12.4382 20.0763 12.7629 18.4805H5.9043C6.23038 20.0763 7.64442 21.2805 9.33429 21.2805V21.2805Z" fill="#6B68FF"/>
<path d="M15.8799 10.0802C15.8754 10.0802 15.8727 8.96017 15.8686 8.96017C12.2663 8.96017 9.33468 7.14991 9.33468 3.54627C9.33468 2.55641 10.4324 0.842968 10.8285 8.07193e-05C11.3885 8.07193e-05 9.91972 8.07193e-05 9.70848 8.07193e-05C6.10075 8.07193e-05 2.80077 3.66932 2.80077 7.27877V9.88126C2.80077 11.728 1.99138 13.4712 0.571868 14.6723C0.0988126 15.077 -0.111396 15.721 0.058138 16.3482C0.258435 17.0803 0.979298 17.5465 1.7381 17.5465H16.9285C17.7236 17.5465 18.4742 17.0314 18.6351 16.2528C18.7596 15.6509 18.5456 15.0476 18.0777 14.6556C16.7197 13.516 15.9359 11.8442 15.8799 10.0802Z" fill="#747D88"/>
<path d="M18.1087 3.92007C18.1087 6.08513 16.3537 7.84015 14.1886 7.84015C12.0236 7.84015 10.2686 6.08513 10.2686 3.92007C10.2686 1.75502 12.0236 0 14.1886 0C16.3537 0 18.1087 1.75502 18.1087 3.92007Z" fill="#6B68FF"/>
</svg>
