<svg width="30" class="nav__icon"height="30" viewBox="0 0 30 30" fill="none" xmlns="http://www.w3.org/2000/svg">
                <g clip-path="url(#clip0)">
                <path d="M26.3789 23.8742C26.2907 23.817 25.627 23.352 24.9625 21.9455C23.742 19.3625 23.4858 15.724 23.4858 13.1265C23.4858 13.1152 23.4856 13.104 23.4852 13.0927C23.4719 9.65977 21.4163 6.70043 18.4746 5.37264V3.34195C18.4746 1.49918 16.9779 0 15.1382 0H14.8617C13.0219 0 11.5252 1.49918 11.5252 3.34195V5.37252C8.57374 6.70459 6.51399 9.67904 6.51399 13.1265C6.51399 15.724 6.25782 19.3625 5.03737 21.9455C4.37286 23.352 3.70917 23.8169 3.62093 23.8742C3.24933 24.0462 3.0661 24.4434 3.15159 24.846C3.2379 25.2526 3.61794 25.5329 4.03296 25.5329H10.4752C10.5111 28.0021 12.5264 30 14.9999 30C17.4735 30 19.4888 28.0021 19.5247 25.5329H25.9669C26.3819 25.5329 26.762 25.2526 26.8483 24.846C26.9337 24.4434 26.7505 24.0461 26.3789 23.8742ZM13.2831 3.34195C13.2831 2.47002 13.9913 1.76068 14.8617 1.76068H15.1382C16.0087 1.76068 16.7169 2.47002 16.7169 3.34195V4.80193C16.1621 4.68727 15.5878 4.62691 14.9997 4.62691C14.4118 4.62691 13.8377 4.68721 13.2832 4.80176V3.34195H13.2831ZM14.9999 28.2393C13.4957 28.2393 12.2687 27.0313 12.233 25.533H17.7669C17.7312 27.0312 16.5042 28.2393 14.9999 28.2393ZM18.539 23.7722C18.5388 23.7722 6.03599 23.7722 6.03599 23.7722C6.18804 23.5352 6.34278 23.2669 6.49659 22.9637C7.67456 20.6409 8.27186 17.3312 8.27186 13.1265C8.27186 9.41062 11.29 6.3876 14.9997 6.3876C18.7093 6.3876 21.7274 9.41062 21.7274 13.1294C21.7274 13.1402 21.7276 13.151 21.728 13.1618C21.7314 17.3496 22.3286 20.6474 23.5033 22.9637C23.6571 23.267 23.8119 23.5352 23.9639 23.7722H18.539Z" fill="#3B3A87"/>
                </g>
                <defs>
                <clipPath id="clip0">
                <rect width="30" height="30" fill="white"/>
                </clipPath>
                </defs>
              </svg> 