<svg width="32" height="28" viewBox="0 0 32 28" fill="none" xmlns="http://www.w3.org/2000/svg">
<path d="M0 0.897461V10.2842H10.0417V0.897461H0ZM6.6145 8.26803H3.427V6.28492H6.6145V8.26803ZM6.6145 4.89674H3.427V2.91363H6.6145V4.89674Z" fill="black"/>
<path d="M11.917 0.897461V10.2842H20.0837V0.897461H11.917ZM17.594 8.26803H14.4065V6.28492H17.594V8.26803ZM17.594 4.89674H14.4065V2.91363H17.594V4.89674Z" fill="black"/>
<path d="M21.958 0.897461V10.2842H31.9998V0.897461H21.958ZM28.5728 8.26803H25.3853V6.28492H28.5728V8.26803ZM28.5728 4.89674H25.3853V2.91363H28.5728V4.89674Z" fill="black"/>
<path d="M0 12.2676V28.0003H32V12.2676H0ZM20.3203 22.9766L16.8828 19.3409L11.9976 24.5081L9.75269 22.1338L6.69678 25.3659L5.37085 23.9636L9.75244 19.3293L11.9973 21.7034L16.8828 16.5364L20.3203 20.1721L25.3032 14.9019L26.6289 16.3043L20.3203 22.9766Z" fill="black"/>
</svg>
