 <svg  width="30" height="40" viewBox="0 0 30 40" fill="none" xmlns="http://www.w3.org/2000/svg">
          <path d="M21.2686 0H1.0207C0.456977 0 0 0.467857 0 1.37571V39.2857C0 39.5321 0.456977 40 1.0207 40H28.9793C29.543 40 30 39.5321 30 39.2857V9.27C30 8.77286 29.9351 8.61286 29.8207 8.495L21.7026 0.183571C21.5874 0.0664286 21.4312 0 21.2686 0Z" fill="white"/>
          <path d="M21.5 0L21.5818 8.7H30L21.5 0Z" fill="#EBEAE3"/>
          <path d="M8.93887 25.8027C8.6903 25.8027 8.45173 25.7219 8.24816 25.5698C7.50459 25.0119 7.40459 24.3912 7.45173 23.9684C7.58173 22.8055 9.01959 21.5884 11.7267 20.3484C12.801 17.9941 13.8232 15.0934 14.4324 12.6698C13.7196 11.1184 13.0267 9.10551 13.5317 7.9248C13.7089 7.51122 13.9296 7.19408 14.3417 7.05694C14.5046 7.00265 14.916 6.93408 15.0674 6.93408C15.4274 6.93408 15.7439 7.39765 15.9682 7.68337C16.1789 7.95194 16.6567 8.52122 15.7017 12.5419C16.6646 14.5305 18.0289 16.5562 19.336 17.9434C20.2724 17.7741 21.0782 17.6877 21.7346 17.6877C22.8532 17.6877 23.531 17.9484 23.8074 18.4855C24.036 18.9298 23.9424 19.4491 23.5289 20.0284C23.131 20.5848 22.5824 20.8791 21.9432 20.8791C21.0746 20.8791 20.0632 20.3305 18.9353 19.2469C16.9089 19.6705 14.5424 20.4262 12.6296 21.2627C12.0324 22.5298 11.4603 23.5505 10.9274 24.2991C10.1953 25.3241 9.56387 25.8027 8.93887 25.8027ZM10.8403 22.1412C9.31387 22.9991 8.69173 23.7041 8.64673 24.1012C8.63959 24.1669 8.6203 24.3398 8.95459 24.5955C9.06102 24.5619 9.68245 24.2784 10.8403 22.1412ZM20.581 18.9684C21.1632 19.4162 21.3053 19.6427 21.686 19.6427C21.8532 19.6427 22.3296 19.6355 22.5503 19.3277C22.6567 19.1784 22.6982 19.0827 22.7146 19.0312C22.6267 18.9848 22.5103 18.8905 21.8753 18.8905C21.5146 18.8912 21.061 18.9069 20.581 18.9684ZM15.2453 14.2669C14.7346 16.0341 14.0603 17.9419 13.3353 19.6698C14.8282 19.0905 16.451 18.5848 17.9753 18.2269C17.011 17.1069 16.0474 15.7084 15.2453 14.2669ZM14.8117 8.22265C14.7417 8.24622 13.8617 9.47765 14.8803 10.5198C15.5582 9.00908 14.8424 8.21265 14.8117 8.22265Z" fill="#CC4B4C"/>
          <path d="M28.946 40H0.842119C0.278868 40 0.000383485 39.8263 0.000383485 39.3935L0 31H30V39.3616C30 39.7944 29.5092 40 28.946 40Z" fill="#CC4B4C"/>
          <path d="M12.046 34.626C12.046 34.8873 11.983 35.1323 11.857 35.361C11.7357 35.5897 11.542 35.774 11.276 35.914C11.0147 36.054 10.6833 36.124 10.282 36.124H9.463V38H8.483V33.114H10.282C10.66 33.114 10.982 33.1793 11.248 33.31C11.514 33.4407 11.7123 33.6203 11.843 33.849C11.9783 34.0777 12.046 34.3367 12.046 34.626ZM10.24 35.333C10.5107 35.333 10.7113 35.2723 10.842 35.151C10.9727 35.025 11.038 34.85 11.038 34.626C11.038 34.15 10.772 33.912 10.24 33.912H9.463V35.333H10.24ZM14.5198 33.114C15.0331 33.114 15.4835 33.2143 15.8708 33.415C16.2628 33.6157 16.5638 33.9027 16.7738 34.276C16.9885 34.6447 17.0958 35.074 17.0958 35.564C17.0958 36.054 16.9885 36.4833 16.7738 36.852C16.5638 37.216 16.2628 37.4983 15.8708 37.699C15.4835 37.8997 15.0331 38 14.5198 38H12.8118V33.114H14.5198ZM14.4848 37.167C14.9981 37.167 15.3948 37.027 15.6748 36.747C15.9548 36.467 16.0948 36.0727 16.0948 35.564C16.0948 35.0553 15.9548 34.6587 15.6748 34.374C15.3948 34.0847 14.9981 33.94 14.4848 33.94H13.7918V37.167H14.4848ZM20.9164 33.114V33.905H18.8794V35.158H20.4404V35.935H18.8794V38H17.8994V33.114H20.9164Z" fill="white"/>
          </svg>