<svg width="36" height="31" viewBox="0 0 36 31" fill="none" xmlns="http://www.w3.org/2000/svg">
<path d="M24.8594 26.0156C24.8594 24.6651 23.9245 23.5372 22.6712 23.2215C22.8122 22.7527 23.0735 22.3237 23.4378 21.9688H33.5313V0L32.375 1.15625V20.8125H24.5796L30.5776 14.7601C30.991 14.3433 31.2188 13.79 31.2188 13.198C31.2188 11.977 30.2261 10.9844 29.0051 10.9844C28.4143 10.9844 27.8581 11.2145 27.4401 11.633L22.9146 16.1586C22.4128 16.6604 21.8011 17.0108 21.1351 17.1946C22.004 16.3534 22.5469 15.1769 22.5469 13.875C22.5469 11.3249 20.472 9.25 17.9219 9.25C15.3718 9.25 13.2969 11.3249 13.2969 13.875C13.2969 15.3192 13.9629 16.6095 15.0029 17.4588C13.0494 17.8288 11.4139 19.096 10.5334 20.8125H3.46875V1.15625H32.375L33.5313 0H2.3125V21.9688H10.079C9.96803 22.3596 9.88883 22.7637 9.85472 23.1805C8.52387 23.4395 7.51563 24.6108 7.51563 26.0156H0V30.0625H7.51563H24.8594H35.8438V26.0156H24.8594ZM7.51563 28.9063H1.15625V27.1719H7.51563V28.9063ZM14.4531 13.875C14.4531 11.962 16.0089 10.4063 17.9219 10.4063C19.8349 10.4063 21.3906 11.962 21.3906 13.875C21.3906 15.788 19.8349 17.3438 17.9219 17.3438C16.0089 17.3438 14.4531 15.788 14.4531 13.875ZM16.1875 18.5H18.5H20.0534C21.4432 18.5 22.7498 17.9589 23.7326 16.9761L28.2582 12.4505C28.4576 12.2505 28.723 12.1406 29.0051 12.1406C29.5884 12.1406 30.0625 12.6147 30.0625 13.2021C30.0625 13.4825 29.9538 13.7467 29.7561 13.9461L22.67 21.0975C22.0861 21.645 21.693 22.3532 21.5109 23.125H11.0185C11.3075 20.5275 13.5143 18.5 16.1875 18.5ZM23.7031 28.9063H8.67188V26.0156C8.67188 25.0594 9.45003 24.2813 10.4063 24.2813H21.9688C22.925 24.2813 23.7031 25.0594 23.7031 26.0156V28.9063ZM34.6875 28.9063H24.8594V27.1719H34.6875V28.9063Z" fill="black"/>
<path d="M8.09375 12.7188H4.625V8.09375H8.09375V12.7188ZM5.78125 11.5625H6.9375V9.25H5.78125V11.5625Z" fill="black"/>
<path d="M12.7188 12.7188H9.25V2.3125H12.7188V12.7188ZM10.4062 11.5625H11.5625V3.46875H10.4062V11.5625Z" fill="black"/>
<path d="M15.0312 11.7943H13.875V5.78125H17.3438V9.99694H16.1875V6.9375H15.0312V11.7943Z" fill="black"/>
<path d="M25.3223 1.96582C22.7722 1.96582 20.6973 4.04071 20.6973 6.59082C20.6973 9.14093 22.7722 11.2158 25.3223 11.2158C27.8724 11.2158 29.9473 9.14093 29.9473 6.59082C29.9473 4.04071 27.8724 1.96582 25.3223 1.96582ZM28.791 6.59082C28.791 7.33892 28.5505 8.03035 28.1464 8.59749L25.9004 6.35148V3.1741C27.5382 3.45102 28.791 4.87552 28.791 6.59082ZM24.7441 3.1741V6.0127H21.9055C22.1507 4.56334 23.2948 3.41923 24.7441 3.1741ZM21.9055 7.16895H25.0829L27.3289 9.41496C26.7618 9.81907 26.0704 10.0596 25.3223 10.0596C23.607 10.0596 22.1825 8.80677 21.9055 7.16895V7.16895Z" fill="black"/>
<path d="M4.625 13.875H5.78125V15.0312H4.625V13.875Z" fill="black"/>
<path d="M6.9375 13.875H8.09375V15.0312H6.9375V13.875Z" fill="black"/>
<path d="M9.25 13.875H10.4062V15.0312H9.25V13.875Z" fill="black"/>
<path d="M4.625 16.1875H10.4062V17.3438H4.625V16.1875Z" fill="black"/>
<path d="M4.625 18.5H10.4062V19.6562H4.625V18.5Z" fill="black"/>
</svg>
