<svg width="18" height="20" viewBox="0 0 18 20" fill="none" xmlns="http://www.w3.org/2000/svg">
<path d="M12.6981 19.4127H1.58223V4.93125C1.58223 4.7691 1.45078 4.6377 1.28867 4.6377C1.12656 4.6377 0.995117 4.7691 0.995117 4.93125V19.5105C0.995117 19.7803 1.21461 19.9998 1.48438 19.9998H12.6981C12.8602 19.9998 12.9916 19.8684 12.9917 19.7062C12.9917 19.5441 12.8602 19.4127 12.6981 19.4127Z" fill="black"/>
<path d="M16.9205 2.65434L14.4254 0.0889063C14.3701 0.0320703 14.2942 0 14.215 0H1.48438C1.21461 0 0.995156 0.219531 0.995117 0.489297V5.35714C0.995117 5.51929 1.33733 5.35714 1.49944 5.35714C1.66155 5.35714 1.58223 5.3139 1.58223 5.15175V0.587148H14.091L16.4166 2.97824V19.4129H11.9985C11.8364 19.4129 12.5709 19.4807 12.5709 19.6429C12.5709 19.805 11.8364 20 11.9985 20H16.5144C16.7842 20 17.0037 19.7805 17.0037 19.5108V2.85898C17.0037 2.78254 16.9739 2.70914 16.9205 2.65434Z" fill="black"/>
<path d="M16.921 2.65432L14.4258 0.0888866C14.3425 0.00326167 14.2156 -0.023379 14.105 0.021582C13.9943 0.0665429 13.9219 0.174082 13.9219 0.293574V2.85896C13.9219 3.02111 14.0533 3.15252 14.2154 3.15252H16.7106C16.8286 3.15252 16.9351 3.08189 16.981 2.97318C17.0269 2.86451 17.0032 2.73885 16.921 2.65432ZM14.509 2.56541V1.01635L16.0156 2.56541H14.509Z" fill="black"/>
<path d="M10.359 1.55859H3.28613C3.01633 1.55859 2.79688 1.77809 2.79688 2.04785V3.67023C2.79688 3.94004 3.01637 4.15949 3.28613 4.15949H10.359C10.6288 4.15949 10.8483 3.94 10.8483 3.67027V2.04781C10.8483 1.77801 10.6288 1.55859 10.359 1.55859ZM10.2612 3.57234H3.38398V2.14566H10.2612V3.57234Z" fill="black"/>
<path d="M5.72825 5.69605C5.59923 5.59804 5.41505 5.62304 5.31692 5.75214L4.01993 7.45871L3.6304 7.11785C3.50841 7.01105 3.32298 7.02343 3.21618 7.14546C3.10942 7.2675 3.12181 7.45293 3.2438 7.55968L3.87001 8.10761C3.92376 8.1546 3.99255 8.18023 4.06329 8.18023C4.07313 8.18023 4.08302 8.17972 4.09294 8.17878C4.17388 8.17054 4.24782 8.12914 4.29704 8.06433L5.78435 6.10738C5.88243 5.97832 5.85731 5.79414 5.72825 5.69605Z" fill="black"/>
<path d="M14.564 5.63574H7.17051C7.0084 5.63574 6.87695 5.76715 6.87695 5.9293C6.87695 6.09145 7.0084 6.22285 7.17051 6.22285H14.564C14.7261 6.22285 14.8575 6.09145 14.8575 5.9293C14.8575 5.76715 14.7261 5.63574 14.564 5.63574Z" fill="black"/>
<path d="M11.9707 6.61426H7.17051C7.0084 6.61426 6.87695 6.74566 6.87695 6.90781C6.87695 7.06996 7.0084 7.20137 7.17051 7.20137H11.9707C12.1328 7.20137 12.2643 7.06996 12.2643 6.90781C12.2643 6.74566 12.1328 6.61426 11.9707 6.61426Z" fill="black"/>
<path d="M13.0666 7.59326H7.17051C7.0084 7.59326 6.87695 7.72467 6.87695 7.88682C6.87695 8.04896 7.0084 8.18037 7.17051 8.18037H13.0666C13.2287 8.18037 13.3602 8.04896 13.3602 7.88682C13.3602 7.72467 13.2287 7.59326 13.0666 7.59326Z" fill="black"/>
<path d="M5.72825 9.68777C5.59923 9.58972 5.41505 9.61476 5.31692 9.74386L4.01993 11.4504L3.6304 11.1096C3.50841 11.0028 3.32298 11.0152 3.21618 11.1372C3.10942 11.2592 3.12181 11.4446 3.2438 11.5514L3.87001 12.0993C3.92376 12.1463 3.99255 12.1719 4.06329 12.1719C4.07313 12.1719 4.08302 12.1714 4.09294 12.1705C4.17388 12.1623 4.24782 12.1209 4.29704 12.0561L5.78435 10.0991C5.88243 9.97003 5.85731 9.78593 5.72825 9.68777Z" fill="black"/>
<path d="M14.564 9.62793H7.17051C7.0084 9.62793 6.87695 9.75934 6.87695 9.92148C6.87695 10.0836 7.0084 10.215 7.17051 10.215H14.564C14.7261 10.215 14.8575 10.0836 14.8575 9.92148C14.8575 9.75934 14.7261 9.62793 14.564 9.62793Z" fill="black"/>
<path d="M11.9707 10.6069H7.17051C7.0084 10.6069 6.87695 10.7383 6.87695 10.9005C6.87695 11.0626 7.0084 11.194 7.17051 11.194H11.9707C12.1328 11.194 12.2643 11.0626 12.2643 10.9005C12.2643 10.7383 12.1328 10.6069 11.9707 10.6069Z" fill="black"/>
<path d="M13.0666 11.585H7.17051C7.0084 11.585 6.87695 11.7164 6.87695 11.8785C6.87695 12.0407 7.0084 12.1721 7.17051 12.1721H13.0666C13.2287 12.1721 13.3602 12.0407 13.3602 11.8785C13.3602 11.7164 13.2287 11.585 13.0666 11.585Z" fill="black"/>
<path d="M14.564 13.6206H7.17051C7.0084 13.6206 6.87695 13.752 6.87695 13.9142C6.87695 14.0763 7.0084 14.2077 7.17051 14.2077H14.564C14.7261 14.2077 14.8575 14.0763 14.8575 13.9142C14.8575 13.752 14.7261 13.6206 14.564 13.6206Z" fill="black"/>
<path d="M11.9707 14.5991H7.17051C7.0084 14.5991 6.87695 14.7305 6.87695 14.8927C6.87695 15.0548 7.0084 15.1862 7.17051 15.1862H11.9707C12.1328 15.1862 12.2643 15.0548 12.2643 14.8927C12.2643 14.7305 12.1328 14.5991 11.9707 14.5991Z" fill="black"/>
<path d="M13.0666 15.5771H7.17051C7.0084 15.5771 6.87695 15.7086 6.87695 15.8707C6.87695 16.0329 7.0084 16.1643 7.17051 16.1643H13.0666C13.2287 16.1643 13.3602 16.0329 13.3602 15.8707C13.3602 15.7086 13.2287 15.5771 13.0666 15.5771Z" fill="black"/>
<path d="M5.1984 13.6206H3.63281C3.36301 13.6206 3.14355 13.8401 3.14355 14.1099V15.6754C3.14355 15.9452 3.36305 16.1647 3.63281 16.1647H5.1984C5.4682 16.1647 5.68766 15.9452 5.68766 15.6755V14.1099C5.68766 13.8401 5.46816 13.6206 5.1984 13.6206ZM5.10059 15.5776H3.7307V14.2077H5.10059V15.5776Z" fill="black"/>
</svg>
