<svg width="24" height="28" viewBox="0 0 24 28" fill="none" xmlns="http://www.w3.org/2000/svg">
<path d="M23.0896 3.71607L19.5963 0.124469C19.5189 0.0448984 19.4127 0 19.3017 0H1.47891C1.10123 0 0.794 0.307344 0.793945 0.685016V7.5C0.793945 7.72701 1.27305 7.5 1.5 7.5C1.72695 7.5 1.6159 7.43946 1.6159 7.21245V0.822008H19.1282L22.384 4.16954V27.178H16.1987C15.9717 27.178 17 27.273 17 27.5C17 27.727 15.9717 28 16.1987 28H22.521C22.8987 28 23.2059 27.6928 23.2059 27.3151V4.00258C23.2059 3.89555 23.1642 3.7928 23.0896 3.71607Z" fill="black"/>
</svg>
