<svg width="26" height="31" viewBox="0 0 26 31" fill="none" xmlns="http://www.w3.org/2000/svg">
<path d="M19.2208 30.0902H1.71837V7.64397C1.71837 7.39264 1.5114 7.18896 1.25616 7.18896C1.00091 7.18896 0.793945 7.39264 0.793945 7.64397V30.2419C0.793945 30.6601 1.13954 31.0002 1.5643 31.0002H19.2208C19.476 31.0002 19.6829 30.7966 19.683 30.5452C19.683 30.2939 19.476 30.0902 19.2208 30.0902Z" fill="black"/>
<path d="M25.8691 4.11422L21.9404 0.137805C21.8534 0.049709 21.7339 0 21.6091 0H1.5643C1.13954 0 0.794007 0.340273 0.793945 0.75841V8.30357C0.793945 8.5549 1.33278 8.30357 1.58802 8.30357C1.84327 8.30357 1.71837 8.23655 1.71837 7.98522V0.91008H21.4139L25.0756 4.61628V30.09H18.1192C17.8639 30.09 19.0204 30.1951 19.0204 30.4464C19.0204 30.6978 17.8639 31 18.1192 31H25.2296C25.6545 31 26 30.6598 26 30.2417V4.43143C26 4.31294 25.9531 4.19917 25.8691 4.11422Z" fill="black"/>
<path d="M25.8687 4.11419L21.94 0.137774C21.8088 0.00505559 21.609 -0.0362374 21.4348 0.0334521C21.2605 0.103141 21.1465 0.269827 21.1465 0.45504V4.43139C21.1465 4.68272 21.3535 4.8864 21.6087 4.8864H25.5374C25.7232 4.8864 25.8909 4.77694 25.9632 4.60843C26.0354 4.43999 25.9982 4.24521 25.8687 4.11419ZM22.0709 3.97638V1.57534L24.4431 3.97638H22.0709Z" fill="black"/>
<path d="M15.5368 2.41553H4.40024C3.97542 2.41553 3.62988 2.75574 3.62988 3.17388V5.68857C3.62988 6.10677 3.97548 6.44692 4.40024 6.44692H15.5368C15.9615 6.44692 16.3071 6.10671 16.3071 5.68863V3.17382C16.3071 2.75562 15.9615 2.41553 15.5368 2.41553ZM15.3827 5.53684H4.55431V3.32549H15.3827V5.53684Z" fill="black"/>
<path d="M8.24548 8.82856C8.04233 8.67665 7.75233 8.7154 7.59783 8.91551L5.55567 11.5607L4.94234 11.0323C4.75026 10.8668 4.45829 10.886 4.29014 11.0752C4.12204 11.2643 4.14154 11.5517 4.33362 11.7172L5.31961 12.5665C5.40424 12.6393 5.51255 12.679 5.62394 12.679C5.63944 12.679 5.655 12.6783 5.67062 12.6768C5.79806 12.664 5.91449 12.5998 5.99199 12.4994L8.3338 9.46612C8.48824 9.26607 8.4487 8.98059 8.24548 8.82856Z" fill="black"/>
<path d="M22.1562 8.73535H10.5149C10.2597 8.73535 10.0527 8.93903 10.0527 9.19036C10.0527 9.44169 10.2597 9.64537 10.5149 9.64537H22.1562C22.4115 9.64537 22.6185 9.44169 22.6185 9.19036C22.6185 8.93903 22.4115 8.73535 22.1562 8.73535Z" fill="black"/>
<path d="M18.073 10.252H10.5149C10.2597 10.252 10.0527 10.4556 10.0527 10.707C10.0527 10.9583 10.2597 11.162 10.5149 11.162H18.073C18.3283 11.162 18.5352 10.9583 18.5352 10.707C18.5352 10.4556 18.3283 10.252 18.073 10.252Z" fill="black"/>
<path d="M19.7986 11.7686H10.5149C10.2597 11.7686 10.0527 11.9722 10.0527 12.2236C10.0527 12.4749 10.2597 12.6786 10.5149 12.6786H19.7986C20.0538 12.6786 20.2608 12.4749 20.2608 12.2236C20.2608 11.9722 20.0538 11.7686 19.7986 11.7686Z" fill="black"/>
<path d="M8.24548 15.0166C8.04233 14.8646 7.75233 14.9034 7.59783 15.1035L5.55567 17.7487L4.94234 17.2204C4.75026 17.0549 4.45829 17.0741 4.29014 17.2632C4.12204 17.4523 4.14154 17.7397 4.33362 17.9052L5.31961 18.7545C5.40424 18.8273 5.51255 18.8671 5.62394 18.8671C5.63944 18.8671 5.655 18.8663 5.67062 18.8648C5.79806 18.852 5.91449 18.7879 5.99199 18.6874L8.3338 15.6541C8.48824 15.4541 8.4487 15.1687 8.24548 15.0166Z" fill="black"/>
<path d="M22.1562 14.9238H10.5149C10.2597 14.9238 10.0527 15.1275 10.0527 15.3788C10.0527 15.6302 10.2597 15.8338 10.5149 15.8338H22.1562C22.4115 15.8338 22.6185 15.6302 22.6185 15.3788C22.6185 15.1275 22.4115 14.9238 22.1562 14.9238Z" fill="black"/>
<path d="M18.073 16.4404H10.5149C10.2597 16.4404 10.0527 16.6441 10.0527 16.8954C10.0527 17.1468 10.2597 17.3505 10.5149 17.3505H18.073C18.3283 17.3505 18.5352 17.1468 18.5352 16.8954C18.5352 16.6441 18.3283 16.4404 18.073 16.4404Z" fill="black"/>
<path d="M19.7986 17.9565H10.5149C10.2597 17.9565 10.0527 18.1602 10.0527 18.4115C10.0527 18.6629 10.2597 18.8666 10.5149 18.8666H19.7986C20.0538 18.8666 20.2608 18.6629 20.2608 18.4115C20.2608 18.1602 20.0538 17.9565 19.7986 17.9565Z" fill="black"/>
<path d="M22.1562 21.1113H10.5149C10.2597 21.1113 10.0527 21.315 10.0527 21.5663C10.0527 21.8177 10.2597 22.0213 10.5149 22.0213H22.1562C22.4115 22.0213 22.6184 21.8177 22.6185 21.5663C22.6185 21.315 22.4115 21.1113 22.1562 21.1113Z" fill="black"/>
<path d="M18.073 22.6284H10.5149C10.2597 22.6284 10.0527 22.8321 10.0527 23.0834C10.0527 23.3348 10.2597 23.5384 10.5149 23.5384H18.073C18.3283 23.5384 18.5352 23.3348 18.5352 23.0834C18.5352 22.8321 18.3283 22.6284 18.073 22.6284Z" fill="black"/>
<path d="M19.7986 24.145H10.5149C10.2597 24.145 10.0527 24.3487 10.0527 24.6C10.0527 24.8514 10.2597 25.055 10.5149 25.055H19.7986C20.0538 25.055 20.2608 24.8514 20.2608 24.6C20.2608 24.3487 20.0538 24.145 19.7986 24.145Z" fill="black"/>
<path d="M7.41121 21.1113H4.94613C4.52132 21.1113 4.17578 21.4515 4.17578 21.8697V24.2963C4.17578 24.7145 4.52138 25.0546 4.94613 25.0546H7.41121C7.83602 25.0546 8.18156 24.7145 8.18156 24.2963V21.8697C8.18156 21.4515 7.83596 21.1113 7.41121 21.1113ZM7.2572 24.1447H5.10027V22.0213H7.2572V24.1447Z" fill="black"/>
</svg>
