<svg width="24" height="28" viewBox="0 0 24 28" fill="none" xmlns="http://www.w3.org/2000/svg">
<path d="M17.1782 27.1782H1.6159V6.90414C1.6159 6.67713 1.43187 6.49316 1.20492 6.49316C0.977969 6.49316 0.793945 6.67713 0.793945 6.90414V27.3152C0.793945 27.6929 1.10123 28.0001 1.47891 28.0001H17.1782C17.4051 28.0001 17.5891 27.8161 17.5891 27.5891C17.5891 27.3621 17.4051 27.1782 17.1782 27.1782Z" fill="black"/>
<path d="M23.0896 3.71607L19.5963 0.124469C19.5189 0.0448984 19.4127 0 19.3017 0H1.47891C1.10123 0 0.794 0.307344 0.793945 0.685016V7.5C0.793945 7.72701 1.27305 7.5 1.5 7.5C1.72695 7.5 1.6159 7.43946 1.6159 7.21245V0.822008H19.1282L22.384 4.16954V27.178H16.1987C15.9717 27.178 17 27.273 17 27.5C17 27.727 15.9717 28 16.1987 28H22.521C22.8987 28 23.2059 27.6928 23.2059 27.3151V4.00258C23.2059 3.89555 23.1642 3.7928 23.0896 3.71607Z" fill="black"/>
<path d="M23.0894 3.71604L19.5961 0.124441C19.4795 0.00456634 19.3019 -0.0327305 19.1469 0.0302148C18.992 0.0931601 18.8906 0.243715 18.8906 0.411004V4.00255C18.8906 4.22956 19.0746 4.41353 19.3016 4.41353H22.7948C22.96 4.41353 23.1092 4.31465 23.1734 4.16246C23.2376 4.01032 23.2045 3.83439 23.0894 3.71604ZM19.7126 3.59157V1.42289L21.8218 3.59157H19.7126Z" fill="black"/>
<path d="M13.9024 2.18164H4.00039C3.62266 2.18164 3.31543 2.48893 3.31543 2.8666V5.13794C3.31543 5.51566 3.62272 5.8229 4.00039 5.8229H13.9024C14.2801 5.8229 14.5874 5.51561 14.5874 5.13799V2.86655C14.5874 2.48882 14.2801 2.18164 13.9024 2.18164ZM13.7654 5.00089H4.13738V3.00354H13.7654V5.00089Z" fill="black"/>
<path d="M7.41936 7.97437C7.23873 7.83716 6.98087 7.87216 6.8435 8.0529L5.02771 10.4421L4.48237 9.96489C4.31158 9.81537 4.05198 9.83271 3.90246 10.0036C3.753 10.1744 3.77033 10.434 3.94112 10.5835L4.81782 11.3506C4.89307 11.4163 4.98937 11.4522 5.08841 11.4522C5.10219 11.4522 5.11603 11.4515 5.12992 11.4502C5.24323 11.4387 5.34676 11.3807 5.41566 11.29L7.49789 8.55023C7.63521 8.36955 7.60005 8.11169 7.41936 7.97437Z" fill="black"/>
<path d="M19.7882 7.89014H9.43734C9.21039 7.89014 9.02637 8.07411 9.02637 8.30111C9.02637 8.52812 9.21039 8.71209 9.43734 8.71209H19.7882C20.0152 8.71209 20.1992 8.52812 20.1992 8.30111C20.1992 8.07411 20.0152 7.89014 19.7882 7.89014Z" fill="black"/>
<path d="M16.1576 9.25977H9.43734C9.21039 9.25977 9.02637 9.44373 9.02637 9.67074C9.02637 9.89775 9.21039 10.0817 9.43734 10.0817H16.1576C16.3846 10.0817 16.5686 9.89775 16.5686 9.67074C16.5686 9.44373 16.3846 9.25977 16.1576 9.25977Z" fill="black"/>
<path d="M17.6919 10.6299H9.43734C9.21039 10.6299 9.02637 10.8139 9.02637 11.0409C9.02637 11.2679 9.21039 11.4518 9.43734 11.4518H17.6919C17.9188 11.4518 18.1029 11.2679 18.1029 11.0409C18.1029 10.8139 17.9188 10.6299 17.6919 10.6299Z" fill="black"/>
<path d="M7.41936 13.5633C7.23873 13.426 6.98087 13.4611 6.8435 13.6418L5.02771 16.031L4.48237 15.5538C4.31158 15.4043 4.05198 15.4217 3.90246 15.5924C3.753 15.7633 3.77033 16.0229 3.94112 16.1724L4.81782 16.9395C4.89307 17.0052 4.98937 17.0411 5.08841 17.0411C5.10219 17.0411 5.11603 17.0404 5.12992 17.0391C5.24323 17.0276 5.34676 16.9696 5.41566 16.8789L7.49789 14.1391C7.63521 13.9584 7.60005 13.7007 7.41936 13.5633Z" fill="black"/>
<path d="M19.7882 13.4795H9.43734C9.21039 13.4795 9.02637 13.6635 9.02637 13.8905C9.02637 14.1175 9.21039 14.3014 9.43734 14.3014H19.7882C20.0152 14.3014 20.1992 14.1175 20.1992 13.8905C20.1992 13.6635 20.0152 13.4795 19.7882 13.4795Z" fill="black"/>
<path d="M16.1576 14.8496H9.43734C9.21039 14.8496 9.02637 15.0336 9.02637 15.2606C9.02637 15.4876 9.21039 15.6716 9.43734 15.6716H16.1576C16.3846 15.6716 16.5686 15.4876 16.5686 15.2606C16.5686 15.0336 16.3846 14.8496 16.1576 14.8496Z" fill="black"/>
<path d="M17.6919 16.2188H9.43734C9.21039 16.2188 9.02637 16.4027 9.02637 16.6297C9.02637 16.8567 9.21039 17.0407 9.43734 17.0407H17.6919C17.9188 17.0407 18.1029 16.8567 18.1029 16.6297C18.1029 16.4027 17.9188 16.2188 17.6919 16.2188Z" fill="black"/>
<path d="M19.7882 19.0684H9.43734C9.21039 19.0684 9.02637 19.2523 9.02637 19.4793C9.02637 19.7063 9.21039 19.8903 9.43734 19.8903H19.7882C20.0152 19.8903 20.1991 19.7063 20.1992 19.4793C20.1992 19.2523 20.0152 19.0684 19.7882 19.0684Z" fill="black"/>
<path d="M16.1576 20.4385H9.43734C9.21039 20.4385 9.02637 20.6224 9.02637 20.8495C9.02637 21.0765 9.21039 21.2604 9.43734 21.2604H16.1576C16.3846 21.2604 16.5686 21.0765 16.5686 20.8495C16.5686 20.6224 16.3846 20.4385 16.1576 20.4385Z" fill="black"/>
<path d="M17.6919 21.8086H9.43734C9.21039 21.8086 9.02637 21.9926 9.02637 22.2196C9.02637 22.4466 9.21039 22.6305 9.43734 22.6305H17.6919C17.9188 22.6305 18.1029 22.4466 18.1029 22.2196C18.1029 21.9926 17.9188 21.8086 17.6919 21.8086Z" fill="black"/>
<path d="M6.67756 19.0684H4.48574C4.10802 19.0684 3.80078 19.3756 3.80078 19.7533V21.9451C3.80078 22.3228 4.10807 22.6301 4.48574 22.6301H6.67756C7.05529 22.6301 7.36252 22.3228 7.36252 21.9451V19.7533C7.36252 19.3756 7.05523 19.0684 6.67756 19.0684ZM6.54062 21.8082H4.62279V19.8903H6.54062V21.8082Z" fill="black"/>
</svg>
