<svg width="22" height="22" viewBox="0 0 22 22" fill="none" xmlns="http://www.w3.org/2000/svg">
<g clip-path="url(#clip0)">
<path d="M19.7014 0H2.29917C1.88959 0 1.55762 0.331977 1.55762 0.741555V3.88089C1.55762 4.06553 1.62658 4.24351 1.75093 4.38023L8.3554 11.6333V21.2584C8.3554 21.5227 8.49604 21.7672 8.72472 21.8999C8.83966 21.9667 8.96844 22 9.097 22C9.2238 22 9.35086 21.9674 9.46481 21.9022L13.2715 19.7269C13.5027 19.5949 13.6453 19.3492 13.6453 19.0832V11.6333L20.2497 4.38023C20.3743 4.24355 20.443 4.06557 20.443 3.88089V0.741555C20.443 0.331977 20.111 0 19.7014 0ZM18.9598 3.59391L12.3554 10.8467C12.2308 10.9832 12.1621 11.1614 12.1621 11.3461V18.6528L9.83851 19.9807V11.3461C9.83851 11.1614 9.76955 10.9832 9.6452 10.8467L3.04077 3.59391V1.48315H18.9598V3.59391Z" fill="#C5C9F7"/>
</g>
<defs>
<clipPath id="clip0">
<rect width="22" height="22" fill="white"/>
</clipPath>
</defs>
</svg>
