<svg width="26" height="28" viewBox="0 0 26 28" fill="none" xmlns="http://www.w3.org/2000/svg">
<path d="M18.3949 6.48741V0H0V28H26V6.48741H18.3949ZM13.3899 4.82398H16.5749V6.48741H13.3899V4.82398ZM4.33879 6.20517H6.60804V4.26951H8.55802V6.20523H10.8272V7.86866H8.55802V9.80437H6.60804V7.86866H4.33879V6.20517ZM14.3975 12.1425V13.8059H4.98872V12.1425H14.3975ZM4.98872 17.6873H9.65248V19.3507H4.98872V17.6873ZM16.8086 24.8955H9.19141V23.2321H16.8086V24.8955ZM21.0112 22.1231H4.98872V20.4597H21.0112V22.1231ZM21.0112 19.3507H11.6025V17.6873H21.0112V19.3507ZM21.0112 16.5783H4.98872V14.9149H21.0112V16.5783ZM21.0112 13.8059H16.3475V12.1425H21.0112V13.8059ZM21.0112 9.25985H13.3899V7.59642H21.0112V9.25985Z" fill="black"/>
</svg>
