<svg width="33" height="31" viewBox="0 0 33 31" fill="none" xmlns="http://www.w3.org/2000/svg">
<path fill-rule="evenodd" clip-rule="evenodd" d="M23.3915 19.1761H21.9236L21.4134 18.6984C23.2159 16.7163 24.3121 14.1467 24.3121 11.3313C24.3121 5.07295 18.9325 0 12.2957 0C5.65896 0 0.279297 5.07295 0.279297 11.3313C0.279297 17.5897 5.65896 22.6627 12.2957 22.6627C15.2813 22.6627 18.0044 21.6306 20.1064 19.9327L20.6166 20.4103V21.791L29.8563 30.4917L32.6127 27.8925L23.3915 19.1761V19.1761Z" fill="#C2C2C2"/>
<path fill-rule="evenodd" clip-rule="evenodd" d="M12.2956 19.1749C7.6998 19.1749 3.97656 15.6639 3.97656 11.3301C3.97656 6.99806 7.6998 3.48535 12.2956 3.48535C16.8896 3.48535 20.6147 6.99806 20.6147 11.3301C20.6147 15.6639 16.8896 19.1749 12.2956 19.1749V19.1749Z" fill="#F5F5F5"/>
</svg>
