<svg width="31" height="31" viewBox="0 0 31 31" fill="none" xmlns="http://www.w3.org/2000/svg">
<path d="M24.9252 13.2956L23.4512 13.0455C23.2977 12.5498 23.1003 12.0717 22.859 11.6154L23.7276 10.4003C24.0961 9.8826 24.0391 9.17631 23.5872 8.72885L22.2799 7.42156C22.0343 7.17589 21.7096 7.0399 21.3631 7.0399C21.0911 7.0399 20.8323 7.12325 20.6129 7.28118L19.3934 8.14978C18.9196 7.89973 18.4239 7.69355 17.9106 7.54L17.6649 6.08356C17.5596 5.45624 17.0201 5 16.384 5H14.5371C13.901 5 13.3614 5.45624 13.2561 6.08356L13.0017 7.5751C12.5103 7.72864 12.0322 7.93044 11.5759 8.1761L10.3695 7.3075C10.1502 7.14957 9.88699 7.06622 9.615 7.06622C9.26844 7.06622 8.93942 7.20221 8.69814 7.44788L7.38646 8.75517C6.939 9.20263 6.87759 9.90892 7.24608 10.4266L8.12346 11.6593C7.88218 12.1199 7.68916 12.5981 7.54 13.0938L6.08356 13.3395C5.45624 13.4447 5 13.9843 5 14.6204V16.4673C5 17.1034 5.45624 17.643 6.08356 17.7483L7.5751 18.0027C7.72864 18.494 7.93044 18.9722 8.1761 19.4285L7.31189 20.6305C6.94339 21.1481 7.00042 21.8544 7.45227 22.3019L8.75956 23.6091C9.00522 23.8548 9.32985 23.9908 9.67642 23.9908C9.9484 23.9908 10.2072 23.9075 10.4266 23.7495L11.6593 22.8722C12.1024 23.1047 12.5674 23.2933 13.0455 23.4424L13.2912 24.9164C13.3965 25.5438 13.9361 26 14.5722 26H16.4234C17.0595 26 17.5991 25.5438 17.7044 24.9164L17.9545 23.4424C18.4502 23.2889 18.9284 23.0915 19.3846 22.8502L20.5998 23.7188C20.8191 23.8767 21.0823 23.9601 21.3543 23.9601C21.7009 23.9601 22.0255 23.8241 22.2712 23.5784L23.5784 22.2712C24.0259 21.8237 24.0873 21.1174 23.7188 20.5998L22.8502 19.3802C23.0915 18.9196 23.2933 18.4414 23.4425 17.9501L24.9164 17.7044C25.5438 17.5991 26 17.0595 26 16.4234V14.5766C26.0088 13.9405 25.5525 13.4009 24.9252 13.2956ZM24.8243 16.4234C24.8243 16.4805 24.7848 16.5287 24.7278 16.5375L22.8853 16.8446C22.6528 16.8841 22.4686 17.0552 22.4115 17.2789C22.2448 17.9238 21.9904 18.5423 21.6482 19.117C21.5298 19.3188 21.5385 19.5688 21.6745 19.7619L22.7581 21.2885C22.7888 21.3324 22.7844 21.3982 22.7449 21.4376L21.4376 22.7449C21.4069 22.7756 21.3762 22.78 21.3543 22.78C21.328 22.78 21.306 22.7713 21.2885 22.7581L19.7662 21.6745C19.5776 21.5385 19.3232 21.5298 19.1214 21.6482C18.5467 21.9904 17.9281 22.2448 17.2833 22.4115C17.0552 22.4686 16.8841 22.6572 16.849 22.8853L16.5375 24.7278C16.5287 24.7848 16.4805 24.8243 16.4234 24.8243H14.5766C14.5195 24.8243 14.4713 24.7848 14.4625 24.7278L14.1554 22.8853C14.1159 22.6528 13.9449 22.4686 13.7211 22.4115C13.0938 22.2492 12.4884 21.9992 11.9225 21.6745C11.8304 21.6219 11.7251 21.5956 11.6242 21.5956C11.5057 21.5956 11.3829 21.6307 11.282 21.7052L9.74661 22.7976C9.72467 22.8107 9.70274 22.8195 9.6808 22.8195C9.66326 22.8195 9.62816 22.8151 9.59745 22.7844L8.29016 21.4771C8.25068 21.4376 8.24629 21.3762 8.277 21.328L9.35617 19.8145C9.49217 19.6215 9.50094 19.367 9.3825 19.1652C9.04032 18.5949 8.77711 17.9764 8.6104 17.3315C8.54899 17.1078 8.36474 16.9367 8.13662 16.8972L6.28097 16.5814C6.22394 16.5726 6.18446 16.5243 6.18446 16.4673V14.6204C6.18446 14.5634 6.22394 14.5151 6.28097 14.5064L8.1103 14.1993C8.3428 14.1598 8.53144 13.9887 8.58847 13.7606C8.75078 13.1157 9.00084 12.4928 9.33863 11.9181C9.45707 11.7163 9.44391 11.4663 9.30792 11.2776L8.21558 9.74222C8.18488 9.69835 8.18926 9.63255 8.22875 9.59306L9.53604 8.28577C9.56674 8.25507 9.59745 8.25068 9.61939 8.25068C9.64571 8.25068 9.66764 8.25945 9.68519 8.27261L11.1987 9.35179C11.3917 9.48778 11.6461 9.49655 11.8479 9.37811C12.4182 9.03593 13.0368 8.77272 13.6816 8.60602C13.9054 8.5446 14.0765 8.36035 14.1159 8.13223L14.4318 6.27658C14.4406 6.21955 14.4888 6.18007 14.5459 6.18007H16.3927C16.4498 6.18007 16.498 6.21955 16.5068 6.27658L16.8139 8.10591C16.8534 8.33842 17.0244 8.52705 17.2526 8.58408C17.915 8.75078 18.5467 9.00961 19.1345 9.35617C19.3363 9.47462 19.5864 9.46585 19.7794 9.32985L21.2929 8.24191C21.3148 8.22874 21.3368 8.21997 21.3587 8.21997C21.3762 8.21997 21.4113 8.22436 21.442 8.25507L22.7493 9.56236C22.7888 9.60184 22.7932 9.66325 22.7625 9.71151L21.6789 11.2338C21.5429 11.4224 21.5342 11.6768 21.6526 11.8786C21.9948 12.4533 22.2492 13.0719 22.4159 13.7167C22.473 13.9449 22.6616 14.1159 22.8897 14.151L24.7322 14.4625C24.7892 14.4713 24.8287 14.5195 24.8287 14.5766V16.4234H24.8243Z" fill="black"/>
<path d="M15.5024 10.9648C13.0018 10.9648 10.9707 12.996 10.9707 15.4965C10.9707 17.997 13.0018 20.0281 15.5024 20.0281C18.0029 20.0281 20.034 17.997 20.034 15.4965C20.034 12.996 18.0029 10.9648 15.5024 10.9648ZM15.5024 18.8437C13.6555 18.8437 12.1552 17.3434 12.1552 15.4965C12.1552 13.6496 13.6555 12.1493 15.5024 12.1493C17.3492 12.1493 18.8495 13.6496 18.8495 15.4965C18.8495 17.3434 17.3492 18.8437 15.5024 18.8437Z" fill="black"/>
</svg>
