<svg width="28" height="28" viewBox="0 0 28 28" fill="none" xmlns="http://www.w3.org/2000/svg">
<path d="M14 0C6.2681 0 0 6.2681 0 14C0 21.7319 6.2681 28 14 28C21.7319 28 28 21.7319 28 14C27.9913 6.27174 21.7283 0.00865888 14 0ZM14 27.0667C6.78353 27.0667 0.933333 21.2165 0.933333 14C0.933333 6.78353 6.78353 0.933333 14 0.933333C21.2165 0.933333 27.0667 6.78353 27.0667 14C27.0585 21.2131 21.2131 27.0585 14 27.0667Z" fill="black"/>
<path d="M24.7194 13.4818V13.4258C24.7096 13.2765 24.6998 13.1266 24.6852 12.9828C24.6708 12.8393 24.6558 12.6911 24.6385 12.554C24.6228 12.4337 24.6068 12.3133 24.5863 12.2274C24.5662 12.0873 24.5396 11.9474 24.5097 11.8L24.4958 11.7373C24.4715 11.6263 24.4457 11.5124 24.4193 11.4108C24.3473 11.1157 24.255 10.804 24.1392 10.4708C24.108 10.3719 24.072 10.2785 24.0399 10.1965C23.9932 10.0696 23.9437 9.9431 23.8899 9.82301C23.8209 9.65986 23.75 9.50241 23.6787 9.35635C23.6133 9.21644 23.5429 9.07972 23.4727 8.95417C23.3023 8.62764 23.1129 8.31091 22.9063 8.00579L22.8969 7.99281V7.99053C22.888 7.97754 22.8787 7.96523 22.8693 7.95179C22.8055 7.85837 22.7406 7.76517 22.6743 7.67607L22.6091 7.5863C22.5189 7.4612 22.4223 7.34043 22.2931 7.18685C22.2719 7.16315 22.2521 7.13809 22.2338 7.11188C22.1605 7.02461 22.0825 6.9362 22.0005 6.84346C21.9725 6.81315 21.9422 6.78376 21.9141 6.75391L22.7331 5.93473L22.0732 5.27507L21.2538 6.09447C21.2169 6.05938 21.1834 6.02497 21.1455 5.99033C21.0624 5.91719 20.9794 5.84336 20.8758 5.757C20.866 5.74994 20.8557 5.74264 20.8423 5.73193C20.8286 5.721 20.8124 5.7071 20.7889 5.68522C20.6682 5.58428 20.5472 5.4888 20.431 5.40518L20.4241 5.39994L20.3307 5.33226C20.2225 5.25342 20.1151 5.17549 20.0042 5.10189C19.7013 4.89635 19.3869 4.70837 19.0629 4.53861C18.9271 4.46341 18.7912 4.39255 18.6634 4.3333C18.505 4.25446 18.3469 4.18542 18.1901 4.11865C18.0632 4.0626 17.9363 4.01178 17.8066 3.96507C17.7178 3.93089 17.6287 3.89694 17.5471 3.87165C17.2003 3.75179 16.8886 3.65928 16.6026 3.5916C16.4821 3.55993 16.3574 3.53281 16.1993 3.4984C16.0594 3.46901 15.9192 3.44326 15.8092 3.42891C15.6939 3.40361 15.5786 3.38835 15.4521 3.37194C15.3122 3.35234 15.1666 3.33776 15.0183 3.32249C14.8697 3.307 14.7227 3.29857 14.5459 3.28877C14.1923 3.26963 13.8379 3.26963 13.4843 3.28877H13.4316C13.2817 3.29857 13.1315 3.30837 12.9825 3.32295C12.8337 3.3373 12.6924 3.35234 12.5407 3.37331C12.4258 3.38835 12.3105 3.40361 12.2281 3.42275C12.0879 3.44326 11.948 3.46947 11.7678 3.50684C11.647 3.53395 11.5224 3.56084 11.4105 3.59069C11.1159 3.66133 10.8037 3.75361 10.4701 3.87074C10.3767 3.90059 10.2867 3.93477 10.1953 3.96963C10.0684 4.01634 9.94144 4.06624 9.82181 4.12002C9.65798 4.18906 9.49984 4.25993 9.35514 4.33148C9.21524 4.39619 9.07897 4.46729 8.95251 4.53724C8.90306 4.56322 8.85498 4.59261 8.80599 4.61927C8.5321 4.76875 8.26185 4.92962 8.00505 5.10371H7.99867L7.94762 5.14017C7.85443 5.20238 7.76397 5.26618 7.67624 5.3318L7.58555 5.39811C7.52266 5.44482 7.46045 5.49154 7.39619 5.54098C7.33171 5.59043 7.26357 5.64831 7.18838 5.71188C7.17904 5.721 7.16878 5.72966 7.15807 5.7374L7.11136 5.77341C7.02842 5.8429 6.94525 5.91673 6.84316 6.00674C6.55332 6.27266 6.27191 6.55361 6.00303 6.84665C5.92464 6.93438 5.84671 7.02256 5.75853 7.12943C5.73597 7.16064 5.71113 7.19004 5.68447 7.21761C5.58398 7.33861 5.48851 7.45938 5.40443 7.57513L5.4001 7.58037V7.58356L5.33402 7.67402C5.25518 7.78294 5.17656 7.89072 5.10068 8.00078C4.89515 8.30316 4.70716 8.61716 4.5374 8.94118C4.46221 9.07699 4.3918 9.21279 4.3321 9.34154C4.25303 9.49967 4.18398 9.6569 4.11676 9.81481C4.06139 9.94173 4.01058 10.0682 3.96934 10.1833C3.93311 10.2767 3.8971 10.3701 3.86999 10.4578C3.75104 10.8031 3.65853 11.1143 3.58994 11.4028C3.56146 11.5129 3.53594 11.6268 3.51156 11.7378L3.49674 11.8041C3.46644 11.9442 3.44115 12.0868 3.42725 12.1946C3.40059 12.3156 3.38464 12.4359 3.36937 12.5526C3.35023 12.6927 3.33519 12.8397 3.32266 12.9844C3.3099 13.1289 3.29827 13.2788 3.28802 13.4588C3.27777 13.6391 3.2666 13.8186 3.2666 13.9998C3.2666 14.1809 3.27116 14.3618 3.2805 14.5177V14.5738C3.2903 14.723 3.3001 14.8729 3.31468 15.0167C3.32904 15.1603 3.34408 15.3084 3.36139 15.4456C3.37712 15.5659 3.39307 15.6862 3.41357 15.7721C3.43363 15.9122 3.46029 16.0521 3.49014 16.1996L3.50404 16.2622C3.52842 16.3732 3.55417 16.4871 3.5806 16.5888C3.6526 16.8839 3.74489 17.1956 3.86064 17.5287C3.89186 17.6276 3.92786 17.721 3.95999 17.8031C4.00671 17.93 4.05615 18.0564 4.10993 18.1765C4.17897 18.3397 4.24984 18.4971 4.32116 18.6432C4.38656 18.7831 4.45697 18.9198 4.5276 19.0463C4.58115 19.1495 4.63994 19.2568 4.69873 19.3594L4.93206 19.7659L8.5763 17.6659L8.34115 17.2664C7.17402 15.2451 7.17402 12.7545 8.34115 10.7331C8.91628 9.74076 9.74092 8.91611 10.7333 8.34098C12.7606 7.19619 15.2393 7.19619 17.2666 8.34098C17.6228 8.55221 17.9579 8.79717 18.2676 9.0722L15.2851 12.0547C14.2829 11.3914 12.9415 11.5949 12.1811 12.5255C11.4207 13.4561 11.4889 14.8114 12.3386 15.6611C13.1883 16.5108 14.5436 16.579 15.4742 15.8186C16.4048 15.0582 16.6083 13.7168 15.945 12.7146L18.9275 9.7321C20.7602 11.8275 21.0544 14.8577 19.6587 17.2664L19.4254 17.6716L23.0696 19.7716L23.303 19.3651C23.3618 19.2623 23.4205 19.155 23.4695 19.0613C23.5447 18.9255 23.6151 18.7897 23.6748 18.6607C23.7537 18.5026 23.8227 18.3454 23.8899 18.1877C23.9455 18.0608 23.9964 17.9343 24.0374 17.819C24.0738 17.7256 24.1098 17.6324 24.1369 17.5447C24.2559 17.1992 24.3482 16.888 24.4168 16.5995C24.4452 16.4894 24.471 16.3755 24.4954 16.2645L24.5102 16.1982C24.5405 16.0583 24.5658 15.9154 24.5797 15.8077C24.6063 15.6869 24.6223 15.5663 24.6376 15.4497C24.6567 15.3098 24.6717 15.1628 24.6843 15.0181C24.6968 14.8734 24.7084 14.7235 24.7189 14.5435C24.7292 14.3632 24.7333 14.1809 24.7333 13.9998C24.7333 13.8186 24.7287 13.6377 24.7194 13.4818ZM23.5115 11.6339C23.5372 11.7337 23.5582 11.8369 23.5826 11.9376L23.5955 11.9978C23.6213 12.1176 23.6423 12.2377 23.666 12.3913C23.6865 12.4845 23.6983 12.5779 23.7127 12.6777C23.7309 12.8069 23.7439 12.9409 23.7594 13.0762C23.7669 13.148 23.7724 13.2209 23.7776 13.2909C23.7822 13.3506 23.786 13.408 23.7897 13.4584V13.5074V13.5331H21.4511C21.3903 12.5398 21.1305 11.5689 20.6873 10.678L22.7112 9.5113C22.7531 9.59059 22.7953 9.66761 22.8368 9.75693C22.9067 9.89684 22.9682 10.0368 23.0318 10.1885C23.0785 10.2954 23.1214 10.4018 23.1644 10.5198C23.1934 10.595 23.2228 10.6691 23.2517 10.7598C23.3608 11.076 23.4454 11.3604 23.5115 11.6339ZM14.9257 4.24648C15.0593 4.25993 15.1933 4.27314 15.3389 4.2932C15.4293 4.30527 15.5189 4.31644 15.6422 4.34219C15.762 4.35882 15.8826 4.38092 16.0336 4.41305C16.1432 4.43721 16.2558 4.4625 16.3729 4.49235C16.6379 4.55684 16.9218 4.64069 17.2532 4.75508C17.3272 4.77786 17.3976 4.80589 17.491 4.84189C17.5979 4.88018 17.7043 4.92301 17.8178 4.97246C17.9625 5.03376 18.1033 5.09482 18.256 5.17139C18.3335 5.20739 18.4114 5.25023 18.4893 5.29079L17.3227 7.31559C16.4299 6.87855 15.459 6.62402 14.4666 6.5666V4.21185H14.5133C14.6532 4.22165 14.7904 4.23053 14.9257 4.24648ZM10.5316 4.83301C10.6022 4.80589 10.6717 4.77786 10.7595 4.75098C11.078 4.64069 11.3619 4.55684 11.6349 4.49053C11.7441 4.4625 11.8566 4.43721 11.997 4.40645C12.1173 4.38092 12.2379 4.35973 12.3903 4.33604C12.481 4.31644 12.571 4.30527 12.6779 4.28932C12.8066 4.27155 12.9406 4.25856 13.0746 4.24512C13.2086 4.23145 13.3489 4.22256 13.4585 4.21481H13.5333V6.56911C12.5416 6.62562 11.5711 6.87946 10.6786 7.31559L9.51191 5.29124C9.59144 5.24932 9.66823 5.20739 9.75801 5.16523C9.89792 5.09482 10.0378 5.03376 10.19 4.97018C10.2955 4.92074 10.402 4.8779 10.5316 4.83073V4.83301ZM4.28949 12.6736C4.30156 12.5802 4.31341 12.4868 4.33984 12.3576C4.35716 12.2377 4.37858 12.1176 4.40342 12.0014L4.41732 11.9376C4.43988 11.8369 4.46403 11.7337 4.49023 11.6268C4.55449 11.3604 4.63903 11.076 4.75251 10.7475C4.77712 10.6686 4.80651 10.5946 4.83978 10.5082C4.87852 10.4013 4.9209 10.2949 4.96989 10.1814C5.03164 10.0368 5.09316 9.89639 5.16927 9.74326C5.20505 9.66579 5.24811 9.5874 5.28867 9.50993L7.31257 10.6766C6.86937 11.568 6.6096 12.5394 6.54876 13.5331H4.21156C4.21156 13.5172 4.21156 13.5033 4.21156 13.4864C4.22044 13.3465 4.22933 13.2093 4.24277 13.0744C4.25645 12.9395 4.2708 12.8069 4.28949 12.6736ZM5.28867 18.4887C5.24675 18.4094 5.20459 18.3324 5.16312 18.2431C5.09316 18.1032 5.03164 17.9632 4.96807 17.8115C4.92135 17.7046 4.87852 17.5982 4.83545 17.4802C4.80651 17.405 4.77712 17.3309 4.74818 17.2402C4.63903 16.9235 4.55449 16.6391 4.48841 16.3657C4.46266 16.2659 4.4417 16.1627 4.41732 16.0619L4.40433 16.0018C4.37858 15.8819 4.35762 15.7618 4.33392 15.6083C4.31341 15.5151 4.30156 15.4216 4.28721 15.3218C4.26898 15.1926 4.25599 15.0587 4.24049 14.9233C4.23298 14.8515 4.22751 14.7786 4.22227 14.7087C4.21771 14.649 4.21383 14.5915 4.21019 14.5412V14.4945C4.21019 14.4856 4.21019 14.4771 4.21019 14.4687H6.55811C6.61484 15.4613 6.87028 16.4322 7.30938 17.3243L5.28867 18.4887ZM7.7806 9.87018L5.75488 8.70352C5.79453 8.64199 5.83145 8.57933 5.87292 8.51689L5.88499 8.50049C5.96862 8.37881 6.0527 8.25736 6.1516 8.12725C6.22907 8.01947 6.3111 7.91579 6.36761 7.8472C6.41022 7.80345 6.44964 7.75674 6.48565 7.70729C6.55241 7.62708 6.62578 7.54665 6.6905 7.47396C6.93727 7.20508 7.19909 6.94326 7.4764 6.68851C7.55296 6.62129 7.62907 6.55361 7.68444 6.50645L7.76191 6.44629C7.77969 6.43193 7.79655 6.41621 7.8125 6.39958C7.9155 6.31322 8.01872 6.23164 8.13584 6.1471C8.2655 6.04912 8.39538 5.96048 8.52184 5.8723C8.58018 5.83265 8.6458 5.80098 8.70505 5.7627L9.87171 7.7834C9.04365 8.33392 8.33294 9.04326 7.7806 9.87018ZM18.1295 7.78044L19.2962 5.75472C19.3559 5.793 19.417 5.829 19.4757 5.86911C19.6045 5.95775 19.7339 6.04684 19.872 6.15189C19.9793 6.22845 20.0821 6.31003 20.1562 6.37018C20.1805 6.39365 20.2061 6.41689 20.2304 6.43604C20.2546 6.45518 20.2772 6.47295 20.2933 6.48503C20.3694 6.54906 20.4455 6.61673 20.5292 6.68988C20.5497 6.70902 20.5693 6.72907 20.5902 6.74821L18.9364 8.40205C18.6819 8.17669 18.4123 7.96911 18.1295 7.78044ZM15.3999 13.9998C15.3999 14.7729 14.7731 15.3998 13.9999 15.3998C13.2268 15.3998 12.5999 14.7729 12.5999 13.9998C12.5999 13.2266 13.2268 12.5998 13.9999 12.5998C14.2077 12.6007 14.4128 12.6485 14.5997 12.7397L14.2385 13.1011C14.1608 13.079 14.0806 13.0674 13.9999 13.0664C13.4845 13.0664 13.0666 13.4843 13.0666 13.9998C13.0666 14.5152 13.4845 14.9331 13.9999 14.9331C14.5154 14.9331 14.9333 14.5152 14.9333 13.9998C14.9321 13.9191 14.9205 13.8389 14.8982 13.7612L15.2596 13.4C15.3509 13.5869 15.399 13.7917 15.3999 13.9998ZM19.5999 9.06195L21.2538 7.40811C21.2711 7.42725 21.2898 7.44548 21.3071 7.46416C21.3784 7.54437 21.4497 7.62458 21.5017 7.68587C21.5329 7.73008 21.5673 7.77201 21.6047 7.8112C21.6906 7.91442 21.7722 8.01719 21.8567 8.13431L21.8629 8.1432C21.9561 8.26716 22.0429 8.39134 22.1324 8.52168C22.1728 8.58047 22.204 8.64518 22.2423 8.70534L20.2216 9.87201C20.0331 9.58809 19.8255 9.31738 19.5999 9.06195ZM23.7127 15.3259C23.7006 15.4194 23.689 15.5128 23.6623 15.642C23.645 15.7618 23.6236 15.8819 23.5987 15.9981L23.5848 16.0619C23.5625 16.1627 23.5381 16.2659 23.5119 16.3728C23.4477 16.6391 23.3631 16.9235 23.2496 17.2521C23.225 17.3309 23.1956 17.405 23.1624 17.4913C23.1236 17.5982 23.0813 17.7046 23.0323 17.8181C22.9707 17.9628 22.909 18.1032 22.8331 18.2563C22.7971 18.3342 22.754 18.4117 22.7135 18.4896L20.6905 17.323C21.1289 16.4304 21.3834 15.459 21.4395 14.4664H23.7883V14.5132C23.7794 14.6531 23.7705 14.7902 23.7571 14.9251C23.7434 15.06 23.7291 15.1926 23.7104 15.3259H23.7127Z" fill="black"/>
<path d="M8.86621 21.9333H19.1329V19.1333H8.86621V21.9333ZM9.79954 20.0666H18.1995V21H9.79954V20.0666Z" fill="black"/>
</svg>
