<svg width="20" height="20" viewBox="0 0 20 20" fill="none" xmlns="http://www.w3.org/2000/svg">
<path fill-rule="evenodd" clip-rule="evenodd" d="M2 0C0.895431 0 0 0.895431 0 2V18C0 19.1046 0.895431 20 2 20H18C19.1046 20 20 19.1046 20 18V2C20 0.895431 19.1046 0 18 0H2ZM8.57145 4.28581C8.01917 4.28581 7.57145 4.73352 7.57145 5.28581V14.7144C7.57145 15.2667 8.01917 15.7144 8.57145 15.7144H8.85717C9.40945 15.7144 9.85717 15.2667 9.85717 14.7144V5.28581C9.85717 4.73352 9.40945 4.28581 8.85717 4.28581H8.57145Z" fill="#3B3A87"/>
</svg>
