<svg width="52" height="16" viewBox="0 0 52 16" fill="none" xmlns="http://www.w3.org/2000/svg">
<rect width="52" height="16" rx="8" fill="#29CC97"/>
<path d="M8.83553 11.072C8.3982 11.072 7.98753 11.0133 7.60353 10.896C7.22486 10.7787 6.9022 10.6107 6.63553 10.392L6.98753 9.64C7.26486 9.848 7.55286 10.0027 7.85153 10.104C8.15553 10.2 8.4862 10.248 8.84353 10.248C9.2382 10.248 9.5422 10.1787 9.75553 10.04C9.9742 9.90133 10.0835 9.70667 10.0835 9.456C10.0835 9.24267 9.9822 9.08 9.77953 8.968C9.5822 8.85067 9.2542 8.74133 8.79553 8.64C8.08086 8.48533 7.56086 8.28533 7.23553 8.04C6.9102 7.79467 6.74753 7.43733 6.74753 6.968C6.74753 6.632 6.8382 6.33333 7.01953 6.072C7.20086 5.81067 7.45686 5.60533 7.78753 5.456C8.12353 5.30667 8.5102 5.232 8.94753 5.232C9.34753 5.232 9.7262 5.29333 10.0835 5.416C10.4462 5.53333 10.7422 5.69867 10.9715 5.912L10.6275 6.664C10.1209 6.25867 9.56086 6.056 8.94753 6.056C8.57953 6.056 8.28886 6.13333 8.07553 6.288C7.8622 6.43733 7.75553 6.64267 7.75553 6.904C7.75553 7.128 7.84886 7.29867 8.03553 7.416C8.22753 7.53333 8.55286 7.64267 9.01153 7.744C9.4862 7.856 9.87286 7.97867 10.1715 8.112C10.4702 8.24 10.6995 8.408 10.8595 8.616C11.0195 8.81867 11.0995 9.07467 11.0995 9.384C11.0995 9.72533 11.0089 10.024 10.8275 10.28C10.6462 10.5307 10.3849 10.7253 10.0435 10.864C9.7022 11.0027 9.29953 11.072 8.83553 11.072ZM14.908 11.072C14.124 11.072 13.5293 10.872 13.124 10.472C12.724 10.0667 12.524 9.47467 12.524 8.696V5.304H13.54V8.752C13.54 9.24267 13.6546 9.616 13.884 9.872C14.1133 10.1227 14.4546 10.248 14.908 10.248C15.3506 10.248 15.6866 10.12 15.916 9.864C16.1506 9.608 16.268 9.23733 16.268 8.752V5.304H17.284V8.696C17.284 9.46933 17.0813 10.0587 16.676 10.464C16.2706 10.8693 15.6813 11.072 14.908 11.072ZM21.5618 11.072C21.0018 11.072 20.5112 10.952 20.0898 10.712C19.6738 10.472 19.3538 10.1333 19.1298 9.696C18.9058 9.25333 18.7938 8.736 18.7938 8.144C18.7938 7.55733 18.9058 7.04533 19.1298 6.608C19.3538 6.16533 19.6738 5.82667 20.0898 5.592C20.5112 5.352 21.0018 5.232 21.5618 5.232C21.9458 5.232 22.3058 5.29333 22.6418 5.416C22.9832 5.53333 23.2658 5.69867 23.4898 5.912L23.1538 6.664C22.8978 6.456 22.6418 6.30667 22.3858 6.216C22.1352 6.12 21.8658 6.072 21.5778 6.072C21.0285 6.072 20.6018 6.25067 20.2978 6.608C19.9992 6.96533 19.8498 7.47733 19.8498 8.144C19.8498 8.816 19.9992 9.33333 20.2978 9.696C20.5965 10.0533 21.0232 10.232 21.5778 10.232C21.8658 10.232 22.1352 10.1867 22.3858 10.096C22.6418 10 22.8978 9.848 23.1538 9.64L23.4898 10.392C23.2658 10.6053 22.9832 10.7733 22.6418 10.896C22.3058 11.0133 21.9458 11.072 21.5618 11.072ZM27.429 11.072C26.869 11.072 26.3784 10.952 25.957 10.712C25.541 10.472 25.221 10.1333 24.997 9.696C24.773 9.25333 24.661 8.736 24.661 8.144C24.661 7.55733 24.773 7.04533 24.997 6.608C25.221 6.16533 25.541 5.82667 25.957 5.592C26.3784 5.352 26.869 5.232 27.429 5.232C27.813 5.232 28.173 5.29333 28.509 5.416C28.8504 5.53333 29.133 5.69867 29.357 5.912L29.021 6.664C28.765 6.456 28.509 6.30667 28.253 6.216C28.0024 6.12 27.733 6.072 27.445 6.072C26.8957 6.072 26.469 6.25067 26.165 6.608C25.8664 6.96533 25.717 7.47733 25.717 8.144C25.717 8.816 25.8664 9.33333 26.165 9.696C26.4637 10.0533 26.8904 10.232 27.445 10.232C27.733 10.232 28.0024 10.1867 28.253 10.096C28.509 10 28.765 9.848 29.021 9.64L29.357 10.392C29.133 10.6053 28.8504 10.7733 28.509 10.896C28.173 11.0133 27.813 11.072 27.429 11.072ZM30.8216 5.304H34.6296V6.12H31.8296V7.696H34.4616V8.512H31.8296V10.184H34.6296V11H30.8216V5.304ZM37.9293 11.072C37.4919 11.072 37.0813 11.0133 36.6973 10.896C36.3186 10.7787 35.9959 10.6107 35.7293 10.392L36.0813 9.64C36.3586 9.848 36.6466 10.0027 36.9453 10.104C37.2493 10.2 37.5799 10.248 37.9373 10.248C38.3319 10.248 38.6359 10.1787 38.8493 10.04C39.0679 9.90133 39.1773 9.70667 39.1773 9.456C39.1773 9.24267 39.0759 9.08 38.8733 8.968C38.6759 8.85067 38.3479 8.74133 37.8893 8.64C37.1746 8.48533 36.6546 8.28533 36.3293 8.04C36.0039 7.79467 35.8413 7.43733 35.8413 6.968C35.8413 6.632 35.9319 6.33333 36.1133 6.072C36.2946 5.81067 36.5506 5.60533 36.8813 5.456C37.2173 5.30667 37.6039 5.232 38.0413 5.232C38.4413 5.232 38.8199 5.29333 39.1773 5.416C39.5399 5.53333 39.8359 5.69867 40.0653 5.912L39.7213 6.664C39.2146 6.25867 38.6546 6.056 38.0413 6.056C37.6733 6.056 37.3826 6.13333 37.1693 6.288C36.9559 6.43733 36.8493 6.64267 36.8493 6.904C36.8493 7.128 36.9426 7.29867 37.1293 7.416C37.3213 7.53333 37.6466 7.64267 38.1053 7.744C38.5799 7.856 38.9666 7.97867 39.2653 8.112C39.5639 8.24 39.7933 8.408 39.9533 8.616C40.1133 8.81867 40.1933 9.07467 40.1933 9.384C40.1933 9.72533 40.1026 10.024 39.9213 10.28C39.7399 10.5307 39.4786 10.7253 39.1373 10.864C38.7959 11.0027 38.3933 11.072 37.9293 11.072ZM43.5777 11.072C43.1404 11.072 42.7297 11.0133 42.3457 10.896C41.967 10.7787 41.6444 10.6107 41.3777 10.392L41.7297 9.64C42.007 9.848 42.295 10.0027 42.5937 10.104C42.8977 10.2 43.2284 10.248 43.5857 10.248C43.9804 10.248 44.2844 10.1787 44.4977 10.04C44.7164 9.90133 44.8257 9.70667 44.8257 9.456C44.8257 9.24267 44.7244 9.08 44.5217 8.968C44.3244 8.85067 43.9964 8.74133 43.5377 8.64C42.823 8.48533 42.303 8.28533 41.9777 8.04C41.6524 7.79467 41.4897 7.43733 41.4897 6.968C41.4897 6.632 41.5804 6.33333 41.7617 6.072C41.943 5.81067 42.199 5.60533 42.5297 5.456C42.8657 5.30667 43.2524 5.232 43.6897 5.232C44.0897 5.232 44.4684 5.29333 44.8257 5.416C45.1884 5.53333 45.4844 5.69867 45.7137 5.912L45.3697 6.664C44.863 6.25867 44.303 6.056 43.6897 6.056C43.3217 6.056 43.031 6.13333 42.8177 6.288C42.6044 6.43733 42.4977 6.64267 42.4977 6.904C42.4977 7.128 42.591 7.29867 42.7777 7.416C42.9697 7.53333 43.295 7.64267 43.7537 7.744C44.2284 7.856 44.615 7.97867 44.9137 8.112C45.2124 8.24 45.4417 8.408 45.6017 8.616C45.7617 8.81867 45.8417 9.07467 45.8417 9.384C45.8417 9.72533 45.751 10.024 45.5697 10.28C45.3884 10.5307 45.127 10.7253 44.7857 10.864C44.4444 11.0027 44.0417 11.072 43.5777 11.072Z" fill="white"/>
</svg>
