   <svg  xmlns="http://www.w3.org/2000/svg" width="30" height="30" viewBox="0 0 30 30" fill="none">
                  <path d="M14.999 3.5144C14.5136 3.5144 14.1201 3.90792 14.1201 4.39331C14.1201 4.8787 14.5136 5.27221 14.999 5.27221C17.9073 5.27221 20.2733 7.63787 20.2733 10.5456C20.2733 11.031 20.6668 11.4245 21.1522 11.4245C21.6376 11.4245 22.0311 11.031 22.0311 10.5456C22.0311 6.66862 18.8766 3.5144 14.999 3.5144Z" fill="#3B3A87"/>
                  <path d="M12.7349 0.23544C8.76398 1.06518 5.54426 4.25408 4.69705 8.24964C3.98168 11.6236 4.86322 15.0109 7.11562 17.543C8.21666 18.7807 8.84806 20.4144 8.84806 22.0299V23.7877C8.84806 24.9573 9.6137 25.9508 10.6699 26.295C11.0173 28.3472 12.7985 29.9986 15.0004 29.9986C17.2017 29.9986 18.9834 28.3477 19.3309 26.295C20.3871 25.9508 21.1527 24.9573 21.1527 23.7877V22.0299C21.1527 20.4112 21.7862 18.7971 22.9364 17.4848C24.6201 15.5641 25.5472 13.0997 25.5472 10.5456C25.5472 3.89139 19.4565 -1.16882 12.7349 0.23544ZM15.0004 28.2409C13.8706 28.2409 12.88 27.4634 12.5142 26.4186H17.4865C17.1208 27.4634 16.1302 28.2409 15.0004 28.2409ZM19.3949 23.7877C19.3949 24.2724 19.0006 24.6666 18.516 24.6666H11.4848C11.0001 24.6666 10.6059 24.2724 10.6059 23.7877V22.9088H19.3949V23.7877ZM21.6146 16.3263C20.3888 17.7247 19.6346 19.411 19.4433 21.151H10.5577C10.3666 19.4101 9.61435 17.7072 8.42912 16.3747C6.55189 14.2644 5.81836 11.4358 6.41666 8.61427C7.11504 5.32049 9.79862 2.64481 13.0945 1.95616C18.7209 0.780361 23.7894 5.00567 23.7894 10.5456C23.7894 12.6732 23.0171 14.7262 21.6146 16.3263Z" fill="#3B3A87"/>
                  <path d="M2.63671 10.5457H0.878905C0.393515 10.5457 0 10.9392 0 11.4246C0 11.9099 0.393515 12.3035 0.878905 12.3035H2.63671C3.1221 12.3035 3.51562 11.9099 3.51562 11.4246C3.51562 10.9392 3.1221 10.5457 2.63671 10.5457Z" fill="#3B3A87"/>
                  <path d="M3.00114 6.15101L1.75819 4.90807C1.41501 4.56482 0.858485 4.56482 0.515244 4.90807C0.172002 5.25131 0.172002 5.80777 0.515244 6.15101L1.75819 7.39396C2.10137 7.7372 2.6579 7.73726 3.00114 7.39396C3.34438 7.05072 3.34438 6.49425 3.00114 6.15101Z" fill="#3B3A87"/>
                  <path d="M3.00114 15.4549C2.6579 15.1117 2.10137 15.1117 1.75819 15.4549L0.515244 16.6979C0.172002 17.0411 0.172002 17.5976 0.515244 17.9408C0.858427 18.2841 1.41495 18.2841 1.75819 17.9408L3.00114 16.6979C3.34438 16.3546 3.34438 15.7982 3.00114 15.4549Z" fill="#3B3A87"/>
                  <path d="M29.1211 10.5457H27.3633C26.8779 10.5457 26.4844 10.9392 26.4844 11.4246C26.4844 11.9099 26.8779 12.3035 27.3633 12.3035H29.1211C29.6065 12.3035 30 11.9099 30 11.4246C30 10.9392 29.6065 10.5457 29.1211 10.5457Z" fill="#3B3A87"/>
                  <path d="M29.4855 4.90807C29.1423 4.56482 28.5858 4.56482 28.2426 4.90807L26.9996 6.15101C26.6564 6.49425 26.6564 7.05072 26.9996 7.39396C27.3428 7.73714 27.8993 7.7372 28.2426 7.39396L29.4855 6.15101C29.8288 5.80777 29.8288 5.25131 29.4855 4.90807Z" fill="#3B3A87"/>
                  <path d="M29.4855 16.6979L28.2426 15.4549C27.8994 15.1117 27.3429 15.1117 26.9996 15.4549C26.6564 15.7982 26.6564 16.3546 26.9996 16.6979L28.2426 17.9408C28.5857 18.284 29.1423 18.2841 29.4855 17.9408C29.8288 17.5976 29.8288 17.0411 29.4855 16.6979Z" fill="#3B3A87"/>
                  </svg>