   <svg width="41" height="41" viewBox="0 0 41 41" fill="none" xmlns="http://www.w3.org/2000/svg">
      <path d="M20.4999 0C14.3704 0.00752734 9.40328 4.97461 9.39575 11.1042V17.9375C9.39575 18.4092 9.77821 18.7917 10.2499 18.7917H13.6666C14.1384 18.7917 14.5208 18.4092 14.5208 17.9375V11.1042C14.5208 7.80193 17.1978 5.125 20.4999 5.125C23.8021 5.125 26.4791 7.80193 26.4791 11.1042V17.9375C26.4791 18.4092 26.8616 18.7917 27.3333 18.7917H30.7499C31.2217 18.7917 31.6041 18.4092 31.6041 17.9375V11.1042C31.5966 4.97461 26.6294 0.00752734 20.4999 0Z" fill="#455A64"/>
      <path d="M10.2501 17.0833H30.7501C33.1088 17.0833 35.0209 18.9954 35.0209 21.3541V36.7291C35.0209 39.0878 33.1088 40.9999 30.7501 40.9999H10.2501C7.89135 40.9999 5.97925 39.0878 5.97925 36.7291V21.3541C5.97925 18.9954 7.89135 17.0833 10.2501 17.0833Z" fill="#FFC107"/>
      <path d="M24.7708 26.4793C24.7807 24.1206 22.8767 22.2004 20.518 22.1905C18.1593 22.1805 16.2391 24.0846 16.2292 26.4433C16.2223 28.0737 17.1442 29.5657 18.6054 30.2889L17.946 34.9014C17.8799 35.3685 18.205 35.8006 18.6721 35.8667C18.7117 35.8723 18.7516 35.8751 18.7916 35.8751H22.2083C22.68 35.8799 23.0663 35.5014 23.071 35.0296C23.0714 34.9862 23.0686 34.9427 23.0624 34.8997L22.4029 30.2872C23.8463 29.5649 24.7614 28.0931 24.7708 26.4793Z" fill="#455A64"/>
      </svg>