<svg width="21" height="22" viewBox="0 0 21 22" fill="none" xmlns="http://www.w3.org/2000/svg">
<path d="M15.5057 1.96794C14.9597 1.67139 14.2766 1.87352 13.9801 2.41952C13.6835 2.96544 13.8857 3.64847 14.4316 3.94509C17.0953 5.39207 18.75 8.17194 18.75 11.2C18.75 15.749 15.0491 19.45 10.5 19.45C5.95095 19.45 2.25 15.749 2.25 11.2C2.25 8.18514 3.89408 5.41104 6.5406 3.96017C7.08548 3.66152 7.28498 2.97767 6.98633 2.43287C6.6876 1.88807 6.00375 1.68849 5.45903 1.98714C2.09183 3.83312 0 7.36329 0 11.2C0 16.9897 4.7103 21.7 10.5 21.7C16.2897 21.7 21 16.9897 21 11.2C21 7.34649 18.8947 3.80897 15.5057 1.96794Z" fill="#3B3A87"/>
<path d="M10.5005 9.74999C11.1218 9.74999 11.6255 9.24629 11.6255 8.625V1.125C11.6255 0.5037 11.1218 0 10.5005 0C9.87919 0 9.37549 0.5037 9.37549 1.125V8.625C9.37549 9.24629 9.87919 9.74999 10.5005 9.74999Z" fill="#3B3A87"/>
</svg>
